<?xml version="1.0" standalone="no"?>
<!DOCTYPE svg PUBLIC "-//W3C//DTD SVG 1.1//EN" "http://www.w3.org/Graphics/SVG/1.1/DTD/svg11.dtd" >
<svg xmlns="http://www.w3.org/2000/svg" xmlns:xlink="http://www.w3.org/1999/xlink" version="1.1">
<metadata>
Created by FontForge 20190801 at Fri Sep 24 12:46:36 2004
 By root
Copyright (URW)++,Copyright 2004 by (URW)++ Design &#38; Development
</metadata>
<defs>
<font id="EurostileTOT-Med" horiz-adv-x="500" >
  <font-face 
    font-family="Eurostile T OT"
    font-weight="500"
    font-stretch="normal"
    units-per-em="1000"
    panose-1="4 0 6 0 0 0 0 0 0 0"
    ascent="800"
    descent="-200"
    x-height="467"
    cap-height="667"
    bbox="-175 -250 1138 870"
    underline-thickness="83"
    underline-position="-101"
    stemh="73"
    stemv="93"
    unicode-range="U+0020-FB02"
  />
<missing-glyph horiz-adv-x="250" 
 />
    <glyph glyph-name="fi" unicode="fi" horiz-adv-x="490" 
d="M78 0v395h-68v72h68v59c0 109 43 148 162 148c15 0 27 -1 49 -3v-73c-20 3 -31 4 -45 4c-55 0 -74 -19 -74 -73v-62h121v-72h-121v-395h-92zM433 667v-87h-92v87h92zM433 467v-467h-92v467h92z" />
    <glyph glyph-name="fl" unicode="fl" horiz-adv-x="490" 
d="M78 0v395h-68v72h68v59c0 109 43 148 162 148c15 0 27 -1 49 -3v-73c-20 3 -31 4 -45 4c-55 0 -74 -19 -74 -73v-62h121v-72h-121v-395h-92zM433 667v-667h-92v667h92z" />
    <glyph glyph-name=".notdef" horiz-adv-x="250" 
 />
    <glyph glyph-name="space" unicode=" " horiz-adv-x="250" 
 />
    <glyph glyph-name="exclam" unicode="!" horiz-adv-x="257" 
d="M174 106v-106h-94v106h94zM177 667l-9 -464h-86l-8 464h103z" />
    <glyph glyph-name="quotedbl" unicode="&#x22;" horiz-adv-x="341" 
d="M119 400h-62l-12 267h86zM284 400h-62l-12 267h86z" />
    <glyph glyph-name="numbersign" unicode="#" horiz-adv-x="621" 
d="M552 264l-10 -63h-112l-32 -201h-70l31 201h-140l-31 -201h-70l32 201h-112l10 63h111l23 141h-112l10 63h112l31 199h70l-31 -199h140l31 199h71l-32 -199h111l-10 -63h-111l-22 -141h112zM392 405h-140l-23 -141h140z" />
    <glyph glyph-name="dollar" unicode="$" horiz-adv-x="621" 
d="M345 583v-201c103 -3 135 -8 171 -24c55 -24 80 -74 80 -164c0 -102 -31 -156 -103 -179c-29 -10 -58 -13 -148 -15v-77h-69v77h-23c-108 1 -148 11 -186 49c-30 29 -42 71 -42 145v19h98c-1 -113 15 -129 133 -129l20 -1v216c-91 2 -131 7 -165 21
c-56 24 -79 71 -79 160c0 149 51 189 244 190v65h69v-66c188 2 236 -37 233 -191h-95l-1 15c0 80 -18 92 -137 90zM276 384v200c-84 -1 -94 -3 -116 -15c-20 -11 -30 -38 -30 -81s8 -70 26 -84c17 -14 33 -17 102 -19zM345 83h21c100 0 132 27 132 111c0 44 -9 72 -28 84
c-22 14 -41 17 -125 18v-213z" />
    <glyph glyph-name="percent" unicode="%" horiz-adv-x="792" 
d="M170 669c69 0 90 -5 109 -25c25 -24 29 -45 29 -139c0 -80 -1 -92 -9 -115c-18 -48 -45 -59 -142 -59c-69 0 -101 12 -119 44c-14 25 -16 41 -16 143c0 85 9 113 41 135c20 13 40 16 107 16zM163 622c-80 0 -85 -6 -85 -95c0 -110 1 -116 15 -134c8 -10 25 -13 81 -13
c76 0 78 4 78 124c0 118 0 118 -89 118zM641 667l-435 -667h-56l434 667h57zM632 335c68 0 89 -5 109 -24c25 -25 29 -46 29 -139c0 -80 -1 -92 -9 -115c-18 -48 -45 -59 -142 -59c-70 0 -101 12 -120 44c-14 24 -16 41 -16 143c0 84 9 112 41 134c21 13 41 16 108 16z
M626 288c-82 0 -87 -6 -87 -95c0 -109 1 -115 15 -133c8 -10 25 -13 82 -13c76 0 78 4 78 123c0 118 0 118 -88 118z" />
    <glyph glyph-name="ampersand" unicode="&#x26;" horiz-adv-x="697" 
d="M506 308h91c0 -93 -1 -116 -10 -157l106 -89l-50 -63l-90 75c-15 -28 -30 -44 -53 -55c-39 -20 -73 -25 -170 -25c-129 0 -181 9 -220 40c-37 29 -55 85 -55 173c0 81 17 126 56 151c15 10 28 13 76 22c-49 42 -58 60 -58 118c0 126 47 163 207 163
c154 0 201 -39 201 -165c0 -6 0 -22 -1 -38h-93v22c-1 89 -12 100 -107 100c-90 0 -110 -14 -110 -75c0 -45 6 -57 53 -95l227 -192v43v47zM483 132l-239 199c-77 -15 -91 -34 -91 -121c0 -56 8 -92 24 -110c18 -19 45 -24 140 -24c118 0 140 7 166 56z" />
    <glyph glyph-name="quotesingle" unicode="'" horiz-adv-x="176" 
d="M119 400h-62l-12 267h86z" />
    <glyph glyph-name="parenleft" unicode="(" horiz-adv-x="293" 
d="M243 -119v-83c-81 0 -111 8 -141 36c-31 29 -45 67 -50 139c-1 24 -2 83 -2 261c0 234 0 257 6 294c14 104 60 142 171 142h16v-84c-63 0 -81 -15 -89 -69c-4 -51 -4 -67 -4 -361c-1 -269 0 -272 93 -275z" />
    <glyph glyph-name="parenright" unicode=")" horiz-adv-x="293" 
d="M50 586v84h17c87 0 131 -23 156 -82c19 -45 20 -62 20 -354c0 -267 0 -276 -11 -326c-13 -57 -52 -96 -105 -105c-23 -4 -37 -5 -77 -5v83c63 1 81 15 89 69c4 50 4 64 4 363c1 267 0 270 -93 273z" />
    <glyph glyph-name="asterisk" unicode="*" horiz-adv-x="620" 
d="M489 519l-130 -47l77 -111l-45 -34l-80 115l-85 -115l-46 34l81 111l-130 49l19 56l131 -47v137h58v-137l131 47z" />
    <glyph glyph-name="plus" unicode="+" horiz-adv-x="621" 
d="M264 93v198h-194v85h194v198h93v-198h193v-85h-193v-198h-93z" />
    <glyph glyph-name="comma" unicode="," horiz-adv-x="213" 
d="M154 105v-106c0 -79 -21 -104 -85 -104h-20v45c38 1 49 11 49 45v15h-39v105h95z" />
    <glyph glyph-name="hyphen" unicode="-" horiz-adv-x="215" 
d="M1 294h214v-86h-215z" />
    <glyph glyph-name="period" unicode="." horiz-adv-x="205" 
d="M150 106v-106h-95v106h95z" />
    <glyph glyph-name="slash" unicode="/" horiz-adv-x="626" 
d="M560 667l-550 -867h-70l550 867h70z" />
    <glyph glyph-name="zero" unicode="0" horiz-adv-x="621" 
d="M311 673c117 0 156 -8 201 -39c28 -19 49 -54 56 -90c8 -41 9 -65 9 -210c0 -194 -3 -219 -29 -263c-20 -32 -54 -55 -100 -67c-25 -7 -69 -10 -137 -10c-116 0 -156 8 -201 39c-28 19 -49 54 -56 90c-8 42 -9 67 -9 215c0 187 3 214 29 258c20 32 54 55 100 67
c25 7 71 10 137 10zM309 584c-113 0 -139 -11 -154 -61c-7 -24 -10 -76 -10 -189c0 -134 4 -180 16 -207c17 -35 48 -44 151 -44c113 0 142 12 156 69c6 24 9 86 9 187c0 133 -3 174 -16 200c-17 35 -50 45 -152 45z" />
    <glyph glyph-name="one" unicode="1" horiz-adv-x="621" 
d="M420 667v-667h-103v581l-172 -179l-63 64l202 201h136z" />
    <glyph glyph-name="two" unicode="2" horiz-adv-x="621" 
d="M549 85v-85h-493v133c0 70 12 109 41 136c32 30 55 37 185 56c161 23 168 29 168 143c0 99 -22 118 -137 118c-139 0 -156 -13 -156 -115v-36h-100c2 107 5 131 25 165c30 52 95 73 229 73c188 0 239 -46 239 -213c0 -89 -16 -137 -56 -167c-30 -22 -72 -34 -171 -48
c-98 -14 -115 -18 -135 -31c-23 -15 -30 -41 -30 -109v-20h391z" />
    <glyph glyph-name="three" unicode="3" horiz-adv-x="621" 
d="M252 300v82h22c95 0 124 3 142 13c22 12 30 34 30 81c0 101 -12 110 -148 110c-89 0 -116 -7 -129 -34c-8 -18 -10 -31 -10 -96h-99c1 93 4 114 21 146c29 53 84 71 219 71c195 0 248 -37 248 -173c0 -107 -27 -145 -111 -157v-3c47 -6 67 -13 86 -30
c25 -23 36 -60 36 -122c0 -74 -14 -121 -46 -149c-36 -33 -89 -45 -204 -45c-137 0 -195 15 -228 59c-23 31 -32 69 -32 136v33h101c-1 -12 -1 -25 -1 -30c0 -101 14 -111 164 -111c72 0 109 7 125 24c12 14 19 46 19 97c0 56 -13 81 -49 92c-17 6 -28 6 -132 6h-24z" />
    <glyph glyph-name="four" unicode="4" horiz-adv-x="621" 
d="M495 667v-437h87v-82h-87v-148h-103v148h-366v118l310 401h159zM392 230v363h-3l-278 -363h281z" />
    <glyph glyph-name="five" unicode="5" horiz-adv-x="621" 
d="M534 667v-82h-361l-2 -182h2c30 43 65 54 166 54c172 0 223 -52 223 -226c0 -193 -48 -237 -256 -237c-128 0 -184 17 -217 66c-21 31 -27 60 -27 132h100c2 -98 19 -111 138 -111c78 0 118 7 138 25c18 16 22 42 22 136c0 112 -21 131 -148 131
c-107 0 -133 -10 -144 -55h-93v349h459z" />
    <glyph glyph-name="six" unicode="6" horiz-adv-x="621" 
d="M548 488h-102c1 8 1 16 1 19c0 65 -22 79 -124 79c-146 0 -166 -14 -166 -116v-124h2c32 52 58 62 172 62c101 0 150 -11 183 -42c31 -29 45 -78 45 -155c0 -97 -21 -157 -64 -186c-35 -23 -80 -31 -184 -31c-127 0 -178 14 -217 60c-35 40 -43 88 -43 269
c0 52 3 164 5 187c5 68 25 105 70 132c36 22 88 31 175 31c122 0 180 -13 212 -50c24 -26 35 -63 35 -114v-21zM303 323c-78 0 -117 -9 -134 -30c-12 -15 -16 -35 -16 -76c0 -121 18 -137 155 -137c135 0 151 13 151 121c0 111 -14 122 -156 122z" />
    <glyph glyph-name="seven" unicode="7" horiz-adv-x="621" 
d="M538 667v-111l-293 -556h-118l314 579h-394v88h491z" />
    <glyph glyph-name="eight" unicode="8" horiz-adv-x="621" 
d="M445 345v-2c91 -17 115 -49 115 -155c0 -157 -48 -194 -251 -194c-212 0 -259 35 -259 192c0 107 26 142 116 158v2c-41 10 -58 16 -73 30c-23 20 -34 61 -34 121c0 67 14 112 42 136c36 31 82 40 203 40c127 0 169 -8 204 -38c29 -26 44 -72 44 -140
c0 -98 -23 -130 -107 -150zM306 588c-136 0 -147 -8 -147 -100c0 -95 14 -104 161 -104c114 0 132 14 132 104s-14 100 -146 100zM301 301c-90 0 -120 -6 -137 -30c-11 -16 -14 -32 -14 -75c0 -107 11 -115 160 -115c131 0 150 15 150 116c0 91 -19 104 -159 104z" />
    <glyph glyph-name="nine" unicode="9" horiz-adv-x="621" 
d="M49 180h99c0 -41 4 -59 15 -75c15 -20 36 -24 137 -24c141 0 153 11 153 143v99h-2c-30 -53 -58 -63 -179 -63c-172 0 -219 42 -219 196c0 175 48 217 248 217c152 0 207 -23 237 -96c16 -39 20 -89 20 -259c0 -175 -6 -218 -35 -259c-35 -50 -88 -65 -227 -65
c-118 0 -164 9 -202 38c-30 23 -46 67 -46 123c0 5 0 14 1 25zM296 587c-125 0 -143 -15 -143 -117c0 -112 15 -125 143 -125c94 0 132 9 147 34c8 15 11 32 11 72c0 122 -16 136 -158 136z" />
    <glyph glyph-name="colon" unicode=":" horiz-adv-x="205" 
d="M150 106v-106h-95v106h95zM150 467v-106h-95v106h95z" />
    <glyph glyph-name="semicolon" unicode=";" horiz-adv-x="196" 
d="M138 105v-106c0 -79 -21 -104 -85 -104h-20v45c38 1 49 11 49 45v15h-39v105h95zM134 467v-106h-95v106h95z" />
    <glyph glyph-name="less" unicode="&#x3c;" 
d="M466 586v-91l-335 -157l335 -157v-91l-433 209v78z" />
    <glyph glyph-name="equal" unicode="=" horiz-adv-x="621" 
d="M70 465h480v-85h-480v85zM70 286h480v-85h-480v85z" />
    <glyph glyph-name="greater" unicode="&#x3e;" 
d="M34 90v91l335 157l-335 157v91l433 -209v-79z" />
    <glyph glyph-name="question" unicode="?" horiz-adv-x="524" 
d="M279 106v-106h-94v106h94zM281 203h-94c2 119 9 128 142 179c46 19 57 38 57 103c0 94 -16 109 -117 109c-76 0 -108 -11 -119 -40c-7 -20 -8 -24 -8 -92h-91v23c2 79 9 110 32 138c29 35 87 50 192 50c86 0 128 -11 161 -43c29 -27 40 -64 40 -137
c0 -77 -10 -113 -39 -144c-19 -21 -21 -22 -87 -48c-62 -25 -69 -33 -69 -82v-16z" />
    <glyph glyph-name="at" unicode="@" horiz-adv-x="664" 
d="M415 483h65v-222c2 -41 2 -43 6 -50c6 -10 18 -16 33 -16c27 0 36 10 42 44c5 24 8 77 8 122c0 184 -12 195 -216 195c-151 0 -200 -9 -225 -40c-21 -27 -32 -92 -32 -193c0 -242 19 -261 252 -261c65 0 112 4 136 11c12 4 19 10 27 24l46 -26c-26 -49 -70 -61 -216 -61
c-255 0 -298 43 -298 298c0 153 18 223 66 259c39 30 108 41 244 41c139 0 197 -14 230 -53c25 -31 38 -92 38 -181c0 -94 -9 -158 -26 -191c-13 -26 -38 -38 -78 -38c-57 0 -86 17 -92 55h-2c-14 -40 -49 -58 -115 -58c-95 0 -126 41 -126 167c0 81 6 112 26 138
c21 26 52 37 102 37c60 0 88 -13 103 -47h2v46zM329 433c-68 0 -82 -19 -82 -116c0 -103 14 -124 80 -124c80 0 89 15 89 144c0 72 -21 96 -87 96z" />
    <glyph glyph-name="A" unicode="A" horiz-adv-x="622" 
d="M467 134h-311l-46 -134h-108l233 667h149l236 -667h-106zM442 212l-131 375l-129 -375h260z" />
    <glyph glyph-name="B" unicode="B" horiz-adv-x="627" 
d="M61 0v667h312c81 0 112 -5 140 -23c41 -26 59 -72 59 -153c0 -89 -23 -124 -92 -144v-2c84 -17 110 -55 110 -159c0 -137 -51 -186 -193 -186h-336zM163 380h175c61 0 82 3 100 15c24 15 32 39 32 90c0 52 -10 76 -37 88c-13 6 -29 8 -71 8h-199v-201zM163 86h149
c115 1 120 2 142 14c25 13 34 37 34 89c0 62 -11 88 -41 102c-19 8 -29 9 -107 9h-177v-214z" />
    <glyph glyph-name="C" unicode="C" horiz-adv-x="608" 
d="M484 230h102v-23c0 -95 -9 -133 -41 -165c-39 -38 -88 -48 -236 -48c-125 0 -176 13 -216 53c-47 47 -58 112 -58 327c0 156 10 199 56 242c48 46 97 57 260 57c92 0 124 -5 159 -26c37 -21 60 -64 65 -118c2 -21 3 -33 4 -75h-102c-2 119 -15 131 -136 131
c-179 0 -199 -16 -199 -156c0 -214 3 -260 18 -294c18 -42 49 -53 151 -53c153 0 174 14 174 116c0 9 0 17 -1 32z" />
    <glyph glyph-name="D" unicode="D" horiz-adv-x="663" 
d="M61 0v667h318c94 0 150 -17 188 -58c46 -49 61 -107 61 -232c0 -179 -6 -233 -33 -281c-26 -46 -60 -71 -112 -84c-27 -7 -65 -12 -92 -12h-330zM163 88h198c67 0 110 13 131 41c26 34 33 77 33 199c0 137 -6 175 -31 209c-21 29 -56 41 -122 41h-209v-490z" />
    <glyph glyph-name="E" unicode="E" horiz-adv-x="520" 
d="M143 581v-199h325v-79h-325v-217h342v-86h-444v667h442v-86h-340z" />
    <glyph glyph-name="F" unicode="F" horiz-adv-x="504" 
d="M163 581v-206h311v-85h-311v-290h-102v667h426v-86h-324z" />
    <glyph glyph-name="G" unicode="G" horiz-adv-x="633" 
d="M311 343h290c2 -32 2 -41 2 -81c0 -121 -4 -153 -25 -190c-18 -34 -49 -56 -92 -67c-27 -7 -85 -11 -168 -11c-99 0 -140 6 -181 25c-46 21 -71 50 -88 102c-11 34 -14 69 -14 149c0 187 1 204 12 256c17 76 59 120 129 137c28 7 71 10 148 10c143 0 172 -4 218 -32
c25 -16 45 -46 52 -79c5 -26 7 -45 7 -92h-102c-3 108 -16 116 -184 116c-105 0 -142 -11 -160 -50c-14 -31 -17 -68 -17 -200c0 -142 3 -175 17 -205c18 -39 57 -50 177 -50c152 0 169 15 169 150c0 5 0 18 -1 32h-189v80z" />
    <glyph glyph-name="H" unicode="H" horiz-adv-x="675" 
d="M614 667v-667h-102v297h-349v-297h-102v667h102v-283h349v283h102z" />
    <glyph glyph-name="I" unicode="I" horiz-adv-x="225" 
d="M163 667v-667h-102v667h102z" />
    <glyph glyph-name="J" unicode="J" horiz-adv-x="510" 
d="M450 667v-466c0 -84 -7 -118 -31 -149c-33 -42 -82 -58 -179 -58c-121 0 -181 25 -203 84c-9 24 -12 52 -12 118c0 19 0 32 1 56h98v-23c0 -94 1 -104 15 -124c12 -17 38 -23 95 -23c98 0 114 18 114 133v452h102z" />
    <glyph glyph-name="K" unicode="K" horiz-adv-x="625" 
d="M163 667v-281h63l246 281h129l-287 -324l319 -343h-134l-273 297h-63v-297h-102v667h102z" />
    <glyph glyph-name="L" unicode="L" horiz-adv-x="494" 
d="M163 667v-575h327v-92h-429v667h102z" />
    <glyph glyph-name="M" unicode="M" horiz-adv-x="878" 
d="M817 667v-667h-101v445c0 39 0 39 4 141h-3c-25 -74 -36 -108 -44 -125l-185 -461h-96l-187 456c-8 20 -15 38 -30 84l-15 42h-2c3 -69 4 -115 4 -137v-445h-101v667h169l148 -368c15 -39 18 -47 59 -163h3l24 68c14 41 27 76 34 95l147 368h172z" />
    <glyph glyph-name="N" unicode="N" horiz-adv-x="717" 
d="M656 667v-667h-171l-234 408c-14 28 -44 84 -88 171h-4c2 -60 3 -106 3 -139v-440h-101v667h170l207 -367c23 -41 44 -79 115 -213h3c-1 60 -2 106 -2 137v443h102z" />
    <glyph glyph-name="O" unicode="O" horiz-adv-x="632" 
d="M320 673c103 0 147 -6 186 -25c53 -26 82 -72 95 -147c5 -32 6 -61 6 -155c0 -134 -2 -161 -12 -210c-13 -58 -45 -98 -94 -119c-43 -18 -84 -23 -180 -23c-110 0 -148 5 -192 24c-48 21 -78 60 -91 117c-11 47 -13 73 -13 198c0 166 7 211 40 261c40 61 99 79 255 79z
M504 242v93v93c0 75 -16 122 -48 140c-24 14 -53 17 -151 17c-120 0 -148 -12 -166 -69c-10 -32 -11 -44 -11 -183c0 -124 0 -124 5 -158c7 -43 23 -69 52 -80c25 -10 52 -13 132 -13c93 0 123 5 146 22c26 20 41 70 41 138z" />
    <glyph glyph-name="P" unicode="P" horiz-adv-x="602" 
d="M61 0v667h274c117 0 141 -4 180 -31c43 -31 62 -88 62 -190c0 -106 -27 -166 -87 -191c-32 -14 -36 -15 -157 -17h-170v-238h-102zM163 326h161c130 0 150 17 150 122c0 79 -9 109 -38 122c-18 9 -35 11 -94 11h-179v-255z" />
    <glyph glyph-name="Q" unicode="Q" horiz-adv-x="662" 
d="M663 86l-42 -65l-62 42c-45 -54 -96 -69 -234 -69c-114 0 -153 5 -197 24c-51 23 -81 66 -94 131c-7 42 -9 70 -9 176c0 175 6 218 40 269c40 61 98 79 254 79c102 0 149 -6 187 -25c53 -26 82 -72 95 -147c5 -32 6 -61 6 -157c0 -136 -2 -170 -12 -212zM298 238l44 64
l159 -106c3 36 3 36 3 139v93c0 75 -16 122 -47 140c-25 13 -53 17 -139 17c-104 0 -135 -6 -156 -29c-26 -29 -33 -65 -33 -168v-55l-1 -54c-2 -91 7 -139 31 -167c22 -25 54 -30 175 -30c88 0 108 6 140 39z" />
    <glyph glyph-name="R" unicode="R" horiz-adv-x="634" 
d="M61 0v667h323c153 0 206 -51 206 -195c0 -128 -25 -166 -118 -183v-3c75 -6 110 -47 110 -129v-157h-103v135c0 47 -7 70 -28 87c-20 17 -38 22 -85 22h-203v-244h-102zM163 332h198c47 0 77 7 96 22c23 18 30 40 30 96c0 80 -7 103 -38 118c-15 7 -40 11 -71 11h-215
v-247z" />
    <glyph glyph-name="S" unicode="S" horiz-adv-x="580" 
d="M537 479h-100c0 46 -3 63 -15 80c-17 23 -45 30 -123 30c-138 0 -164 -16 -164 -104c0 -54 14 -80 49 -91c18 -6 28 -7 129 -12c122 -6 159 -14 190 -39c35 -28 48 -68 48 -146c0 -99 -17 -146 -64 -174c-39 -22 -86 -29 -212 -29c-135 0 -184 14 -216 63
c-22 33 -28 64 -29 152h100c0 -60 3 -75 15 -96c17 -30 35 -34 147 -34c141 0 158 13 158 119c0 51 -11 74 -41 85c-18 6 -18 6 -132 13c-124 7 -139 9 -173 27c-51 27 -71 73 -71 159c0 78 16 126 51 152c40 30 90 39 209 39c132 0 184 -14 216 -59c19 -28 28 -64 28 -115
v-20z" />
    <glyph glyph-name="T" unicode="T" horiz-adv-x="522" 
d="M310 575v-575h-102v575h-204v92h513v-93z" />
    <glyph glyph-name="U" unicode="U" horiz-adv-x="664" 
d="M501 667h102v-455c0 -81 -9 -120 -34 -153c-40 -51 -91 -65 -240 -65c-99 0 -141 5 -179 22c-68 31 -89 77 -89 192v459h102v-459c0 -48 4 -73 14 -88c19 -29 56 -38 150 -38c155 0 174 14 174 129v456z" />
    <glyph glyph-name="V" unicode="V" horiz-adv-x="594" 
d="M490 667h108l-224 -667h-153l-225 667h107l150 -438c13 -42 30 -98 44 -144h2c17 61 31 106 43 143z" />
    <glyph glyph-name="W" unicode="W" horiz-adv-x="997" 
d="M996 667l-193 -667h-152l-116 409c-11 41 -14 51 -25 95l-11 48h-3c-17 -63 -29 -111 -39 -144l-118 -408h-150l-188 667h104l119 -420c10 -34 15 -56 40 -164h3c6 21 13 48 21 82c7 28 15 55 23 81l121 421h131l120 -421c10 -37 24 -91 42 -163h3c6 23 11 46 17 68
c10 41 19 76 25 96l121 420h105z" />
    <glyph glyph-name="X" unicode="X" horiz-adv-x="606" 
d="M596 667l-207 -322l221 -345h-119l-131 208c-10 14 -20 33 -52 89h-2l-22 -38c-15 -25 -26 -44 -32 -52l-133 -207h-123l228 345l-211 322h122l125 -196c6 -9 20 -34 45 -78h2c28 49 36 63 45 77l124 197h120z" />
    <glyph glyph-name="Y" unicode="Y" horiz-adv-x="587" 
d="M591 667l-250 -401v-266h-102v266l-243 401h118l121 -200c14 -22 17 -28 56 -97h2c8 13 17 29 28 48l18 33l10 16l121 200h121z" />
    <glyph glyph-name="Z" unicode="Z" horiz-adv-x="572" 
d="M543 667v-87l-393 -490v-3h400v-87h-527v88l391 489v3h-377v87h506z" />
    <glyph glyph-name="bracketleft" unicode="[" horiz-adv-x="293" 
d="M55 667h188v-76h-91v-715h91v-76h-188v867z" />
    <glyph glyph-name="backslash" unicode="\" horiz-adv-x="626" 
d="M-60 667h70l550 -867h-70z" />
    <glyph glyph-name="bracketright" unicode="]" horiz-adv-x="293" 
d="M238 -200h-187v76h90v715h-90v76h187v-867z" />
    <glyph glyph-name="asciicircum" unicode="^" 
d="M115 355h-97l171 314h121l171 -314h-98l-134 242z" />
    <glyph glyph-name="underscore" unicode="_" 
d="M0 -59h500v-83h-500v83z" />
    <glyph glyph-name="grave" unicode="`" 
d="M166 665l146 -102l-24 -42l-160 81z" />
    <glyph glyph-name="a" unicode="a" horiz-adv-x="517" 
d="M153 334h-93c1 112 38 139 193 139c158 0 203 -37 203 -166v-307h-92l5 57l-2 1c-27 -49 -63 -64 -153 -64c-128 0 -173 38 -173 143c0 53 15 96 40 116c27 20 72 31 135 31c49 0 88 -5 113 -16c15 -6 24 -15 33 -34h2v66c0 90 -18 109 -108 109c-82 0 -102 -13 -103 -67
v-8zM249 219c-92 0 -113 -14 -113 -72c0 -68 19 -83 107 -83c93 0 123 19 123 76c0 62 -26 79 -117 79z" />
    <glyph glyph-name="b" unicode="b" horiz-adv-x="521" 
d="M57 0v667h92v-264l2 -1c19 50 62 71 149 71c59 0 103 -13 129 -39c35 -34 49 -91 49 -202c0 -182 -44 -238 -187 -238c-78 0 -118 20 -144 73l-2 -1l4 -66h-92zM270 398c-92 0 -119 -34 -119 -148c0 -156 17 -181 119 -181c94 0 113 28 113 163c0 139 -19 166 -113 166z
" />
    <glyph glyph-name="c" unicode="c" horiz-adv-x="488" 
d="M366 174h91c0 -72 -6 -101 -27 -128c-29 -39 -74 -52 -174 -52c-173 0 -214 47 -214 243c0 185 45 236 211 236c151 0 196 -38 197 -165h-91c1 74 -19 91 -109 91c-100 0 -114 -21 -114 -167c0 -74 8 -119 24 -140c13 -17 42 -24 103 -24c88 0 103 15 103 106z" />
    <glyph glyph-name="d" unicode="d" horiz-adv-x="519" 
d="M462 667v-667h-90l3 68l-2 1c-24 -54 -64 -75 -146 -75c-65 0 -113 15 -140 45c-33 36 -44 85 -44 202c0 104 11 151 45 189c26 28 71 43 135 43c84 0 126 -20 145 -69l2 1v262h92zM250 398c-41 0 -73 -8 -86 -22c-19 -19 -27 -62 -27 -134c0 -145 19 -174 114 -174
c100 0 119 28 119 177c0 122 -24 153 -120 153z" />
    <glyph glyph-name="e" unicode="e" horiz-adv-x="505" 
d="M369 146h93v-18c0 -98 -54 -134 -201 -134c-179 0 -219 45 -219 242c0 190 43 237 217 237c120 0 169 -26 192 -102c9 -31 11 -58 11 -154h-326v-14c0 -113 21 -137 120 -137c98 0 113 11 113 80zM137 279h233c-1 62 -2 70 -10 87c-13 28 -38 37 -103 37
c-102 0 -119 -18 -120 -124z" />
    <glyph glyph-name="f" unicode="f" horiz-adv-x="292" 
d="M78 0v395h-68v72h68v59c0 109 43 148 162 148c15 0 27 -1 49 -3v-73c-20 3 -31 4 -45 4c-55 0 -74 -19 -74 -73v-62h121v-72h-121v-395h-92z" />
    <glyph glyph-name="g" unicode="g" horiz-adv-x="520" 
d="M463 467v-486c0 -145 -50 -189 -213 -189c-102 0 -155 20 -177 66c-10 20 -13 41 -13 90h88c1 -71 16 -83 107 -83c89 0 116 23 116 100v100h-2c-20 -49 -63 -70 -143 -70c-64 0 -112 16 -141 47c-32 36 -43 81 -43 189c0 113 11 161 46 198c28 30 74 44 139 44
c82 0 121 -20 146 -77l2 1l-4 70h92zM251 398c-95 0 -114 -25 -114 -157c0 -146 17 -171 115 -171c97 0 117 29 117 173c0 128 -21 155 -118 155z" />
    <glyph glyph-name="h" unicode="h" horiz-adv-x="523" 
d="M149 667v-268h2c21 55 58 74 145 74c125 0 168 -42 168 -165v-308h-92v292c0 50 -2 60 -12 76c-14 22 -37 30 -82 30c-100 0 -129 -30 -129 -134v-264h-92v667h92z" />
    <glyph glyph-name="i" unicode="i" horiz-adv-x="207" 
d="M149 667v-87h-92v87h92zM149 467v-467h-92v467h92z" />
    <glyph glyph-name="j" unicode="j" horiz-adv-x="205" 
d="M147 667v-87h-92v87h92zM147 467v-498c0 -104 -28 -138 -113 -138c-12 0 -20 1 -35 4v65c6 -2 10 -2 14 -2c32 0 42 18 42 76v493h92z" />
    <glyph glyph-name="k" unicode="k" horiz-adv-x="458" 
d="M149 667v-384h30l144 184h110l-181 -217l215 -250h-117l-173 216h-28v-216h-92v667h92z" />
    <glyph glyph-name="l" unicode="l" horiz-adv-x="207" 
d="M149 667v-667h-92v667h92z" />
    <glyph glyph-name="m" unicode="m" horiz-adv-x="822" 
d="M57 467h92l-2 -71l2 -1c26 56 68 78 147 78c80 0 129 -28 142 -83h2c27 59 73 83 154 83c71 0 120 -21 143 -61c13 -23 19 -54 19 -105v-307h-92v298c0 76 -20 99 -90 99c-59 0 -99 -17 -112 -49c-7 -15 -10 -40 -10 -76v-272h-92v297c-2 57 -2 58 -9 70
c-12 20 -40 30 -81 30c-88 0 -121 -36 -121 -129v-268h-92v467z" />
    <glyph glyph-name="n" unicode="n" horiz-adv-x="524" 
d="M57 467h92l-3 -72l2 -1c22 54 69 79 149 79c79 0 131 -22 153 -64c11 -20 14 -44 14 -98v-311h-92v289c0 92 -15 109 -96 109c-88 0 -125 -35 -125 -119v-279h-94v467z" />
    <glyph glyph-name="o" unicode="o" horiz-adv-x="512" 
d="M254 473c179 0 216 -39 216 -230c0 -208 -35 -249 -215 -249c-178 0 -213 40 -213 247c0 190 38 232 212 232zM256 399c-105 0 -119 -19 -119 -161c0 -153 12 -170 120 -170c104 0 118 20 118 169c0 144 -13 162 -119 162z" />
    <glyph glyph-name="p" unicode="p" horiz-adv-x="523" 
d="M57 467h91l-3 -64l2 -1c28 53 67 71 152 71c136 0 180 -58 180 -237c0 -184 -42 -242 -179 -242c-84 0 -121 17 -148 68h-2v-262h-93v667zM267 399c-96 0 -116 -29 -116 -165c0 -134 23 -165 120 -165c93 0 113 29 113 161c0 143 -18 169 -117 169z" />
    <glyph glyph-name="q" unicode="q" horiz-adv-x="520" 
d="M463 467v-667h-92v263l-2 1c-23 -51 -63 -70 -148 -70c-62 0 -108 15 -134 44c-33 39 -45 89 -45 201c0 109 13 161 50 195c28 26 72 39 130 39c84 0 121 -17 149 -71l3 1l-3 64h92zM250 399c-93 0 -113 -28 -113 -164c0 -140 18 -166 114 -166c94 0 118 32 118 155
c0 83 -8 129 -27 150c-13 16 -46 25 -92 25z" />
    <glyph glyph-name="r" unicode="r" horiz-adv-x="411" 
d="M62 467h92l-7 -60l2 -1c30 51 65 70 130 70c89 0 126 -42 126 -144c0 -4 0 -19 -1 -33h-87c1 14 1 22 1 31c0 54 -17 72 -67 72c-44 0 -75 -17 -88 -48c-7 -16 -9 -36 -9 -76v-278h-92v467z" />
    <glyph glyph-name="s" unicode="s" horiz-adv-x="485" 
d="M434 341h-90c-4 59 -13 65 -106 65s-107 -8 -107 -64c0 -37 8 -53 29 -60c11 -3 11 -3 93 -7c90 -5 90 -5 110 -9c59 -13 86 -53 86 -127c0 -50 -14 -88 -40 -110c-31 -26 -76 -35 -172 -35c-152 0 -201 33 -201 134v20h95c-1 -7 -1 -15 -1 -18c0 -56 20 -69 110 -69
c95 0 117 14 117 73c0 50 -14 64 -67 65c-75 1 -145 6 -173 14c-55 14 -77 50 -77 124c0 108 42 136 202 136c152 0 193 -28 192 -132z" />
    <glyph glyph-name="t" unicode="t" horiz-adv-x="356" 
d="M334 467v-72h-179v-258c0 -56 11 -70 56 -70c50 0 62 16 62 84c0 7 0 11 -1 22h80c1 -13 1 -28 1 -32c0 -109 -38 -147 -147 -147c-78 0 -118 18 -135 62c-6 17 -8 32 -8 72v267h-63v72h63v108h92v-108h179z" />
    <glyph glyph-name="u" unicode="u" horiz-adv-x="518" 
d="M455 467v-467h-92l6 71l-2 1c-24 -54 -70 -78 -152 -78c-111 0 -159 48 -159 161v312h92v-298c0 -80 18 -100 93 -100c93 0 122 32 122 137v261h92z" />
    <glyph glyph-name="v" unicode="v" horiz-adv-x="422" 
d="M426 467l-144 -467h-139l-147 467h96l71 -234c11 -37 28 -93 49 -167h1c7 23 13 46 19 70c9 34 17 63 27 97l68 234h99z" />
    <glyph glyph-name="w" unicode="w" horiz-adv-x="692" 
d="M690 467l-117 -467h-135l-55 233c-12 53 -14 61 -24 108c-4 18 -8 36 -11 53h-3c-14 -66 -26 -120 -36 -161l-54 -233h-137l-115 467h93l55 -236c12 -50 14 -61 25 -112c4 -19 7 -38 11 -56h2c16 68 29 124 39 167l57 237h123l56 -237l39 -167h2c23 109 24 114 36 168
l55 236h94z" />
    <glyph glyph-name="x" unicode="x" horiz-adv-x="427" 
d="M414 467l-143 -220l160 -247h-109l-108 179l-107 -179h-111l161 245l-143 222h109l91 -159l91 159h109z" />
    <glyph glyph-name="y" unicode="y" horiz-adv-x="413" 
d="M417 467l-127 -495c-14 -55 -33 -105 -49 -127c-25 -36 -66 -53 -125 -53c-13 0 -21 1 -36 2v71c8 -1 18 -2 21 -2c54 0 77 32 98 137h-43l-160 467h98l65 -203l32 -101c11 -34 21 -68 32 -101h2c6 28 12 56 19 84c9 40 19 79 28 118l49 203h96z" />
    <glyph glyph-name="z" unicode="z" horiz-adv-x="414" 
d="M42 467h351v-82l-264 -314h264v-71h-372v82l262 314h-241v71z" />
    <glyph glyph-name="braceleft" unicode="{" horiz-adv-x="382" 
d="M215 506v-154c0 -66 -16 -96 -60 -118c44 -23 60 -53 60 -119v-154c0 -43 8 -67 27 -79c11 -7 37 -12 59 -12h7v-70h-60c-43 0 -80 16 -96 41c-14 22 -22 61 -22 107v161c0 54 -15 77 -56 89v71c41 12 56 35 56 89v161c0 46 8 86 22 107c16 25 53 41 96 41h60v-70h-7
c-30 0 -56 -7 -67 -19c-14 -14 -19 -34 -19 -72z" />
    <glyph glyph-name="bar" unicode="|" 
d="M204 667h92v-834h-92v834z" />
    <glyph glyph-name="braceright" unicode="}" horiz-adv-x="382" 
d="M167 -38v154c0 65 16 96 60 118c-44 22 -60 53 -60 118v154c0 43 -8 67 -27 79c-11 7 -37 12 -58 12h-8v70h60c43 0 80 -16 96 -41c14 -22 22 -61 22 -107v-161c0 -53 15 -77 56 -89v-71c-41 -12 -56 -35 -56 -89v-161c0 -46 -8 -84 -22 -107c-16 -25 -53 -41 -96 -41
h-60v70c72 0 93 21 93 92z" />
    <glyph glyph-name="asciitilde" unicode="~" horiz-adv-x="667" 
d="M144 575l-52 34c18 38 26 53 38 70c27 36 62 54 104 54c26 0 56 -9 109 -32c59 -25 71 -29 94 -29c35 0 56 15 84 62l54 -31c-24 -49 -40 -70 -64 -89c-25 -19 -56 -30 -86 -30c-27 0 -51 8 -142 47c-21 9 -42 14 -57 14c-33 0 -55 -19 -82 -70z" />
    <glyph glyph-name="Euro" unicode="&#x20ac;" horiz-adv-x="621" 
d="M121 209h-106l34 87h69l-1 50v1h-102l34 87h69c1 80 11 125 34 158c29 41 72 65 135 75c31 4 68 6 141 6c98 0 115 -2 160 -17l-38 -96c-24 22 -40 25 -129 25c-175 0 -197 -17 -197 -151h278l-35 -87h-243v-8v-8c0 -3 0 -9 1 -18v-17h225l-35 -87h-188
c12 -112 31 -127 167 -127c93 0 120 3 152 18v-98c-44 -7 -71 -8 -155 -8c-114 0 -155 8 -200 40c-43 30 -64 82 -70 175z" />
    <glyph glyph-name="quotesinglbase" unicode="&#x201a;" horiz-adv-x="213" 
d="M154 105v-106c0 -79 -21 -104 -85 -104h-20v45c38 1 49 11 49 45v15h-39v105h95z" />
    <glyph glyph-name="florin" unicode="&#x192;" horiz-adv-x="621" 
d="M380 428l-73 -415c-15 -82 -30 -112 -64 -130c-24 -12 -70 -19 -125 -19c-15 0 -27 0 -50 2l13 74c21 -2 34 -3 49 -3c52 0 69 16 79 73l74 418h-84l12 72h85l16 92c11 64 27 101 49 118c25 20 77 31 139 31c13 0 14 0 49 -1l-13 -74c-21 2 -32 2 -47 2
c-54 0 -69 -14 -80 -73l-17 -95h114l-12 -72h-114z" />
    <glyph glyph-name="quotedblbase" unicode="&#x201e;" horiz-adv-x="348" 
d="M152 105v-106c0 -79 -21 -104 -85 -104h-20v45c38 1 49 11 49 45v15h-39v105h95zM307 105v-106c0 -38 -4 -61 -13 -75c-13 -19 -37 -29 -73 -29h-19v45c41 2 50 12 48 60h-39v105h96z" />
    <glyph glyph-name="ellipsis" unicode="&#x2026;" horiz-adv-x="616" 
d="M150 106v-106h-95v106h95zM355 106v-106h-95v106h95zM561 106v-106h-95v106h95z" />
    <glyph glyph-name="dagger" unicode="&#x2020;" horiz-adv-x="620" 
d="M357 667v-186h159v-72h-159v-609h-94v609h-159v72h159v186h94z" />
    <glyph glyph-name="daggerdbl" unicode="&#x2021;" horiz-adv-x="620" 
d="M357 667v-186h159v-72h-159v-351h159v-72h-159v-186h-94v186h-159v72h159v351h-159v72h159v186h94z" />
    <glyph glyph-name="circumflex" unicode="&#x2c6;" 
d="M249 658l138 -101l-26 -39l-112 67l-110 -67l-27 39z" />
    <glyph glyph-name="perthousand" unicode="&#x2030;" horiz-adv-x="1161" 
d="M170 669c69 0 90 -5 109 -25c25 -24 29 -45 29 -139c0 -80 -1 -92 -9 -115c-18 -48 -45 -59 -142 -59c-69 0 -101 12 -119 44c-14 25 -16 41 -16 143c0 85 9 113 41 135c20 13 40 16 107 16zM163 622c-80 0 -85 -6 -85 -95c0 -110 1 -116 15 -134c8 -10 25 -13 81 -13
c76 0 78 4 78 124c0 118 0 118 -89 118zM641 667l-435 -667h-56l434 667h57zM632 335c68 0 89 -5 109 -24c25 -25 29 -46 29 -139c0 -80 -1 -92 -9 -115c-18 -48 -45 -59 -142 -59c-70 0 -101 12 -120 44c-14 24 -16 41 -16 143c0 84 9 112 41 134c21 13 41 16 108 16z
M626 288c-82 0 -87 -6 -87 -95c0 -109 1 -115 15 -133c8 -10 25 -13 82 -13c76 0 78 4 78 123c0 118 0 118 -88 118zM1000 335c69 0 90 -5 109 -24c25 -25 29 -46 29 -139c0 -80 -1 -92 -9 -115c-17 -48 -45 -59 -142 -59c-69 0 -101 12 -119 44c-14 25 -16 40 -16 143
c0 84 9 112 41 134c21 13 41 16 107 16zM994 288c-81 0 -86 -6 -86 -95c0 -109 1 -115 15 -133c8 -10 25 -13 81 -13c76 0 78 4 78 123c0 118 0 118 -88 118z" />
    <glyph glyph-name="Scaron" unicode="&#x160;" horiz-adv-x="580" 
d="M537 479h-100c0 46 -3 63 -15 80c-17 23 -45 30 -123 30c-138 0 -164 -16 -164 -104c0 -54 14 -80 49 -91c18 -6 28 -7 129 -12c122 -6 159 -14 190 -39c35 -28 48 -68 48 -146c0 -99 -17 -146 -64 -174c-39 -22 -86 -29 -212 -29c-135 0 -184 14 -216 63
c-22 33 -28 64 -29 152h100c0 -60 3 -75 15 -96c17 -30 35 -34 147 -34c141 0 158 13 158 119c0 51 -11 74 -41 85c-18 6 -18 6 -132 13c-124 7 -139 9 -173 27c-51 27 -71 73 -71 159c0 78 16 126 51 152c40 30 90 39 209 39c132 0 184 -14 216 -59c19 -28 28 -64 28 -115
v-20zM290 719l-157 91l20 41l137 -58l135 58l21 -41z" />
    <glyph glyph-name="guilsinglleft" unicode="&#x2039;" horiz-adv-x="285" 
d="M165 499l64 -37l-100 -208l108 -207l-59 -38l-131 245z" />
    <glyph glyph-name="OE" unicode="&#x152;" horiz-adv-x="986" 
d="M612 576v-194h321v-79h-321v-215h339v-86h-437l3 67h-3c-14 -23 -26 -35 -49 -48c-38 -22 -66 -27 -145 -27c-95 0 -147 7 -184 24c-56 27 -85 69 -96 143c-4 32 -5 46 -5 124c0 186 1 205 13 255c15 59 60 103 128 121c28 8 70 12 125 12c132 0 181 -18 213 -79h3l-3 68
h435v-86h-337zM510 301v64c1 35 1 61 1 61c0 69 -12 116 -33 133c-27 21 -67 27 -182 27c-110 0 -142 -20 -152 -94c-4 -34 -5 -69 -5 -231c0 -75 4 -103 18 -131c19 -40 51 -49 171 -49c129 0 162 15 174 81c7 33 7 34 8 139z" />
    <glyph glyph-name="quoteleft" unicode="&#x2018;" horiz-adv-x="193" 
d="M41 470v107c0 37 4 61 13 74c13 19 37 29 72 29h20v-45c-38 -1 -49 -11 -49 -45v-15h39v-105h-95z" />
    <glyph glyph-name="quoteright" unicode="&#x2019;" horiz-adv-x="213" 
d="M159 667v-107c0 -79 -20 -104 -85 -104l-20 1v45c38 1 49 11 49 45v15h-39v105h95z" />
    <glyph glyph-name="quotedblleft" unicode="&#x201c;" horiz-adv-x="348" 
d="M196 470v107c0 78 21 103 85 103h20v-45c-38 -1 -49 -12 -49 -45v-15h39v-105h-95zM41 470v107c0 37 4 61 13 74c13 19 37 29 72 29h20v-45c-38 -1 -49 -11 -49 -45v-15h39v-105h-95z" />
    <glyph glyph-name="quotedblright" unicode="&#x201d;" horiz-adv-x="348" 
d="M152 667v-107c0 -79 -20 -104 -85 -104l-20 1v45c38 1 49 11 49 45v15h-39v105h95zM307 667v-107c0 -79 -21 -104 -86 -104l-19 1v45c41 2 50 12 48 60h-39v105h96z" />
    <glyph glyph-name="bullet" unicode="&#x2022;" horiz-adv-x="667" 
d="M337 477c74 0 136 -63 136 -138c0 -77 -62 -139 -138 -139s-139 62 -139 138c0 78 62 139 141 139z" />
    <glyph glyph-name="endash" unicode="&#x2013;" horiz-adv-x="620" 
d="M107 286h405v-86h-405v86z" />
    <glyph glyph-name="emdash" unicode="&#x2014;" horiz-adv-x="698" 
d="M3 286h695v-86h-698z" />
    <glyph glyph-name="tilde" unicode="&#x2dc;" 
d="M353 627l48 -28c-26 -48 -53 -69 -86 -69c-19 0 -42 8 -69 22c-34 18 -43 22 -57 22c-18 0 -28 -9 -42 -37l-49 29c30 50 54 68 90 68c17 0 37 -6 66 -22c38 -20 47 -23 59 -23c15 0 26 10 40 38z" />
    <glyph glyph-name="trademark" unicode="&#x2122;" horiz-adv-x="812" 
d="M184 609v-322h-66v322h-119v58h304v-58h-119zM780 667v-380h-66v253c0 18 1 45 2 61c-13 -36 -15 -41 -20 -54l-108 -260h-60l-109 257c-5 13 -7 19 -20 55c2 -29 2 -42 2 -59v-253h-66v380h104l86 -208c7 -18 18 -46 32 -85l32 85l85 208h106z" />
    <glyph glyph-name="scaron" unicode="&#x161;" horiz-adv-x="485" 
d="M434 341h-90c-4 59 -13 65 -106 65s-107 -8 -107 -64c0 -37 8 -53 29 -60c11 -3 11 -3 93 -7c90 -5 90 -5 110 -9c59 -13 86 -53 86 -127c0 -50 -14 -88 -40 -110c-31 -26 -76 -35 -172 -35c-152 0 -201 33 -201 134v20h95c-1 -7 -1 -15 -1 -18c0 -56 20 -69 110 -69
c95 0 117 14 117 73c0 50 -14 64 -67 65c-75 1 -145 6 -173 14c-55 14 -77 50 -77 124c0 108 42 136 202 136c152 0 193 -28 192 -132zM241 520l-138 96l26 42l112 -63l117 63l25 -42z" />
    <glyph glyph-name="guilsinglright" unicode="&#x203a;" horiz-adv-x="285" 
d="M120 499l118 -245l-130 -245l-60 38l108 207l-99 208z" />
    <glyph glyph-name="oe" unicode="&#x153;" horiz-adv-x="831" 
d="M789 221h-321c1 -139 13 -155 121 -155c63 0 90 9 101 33c4 10 5 20 6 47h93c-1 -60 -9 -87 -32 -111c-34 -33 -72 -41 -192 -41c-82 0 -122 19 -144 67h-2c-25 -53 -57 -67 -162 -67c-178 0 -215 41 -215 241c0 113 11 161 44 196c28 28 76 42 151 42
c124 0 164 -15 183 -67h1c23 50 65 67 165 67c83 0 129 -12 158 -42c34 -34 45 -77 45 -174v-36zM466 285h232c-4 102 -17 116 -114 116c-96 0 -116 -20 -118 -116zM258 399c-108 0 -121 -17 -121 -158c0 -156 12 -173 117 -173c109 0 121 16 121 164
c0 149 -12 167 -117 167z" />
    <glyph glyph-name="Ydieresis" unicode="&#x178;" horiz-adv-x="587" 
d="M591 667l-250 -401v-266h-102v266l-243 401h118l121 -200c14 -22 17 -28 56 -97h2c8 13 17 29 28 48l18 33l10 16l121 200h121zM245 821v-73h-83v73h83zM425 821v-73h-83v73h83z" />
    <glyph glyph-name="nbspace" horiz-adv-x="250" 
 />
    <glyph glyph-name="exclamdown" unicode="&#xa1;" horiz-adv-x="257" 
d="M83 361v106h94v-106h-94zM80 -200l10 463h85l8 -463h-103z" />
    <glyph glyph-name="cent" unicode="&#xa2;" horiz-adv-x="621" 
d="M336 -7h-66v76c-52 1 -84 9 -113 28c-48 32 -65 91 -65 225c0 123 20 175 81 205c29 14 55 20 97 21v67h66v-67c118 -2 167 -46 167 -150v-14h-91c2 65 -14 85 -76 90v-329c72 7 83 22 83 105h90v-18c4 -115 -47 -163 -173 -163v-76zM270 146v328
c-68 -10 -82 -35 -82 -154c0 -83 7 -131 24 -152c9 -12 17 -16 42 -20z" />
    <glyph glyph-name="sterling" unicode="&#xa3;" horiz-adv-x="621" 
d="M415 337v-80h-184v-26c0 -73 0 -75 -7 -96c-6 -20 -18 -33 -44 -51v-2l413 3v-85h-530v82c30 5 48 21 57 50c5 13 7 40 7 77v48h-82v80h82v99c0 103 4 131 24 165c29 53 86 73 205 73c177 0 229 -41 229 -179c0 -4 0 -20 -1 -34h-102c0 67 -2 80 -16 98
c-15 19 -43 25 -107 25c-111 0 -128 -17 -128 -127v-120h184z" />
    <glyph glyph-name="currency" unicode="&#xa4;" horiz-adv-x="680" 
d="M53 118l95 96c-32 44 -47 91 -47 140s14 89 48 139l-98 97l50 50l98 -97c53 35 90 48 141 48s87 -12 139 -47l97 95l50 -50l-96 -95c35 -50 49 -90 49 -141c0 -49 -13 -86 -47 -138l96 -96l-50 -51l-96 96c-45 -33 -89 -48 -139 -48c-49 0 -92 14 -145 48l-95 -96z
M342 510c-88 0 -157 -69 -157 -156c0 -86 70 -156 156 -156c85 0 155 70 155 156c0 85 -70 156 -154 156z" />
    <glyph glyph-name="yen" unicode="&#xa5;" horiz-adv-x="621" 
d="M475 467h89v-79h-134l-54 -89h188v-79h-205v-220h-104v220h-198v79h182l-53 89h-129v79h85l-116 200h118l163 -296h3l164 296h121z" />
    <glyph glyph-name="brokenbar" unicode="&#xa6;" 
d="M204 667h92v-338h-92v338zM204 153h92v-320h-92v320z" />
    <glyph glyph-name="section" unicode="&#xa7;" horiz-adv-x="620" 
d="M538 488h-91c-1 61 -2 69 -16 82c-16 17 -50 23 -126 23c-109 0 -125 -11 -125 -83c0 -56 7 -64 83 -84l159 -42c74 -19 95 -28 111 -50c16 -20 23 -48 23 -89c0 -44 -8 -80 -22 -102c-8 -13 -18 -21 -40 -31c51 -23 64 -50 64 -128c0 -83 -21 -134 -63 -156
c-36 -18 -85 -25 -186 -25c-113 0 -159 9 -194 37c-33 27 -46 67 -46 142v16h91c1 -64 4 -77 22 -91c17 -13 57 -20 120 -20c84 0 118 4 133 15c19 14 27 38 27 78c0 56 -13 69 -84 86l-212 51c-84 20 -104 48 -104 143c0 80 18 110 73 124c-39 26 -50 53 -50 121
c0 137 42 169 221 169c144 0 192 -15 218 -69c12 -25 14 -46 14 -117zM220 189l153 -39c19 -5 33 -7 43 -7c39 0 57 28 57 91c0 44 -12 55 -80 74l-140 38c-27 7 -35 9 -44 9c-40 0 -58 -26 -58 -87c0 -51 11 -64 69 -79z" />
    <glyph glyph-name="dieresis" unicode="&#xa8;" 
d="M202 620v-74h-84v74h84zM382 620v-74h-84v74h84z" />
    <glyph glyph-name="copyright" unicode="&#xa9;" horiz-adv-x="745" 
d="M470 282h66l-1 -16c1 -55 -5 -76 -25 -95c-24 -23 -49 -28 -142 -28c-98 0 -133 18 -150 76c-6 20 -9 71 -9 140c0 89 6 114 33 138c30 27 59 33 154 33c81 0 110 -12 126 -52c7 -18 8 -25 10 -77h-66c-2 69 -6 73 -77 73c-103 0 -111 -7 -111 -93c0 -182 0 -182 94 -182
c88 0 98 6 98 62v21zM377 674c183 0 335 -155 335 -341c0 -187 -152 -340 -339 -340s-340 153 -340 340c0 190 152 341 344 341zM377 627c-165 0 -293 -129 -293 -295c0 -164 130 -300 288 -300s289 139 289 307c0 159 -128 288 -284 288z" />
    <glyph glyph-name="ordfeminine" unicode="&#xaa;" horiz-adv-x="414" 
d="M147 587h-63c0 69 23 85 119 85c97 0 126 -22 126 -97v-175h-63l3 25c-24 -23 -38 -28 -90 -28c-77 0 -106 23 -106 83c0 63 29 86 108 86c49 0 66 -4 86 -22v28c0 48 -10 57 -61 57c-52 0 -58 -5 -59 -42zM200 523c-54 0 -64 -6 -64 -39c0 -34 11 -41 62 -41
c53 0 70 9 70 39c0 33 -14 41 -68 41zM62 356h279v-45h-279v45z" />
    <glyph glyph-name="guillemotleft" unicode="&#xab;" horiz-adv-x="460" 
d="M166 497l64 -37l-100 -208l108 -206l-59 -39l-131 245zM341 499l63 -37l-100 -208l109 -207l-60 -38l-131 245z" />
    <glyph glyph-name="logicalnot" unicode="&#xac;" 
d="M374 0v181h-341v86h433v-267h-92z" />
    <glyph glyph-name="sfthyphen" horiz-adv-x="215" 
d="M1 294h214v-86h-215z" />
    <glyph glyph-name="registered" unicode="&#xae;" horiz-adv-x="745" 
d="M216 147v380h190c91 0 123 -30 123 -113c0 -67 -12 -90 -56 -103c36 -10 51 -31 51 -73v-91h-66v79c0 44 -14 57 -62 57h-114v-136h-66zM282 339h111c55 0 70 13 70 62c0 60 -9 70 -60 70h-121v-132zM377 674c183 0 335 -155 335 -341c0 -187 -152 -340 -339 -340
s-340 153 -340 340c0 190 152 341 344 341zM377 627c-165 0 -293 -129 -293 -295c0 -164 130 -300 288 -300s289 139 289 307c0 159 -128 288 -284 288z" />
    <glyph glyph-name="degree" unicode="&#xb0;" horiz-adv-x="371" 
d="M186 673c78 0 141 -62 141 -138c0 -77 -63 -139 -141 -139c-79 0 -141 62 -141 141c0 74 64 136 141 136zM186 621c-48 0 -88 -39 -88 -85c0 -49 39 -88 88 -88c48 0 88 39 88 87c0 47 -39 86 -88 86z" />
    <glyph glyph-name="plusminus" unicode="&#xb1;" horiz-adv-x="621" 
d="M68 455h194v166h97v-166h194v-90h-194v-165h-97v165h-194v90zM68 138h485v-90h-485v90z" />
    <glyph glyph-name="twosuperior" unicode="&#xb2;" horiz-adv-x="414" 
d="M363 324v-57h-322v82c0 42 8 66 27 83c22 18 36 22 120 33c102 14 105 16 105 81c0 57 -12 67 -84 67c-88 0 -97 -6 -97 -66v-24h-70c1 69 3 82 16 103c20 32 62 45 150 45c121 0 156 -29 156 -128c0 -95 -24 -116 -148 -132c-102 -13 -103 -14 -103 -79v-8h250z" />
    <glyph glyph-name="threesuperior" unicode="&#xb3;" horiz-adv-x="414" 
d="M166 443v56c71 0 92 1 102 5c17 7 22 18 22 47c0 58 -6 62 -92 62c-77 0 -85 -6 -85 -61v-16h-70c1 59 2 72 14 91c19 33 55 44 143 44c127 0 162 -23 162 -106c0 -58 -17 -86 -58 -93c47 -8 65 -33 65 -92c0 -92 -35 -117 -163 -117c-136 0 -170 24 -170 119v22h71v-21
c0 -57 8 -62 101 -62c79 0 89 8 89 68c0 32 -8 45 -29 52c-10 3 -19 3 -84 3c-2 0 -9 0 -18 -1z" />
    <glyph glyph-name="acute" unicode="&#xb4;" 
d="M334 665l38 -63l-160 -81l-24 42z" />
    <glyph glyph-name="mu" unicode="&#xb5;" 
d="M40 -170v650h92v-266c0 -70 9 -100 39 -127c20 -19 49 -30 78 -30c36 0 68 16 90 45c22 31 30 61 30 119v259h92v-480h-92v76c-29 -61 -66 -88 -122 -88c-51 0 -85 21 -115 70v-228h-92z" />
    <glyph glyph-name="paragraph" unicode="&#xb6;" horiz-adv-x="621" 
d="M545 -200h-77v789h-77v-789h-77v439h-31c-9 0 -98 3 -103 4c-97 9 -141 74 -141 206c0 98 19 154 62 186c39 29 58 32 179 32h265v-867z" />
    <glyph glyph-name="cedilla" unicode="&#xb8;" 
d="M265 -49l45 -40l-85 -81l-35 28z" />
    <glyph glyph-name="onesuperior" unicode="&#xb9;" horiz-adv-x="414" 
d="M281 667v-400h-72v338l-107 -102l-45 42l133 122h91z" />
    <glyph glyph-name="ordmasculine" unicode="&#xba;" horiz-adv-x="414" 
d="M208 672c107 0 130 -24 130 -136c0 -114 -24 -139 -131 -139c-110 0 -132 24 -132 141c0 110 24 134 133 134zM207 624c-62 0 -69 -9 -69 -87c0 -84 6 -92 69 -92c61 0 68 9 68 92c0 78 -7 87 -68 87zM67 356h279v-45h-279v45z" />
    <glyph glyph-name="guillemotright" unicode="&#xbb;" horiz-adv-x="460" 
d="M294 497l119 -245l-131 -245l-60 39l109 206l-100 208zM120 499l118 -245l-130 -245l-60 38l108 207l-99 208z" />
    <glyph glyph-name="onequarter" unicode="&#xbc;" horiz-adv-x="978" 
d="M281 667v-400h-72v338l-107 -102l-45 42l133 122h91zM739 667l-435 -667h-64l433 667h66zM893 400v-258h56v-55h-56v-87h-72v87h-235v74l201 239h106zM821 142v204l-170 -204h170z" />
    <glyph glyph-name="onehalf" unicode="&#xbd;" horiz-adv-x="978" 
d="M281 667v-400h-72v338l-107 -102l-45 42l133 122h91zM739 667l-435 -667h-64l433 667h66zM927 57v-57h-322v82c0 42 8 66 27 83c22 19 36 22 120 34c102 13 105 16 105 81c0 56 -12 66 -84 66c-88 0 -97 -6 -97 -65v-24h-70c1 68 3 81 16 102c20 32 62 45 150 45
c121 0 156 -29 156 -127c0 -95 -24 -116 -148 -132c-102 -13 -103 -15 -103 -80v-8h250z" />
    <glyph glyph-name="threequarters" unicode="&#xbe;" horiz-adv-x="978" 
d="M166 443v56c71 0 92 1 102 5c17 7 22 18 22 47c0 58 -6 62 -92 62c-77 0 -85 -6 -85 -61v-16h-70c1 59 2 72 14 91c19 33 55 44 143 44c127 0 162 -23 162 -106c0 -58 -17 -86 -58 -93c47 -8 65 -33 65 -92c0 -92 -35 -117 -163 -117c-136 0 -170 24 -170 119v22h71v-21
c0 -57 8 -62 101 -62c79 0 89 8 89 68c0 32 -8 45 -29 52c-10 3 -19 3 -84 3c-2 0 -9 0 -18 -1zM765 667l-435 -667h-64l433 667h66zM893 400v-258h56v-55h-56v-87h-72v87h-235v74l201 239h106zM821 142v204l-170 -204h170z" />
    <glyph glyph-name="questiondown" unicode="&#xbf;" horiz-adv-x="524" 
d="M245 361v106h94v-106h-94zM244 264h93c-1 -119 -8 -128 -142 -179c-46 -19 -57 -38 -57 -103c0 -94 16 -109 118 -109c109 0 127 16 127 107v25h90v-23c-2 -80 -8 -110 -31 -138c-29 -35 -88 -50 -193 -50c-86 0 -128 11 -161 43c-29 27 -40 64 -40 137
c0 77 10 113 39 144c19 21 21 22 87 48c63 25 69 33 69 82z" />
    <glyph glyph-name="Agrave" unicode="&#xc0;" horiz-adv-x="622" 
d="M467 134h-311l-46 -134h-108l233 667h149l236 -667h-106zM442 212l-131 375l-129 -375h260zM206 836l169 -53l-11 -47l-177 30z" />
    <glyph glyph-name="Aacute" unicode="&#xc1;" horiz-adv-x="622" 
d="M467 134h-311l-46 -134h-108l233 667h149l236 -667h-106zM442 212l-131 375l-129 -375h260zM416 836l19 -70l-178 -30l-10 47z" />
    <glyph glyph-name="Acircumflex" unicode="&#xc2;" horiz-adv-x="622" 
d="M467 134h-311l-46 -134h-108l233 667h149l236 -667h-106zM442 212l-131 375l-129 -375h260zM312 852l156 -91l-22 -41l-134 58l-137 -58l-20 41z" />
    <glyph glyph-name="Atilde" unicode="&#xc3;" horiz-adv-x="622" 
d="M467 134h-311l-46 -134h-108l233 667h149l236 -667h-106zM442 212l-131 375l-129 -375h260zM426 831l47 -28c-29 -50 -59 -72 -97 -72c-19 0 -40 7 -72 23c-33 16 -47 21 -61 21c-19 0 -29 -8 -45 -37l-49 27c30 52 55 71 93 71c18 0 36 -6 70 -22c36 -18 50 -23 64 -23
c18 0 34 13 50 40z" />
    <glyph glyph-name="Adieresis" unicode="&#xc4;" horiz-adv-x="622" 
d="M467 134h-311l-46 -134h-108l233 667h149l236 -667h-106zM442 212l-131 375l-129 -375h260zM263 821v-73h-83v73h83zM443 821v-73h-83v73h83z" />
    <glyph glyph-name="Aring" unicode="&#xc5;" horiz-adv-x="622" 
d="M467 134h-311l-46 -134h-108l233 667h149l236 -667h-106zM442 212l-131 375l-129 -375h260zM312 870c43 0 78 -36 78 -79c0 -44 -35 -79 -79 -79s-79 35 -79 80c0 43 36 78 80 78zM312 833c-24 0 -43 -18 -43 -42c0 -23 19 -42 42 -42s42 19 42 42s-19 42 -41 42z" />
    <glyph glyph-name="AE" unicode="&#xc6;" horiz-adv-x="941" 
d="M571 581v-200h318v-79h-318v-216h336v-86h-437v134h-289l-68 -134h-116l341 667h569v-86h-336zM470 215v366h-64l-187 -366h251z" />
    <glyph glyph-name="Ccedilla" unicode="&#xc7;" horiz-adv-x="608" 
d="M484 230h102v-23c0 -95 -9 -133 -41 -165c-39 -38 -88 -48 -236 -48c-125 0 -176 13 -216 53c-47 47 -58 112 -58 327c0 156 10 199 56 242c48 46 97 57 260 57c92 0 124 -5 159 -26c37 -21 60 -64 65 -118c2 -21 3 -33 4 -75h-102c-2 119 -15 131 -136 131
c-179 0 -199 -16 -199 -156c0 -214 3 -260 18 -294c18 -42 49 -53 151 -53c153 0 174 14 174 116c0 9 0 17 -1 32zM327 -49l52 -44l-96 -94l-40 31z" />
    <glyph glyph-name="Egrave" unicode="&#xc8;" horiz-adv-x="520" 
d="M143 581v-199h325v-79h-325v-217h342v-86h-444v667h442v-86h-340zM154 836l169 -53l-10 -47l-178 30z" />
    <glyph glyph-name="Eacute" unicode="&#xc9;" horiz-adv-x="520" 
d="M143 581v-199h325v-79h-325v-217h342v-86h-444v667h442v-86h-340zM364 836l19 -70l-177 -30l-11 47z" />
    <glyph glyph-name="Ecircumflex" unicode="&#xca;" horiz-adv-x="520" 
d="M143 581v-199h325v-79h-325v-217h342v-86h-444v667h442v-86h-340zM260 852l156 -91l-21 -41l-135 58l-137 -58l-20 41z" />
    <glyph glyph-name="Edieresis" unicode="&#xcb;" horiz-adv-x="520" 
d="M143 581v-199h325v-79h-325v-217h342v-86h-444v667h442v-86h-340zM211 821v-73h-83v73h83zM391 821v-73h-83v73h83z" />
    <glyph glyph-name="Igrave" unicode="&#xcc;" horiz-adv-x="225" 
d="M163 667v-667h-102v667h102zM7 836l169 -53l-11 -47l-177 30z" />
    <glyph glyph-name="Iacute" unicode="&#xcd;" horiz-adv-x="225" 
d="M163 667v-667h-102v667h102zM217 836l19 -70l-177 -30l-11 47z" />
    <glyph glyph-name="Icircumflex" unicode="&#xce;" horiz-adv-x="225" 
d="M163 667v-667h-102v667h102zM113 852l156 -91l-21 -41l-135 58l-137 -58l-20 41z" />
    <glyph glyph-name="Idieresis" unicode="&#xcf;" horiz-adv-x="225" 
d="M163 667v-667h-102v667h102zM96 821v-73h-81v73h81zM210 821v-73h-81v73h81z" />
    <glyph glyph-name="Eth" unicode="&#xd0;" horiz-adv-x="663" 
d="M61 307h-63v67h63v293h319c94 0 150 -17 188 -58c46 -49 61 -107 61 -233c0 -179 -6 -232 -33 -280c-26 -46 -60 -71 -112 -84c-28 -7 -66 -12 -93 -12h-330v307zM163 307v-219h198c68 0 110 13 132 41c26 34 33 77 33 199c0 136 -6 175 -31 209c-21 29 -56 41 -122 41
h-210v-204h203v-67h-203z" />
    <glyph glyph-name="Ntilde" unicode="&#xd1;" horiz-adv-x="717" 
d="M656 667v-667h-171l-234 408c-14 28 -44 84 -88 171h-4c2 -60 3 -106 3 -139v-440h-101v667h170l207 -367c23 -41 44 -79 115 -213h3c-1 60 -2 106 -2 137v443h102zM473 831l48 -28c-30 -50 -60 -72 -97 -72c-19 0 -41 7 -73 23s-46 21 -60 21c-20 0 -30 -8 -45 -37
l-49 27c30 52 55 71 93 71c17 0 36 -6 69 -22c36 -18 51 -23 64 -23c18 0 34 13 50 40z" />
    <glyph glyph-name="Ograve" unicode="&#xd2;" horiz-adv-x="632" 
d="M320 673c103 0 147 -6 186 -25c53 -26 82 -72 95 -147c5 -32 6 -61 6 -155c0 -134 -2 -161 -12 -210c-13 -58 -45 -98 -94 -119c-43 -18 -84 -23 -180 -23c-110 0 -148 5 -192 24c-48 21 -78 60 -91 117c-11 47 -13 73 -13 198c0 166 7 211 40 261c40 61 99 79 255 79z
M504 242v93v93c0 75 -16 122 -48 140c-24 14 -53 17 -151 17c-120 0 -148 -12 -166 -69c-10 -32 -11 -44 -11 -183c0 -124 0 -124 5 -158c7 -43 23 -69 52 -80c25 -10 52 -13 132 -13c93 0 123 5 146 22c26 20 41 70 41 138zM211 836l169 -53l-11 -47l-177 30z" />
    <glyph glyph-name="Oacute" unicode="&#xd3;" horiz-adv-x="632" 
d="M320 673c103 0 147 -6 186 -25c53 -26 82 -72 95 -147c5 -32 6 -61 6 -155c0 -134 -2 -161 -12 -210c-13 -58 -45 -98 -94 -119c-43 -18 -84 -23 -180 -23c-110 0 -148 5 -192 24c-48 21 -78 60 -91 117c-11 47 -13 73 -13 198c0 166 7 211 40 261c40 61 99 79 255 79z
M504 242v93v93c0 75 -16 122 -48 140c-24 14 -53 17 -151 17c-120 0 -148 -12 -166 -69c-10 -32 -11 -44 -11 -183c0 -124 0 -124 5 -158c7 -43 23 -69 52 -80c25 -10 52 -13 132 -13c93 0 123 5 146 22c26 20 41 70 41 138zM420 836l19 -70l-177 -30l-11 47z" />
    <glyph glyph-name="Ocircumflex" unicode="&#xd4;" horiz-adv-x="632" 
d="M320 673c103 0 147 -6 186 -25c53 -26 82 -72 95 -147c5 -32 6 -61 6 -155c0 -134 -2 -161 -12 -210c-13 -58 -45 -98 -94 -119c-43 -18 -84 -23 -180 -23c-110 0 -148 5 -192 24c-48 21 -78 60 -91 117c-11 47 -13 73 -13 198c0 166 7 211 40 261c40 61 99 79 255 79z
M504 242v93v93c0 75 -16 122 -48 140c-24 14 -53 17 -151 17c-120 0 -148 -12 -166 -69c-10 -32 -11 -44 -11 -183c0 -124 0 -124 5 -158c7 -43 23 -69 52 -80c25 -10 52 -13 132 -13c93 0 123 5 146 22c26 20 41 70 41 138zM317 852l156 -91l-22 -41l-134 58l-138 -58
l-20 41z" />
    <glyph glyph-name="Otilde" unicode="&#xd5;" horiz-adv-x="632" 
d="M320 673c103 0 147 -6 186 -25c53 -26 82 -72 95 -147c5 -32 6 -61 6 -155c0 -134 -2 -161 -12 -210c-13 -58 -45 -98 -94 -119c-43 -18 -84 -23 -180 -23c-110 0 -148 5 -192 24c-48 21 -78 60 -91 117c-11 47 -13 73 -13 198c0 166 7 211 40 261c40 61 99 79 255 79z
M504 242v93v93c0 75 -16 122 -48 140c-24 14 -53 17 -151 17c-120 0 -148 -12 -166 -69c-10 -32 -11 -44 -11 -183c0 -124 0 -124 5 -158c7 -43 23 -69 52 -80c25 -10 52 -13 132 -13c93 0 123 5 146 22c26 20 41 70 41 138zM431 831l47 -28c-29 -50 -59 -72 -97 -72
c-19 0 -40 7 -72 23c-33 16 -47 21 -61 21c-19 0 -29 -8 -45 -37l-49 27c30 52 55 71 93 71c18 0 36 -6 70 -22c36 -18 50 -23 63 -23c19 0 35 13 51 40z" />
    <glyph glyph-name="Odieresis" unicode="&#xd6;" horiz-adv-x="632" 
d="M320 673c103 0 147 -6 186 -25c53 -26 82 -72 95 -147c5 -32 6 -61 6 -155c0 -134 -2 -161 -12 -210c-13 -58 -45 -98 -94 -119c-43 -18 -84 -23 -180 -23c-110 0 -148 5 -192 24c-48 21 -78 60 -91 117c-11 47 -13 73 -13 198c0 166 7 211 40 261c40 61 99 79 255 79z
M504 242v93v93c0 75 -16 122 -48 140c-24 14 -53 17 -151 17c-120 0 -148 -12 -166 -69c-10 -32 -11 -44 -11 -183c0 -124 0 -124 5 -158c7 -43 23 -69 52 -80c25 -10 52 -13 132 -13c93 0 123 5 146 22c26 20 41 70 41 138zM267 821v-73h-83v73h83zM448 821v-73h-83v73h83z
" />
    <glyph glyph-name="multiply" unicode="&#xd7;" horiz-adv-x="621" 
d="M247 333l-164 164l63 63l164 -163l164 163l63 -63l-164 -164l164 -164l-63 -63l-164 164l-164 -164l-63 63z" />
    <glyph glyph-name="Oslash" unicode="&#xd8;" horiz-adv-x="643" 
d="M6 -2v88l40 36c-13 47 -15 77 -15 201c0 174 6 217 38 268c28 44 80 72 144 78c34 3 75 4 122 4c145 0 187 -12 230 -66l72 66v-88l-41 -38c13 -47 16 -82 16 -197c0 -185 -7 -229 -43 -283c-37 -55 -99 -73 -257 -73c-141 0 -191 14 -236 69zM505 465l-352 -333
c20 -36 59 -50 136 -50c110 0 152 6 178 26c23 18 33 43 38 94c2 17 2 46 2 149c0 72 0 77 -2 114zM137 205l352 333c-20 35 -56 47 -146 47c-93 0 -132 -5 -159 -21c-24 -14 -38 -38 -45 -79c-4 -21 -5 -48 -5 -127c0 -87 1 -113 3 -153z" />
    <glyph glyph-name="Ugrave" unicode="&#xd9;" horiz-adv-x="664" 
d="M501 667h102v-455c0 -81 -9 -120 -34 -153c-40 -51 -91 -65 -240 -65c-99 0 -141 5 -179 22c-68 31 -89 77 -89 192v459h102v-459c0 -48 4 -73 14 -88c19 -29 56 -38 150 -38c155 0 174 14 174 129v456zM226 836l169 -53l-10 -47l-178 30z" />
    <glyph glyph-name="Uacute" unicode="&#xda;" horiz-adv-x="664" 
d="M501 667h102v-455c0 -81 -9 -120 -34 -153c-40 -51 -91 -65 -240 -65c-99 0 -141 5 -179 22c-68 31 -89 77 -89 192v459h102v-459c0 -48 4 -73 14 -88c19 -29 56 -38 150 -38c155 0 174 14 174 129v456zM436 836l19 -70l-177 -30l-11 47z" />
    <glyph glyph-name="Ucircumflex" unicode="&#xdb;" horiz-adv-x="664" 
d="M501 667h102v-455c0 -81 -9 -120 -34 -153c-40 -51 -91 -65 -240 -65c-99 0 -141 5 -179 22c-68 31 -89 77 -89 192v459h102v-459c0 -48 4 -73 14 -88c19 -29 56 -38 150 -38c155 0 174 14 174 129v456zM332 852l156 -91l-21 -41l-135 58l-137 -58l-20 41z" />
    <glyph glyph-name="Udieresis" unicode="&#xdc;" horiz-adv-x="664" 
d="M501 667h102v-455c0 -81 -9 -120 -34 -153c-40 -51 -91 -65 -240 -65c-99 0 -141 5 -179 22c-68 31 -89 77 -89 192v459h102v-459c0 -48 4 -73 14 -88c19 -29 56 -38 150 -38c155 0 174 14 174 129v456zM283 821v-73h-83v73h83zM463 821v-73h-83v73h83z" />
    <glyph glyph-name="Yacute" unicode="&#xdd;" horiz-adv-x="587" 
d="M591 667l-250 -401v-266h-102v266l-243 401h118l121 -200c14 -22 17 -28 56 -97h2c8 13 17 29 28 48l18 33l10 16l121 200h121zM398 836l19 -70l-178 -30l-10 47z" />
    <glyph glyph-name="Thorn" unicode="&#xde;" horiz-adv-x="602" 
d="M61 0v667h102v-87h172c117 0 141 -4 180 -31c43 -31 62 -88 62 -190c0 -106 -27 -166 -87 -192c-32 -13 -35 -14 -157 -16h-170v-151h-102zM163 239h161c130 0 150 17 150 122c0 79 -9 109 -38 122c-17 9 -37 11 -94 11h-179v-255z" />
    <glyph glyph-name="germandbls" unicode="&#xdf;" horiz-adv-x="532" 
d="M60 0v502c0 64 6 92 25 118c29 38 77 53 170 53c77 0 119 -9 149 -31c27 -20 44 -60 44 -104c0 -62 -29 -97 -94 -111v-2c102 -19 129 -61 129 -202c0 -168 -44 -229 -166 -229c-87 0 -127 40 -127 126h71c0 -36 19 -54 58 -54c57 0 70 29 70 162c0 127 -26 162 -120 162
h-31h-15v72h12c104 0 122 10 122 65c0 60 -20 75 -101 75c-83 0 -104 -19 -104 -93v-509h-92z" />
    <glyph glyph-name="agrave" unicode="&#xe0;" horiz-adv-x="517" 
d="M153 334h-93c1 112 38 139 193 139c158 0 203 -37 203 -166v-307h-92l5 57l-2 1c-27 -49 -63 -64 -153 -64c-128 0 -173 38 -173 143c0 53 15 96 40 116c27 20 72 31 135 31c49 0 88 -5 113 -16c15 -6 24 -15 33 -34h2v66c0 90 -18 109 -108 109c-82 0 -102 -13 -103 -67
v-8zM249 219c-92 0 -113 -14 -113 -72c0 -68 19 -83 107 -83c93 0 123 19 123 76c0 62 -26 79 -117 79zM174 665l146 -102l-24 -42l-160 81z" />
    <glyph glyph-name="aacute" unicode="&#xe1;" horiz-adv-x="517" 
d="M153 334h-93c1 112 38 139 193 139c158 0 203 -37 203 -166v-307h-92l5 57l-2 1c-27 -49 -63 -64 -153 -64c-128 0 -173 38 -173 143c0 53 15 96 40 116c27 20 72 31 135 31c49 0 88 -5 113 -16c15 -6 24 -15 33 -34h2v66c0 90 -18 109 -108 109c-82 0 -102 -13 -103 -67
v-8zM249 219c-92 0 -113 -14 -113 -72c0 -68 19 -83 107 -83c93 0 123 19 123 76c0 62 -26 79 -117 79zM343 665l38 -63l-160 -81l-24 42z" />
    <glyph glyph-name="acircumflex" unicode="&#xe2;" horiz-adv-x="517" 
d="M153 334h-93c1 112 38 139 193 139c158 0 203 -37 203 -166v-307h-92l5 57l-2 1c-27 -49 -63 -64 -153 -64c-128 0 -173 38 -173 143c0 53 15 96 40 116c27 20 72 31 135 31c49 0 88 -5 113 -16c15 -6 24 -15 33 -34h2v66c0 90 -18 109 -108 109c-82 0 -102 -13 -103 -67
v-8zM249 219c-92 0 -113 -14 -113 -72c0 -68 19 -83 107 -83c93 0 123 19 123 76c0 62 -26 79 -117 79zM258 658l138 -101l-26 -39l-112 67l-110 -67l-27 39z" />
    <glyph glyph-name="atilde" unicode="&#xe3;" horiz-adv-x="517" 
d="M153 334h-93c1 112 38 139 193 139c158 0 203 -37 203 -166v-307h-92l5 57l-2 1c-27 -49 -63 -64 -153 -64c-128 0 -173 38 -173 143c0 53 15 96 40 116c27 20 72 31 135 31c49 0 88 -5 113 -16c15 -6 24 -15 33 -34h2v66c0 90 -18 109 -108 109c-82 0 -102 -13 -103 -67
v-8zM249 219c-92 0 -113 -14 -113 -72c0 -68 19 -83 107 -83c93 0 123 19 123 76c0 62 -26 79 -117 79zM362 627l48 -28c-26 -48 -52 -69 -86 -69c-19 0 -42 8 -69 22c-34 18 -43 22 -57 22c-18 0 -28 -9 -42 -37l-49 29c30 50 54 68 90 68c17 0 37 -6 66 -22
c39 -20 47 -23 59 -23c15 0 26 10 40 38z" />
    <glyph glyph-name="adieresis" unicode="&#xe4;" horiz-adv-x="517" 
d="M153 334h-93c1 112 38 139 193 139c158 0 203 -37 203 -166v-307h-92l5 57l-2 1c-27 -49 -63 -64 -153 -64c-128 0 -173 38 -173 143c0 53 15 96 40 116c27 20 72 31 135 31c49 0 88 -5 113 -16c15 -6 24 -15 33 -34h2v66c0 90 -18 109 -108 109c-82 0 -102 -13 -103 -67
v-8zM249 219c-92 0 -113 -14 -113 -72c0 -68 19 -83 107 -83c93 0 123 19 123 76c0 62 -26 79 -117 79zM211 620v-74h-84v74h84zM391 620v-74h-84v74h84z" />
    <glyph glyph-name="aring" unicode="&#xe5;" horiz-adv-x="517" 
d="M153 334h-93c1 112 38 139 193 139c158 0 203 -37 203 -166v-307h-92l5 57l-2 1c-27 -49 -63 -64 -153 -64c-128 0 -173 38 -173 143c0 53 15 96 40 116c27 20 72 31 135 31c49 0 88 -5 113 -16c15 -6 24 -15 33 -34h2v66c0 90 -18 109 -108 109c-82 0 -102 -13 -103 -67
v-8zM249 219c-92 0 -113 -14 -113 -72c0 -68 19 -83 107 -83c93 0 123 19 123 76c0 62 -26 79 -117 79zM260 672c42 0 78 -36 78 -79c0 -44 -36 -80 -80 -80s-79 36 -79 80s36 79 81 79zM259 635c-24 0 -43 -19 -43 -42c0 -24 19 -43 43 -43c23 0 42 19 42 43
c0 23 -19 42 -42 42z" />
    <glyph glyph-name="ae" unicode="&#xe6;" horiz-adv-x="822" 
d="M779 221h-322c0 -138 12 -154 122 -154c94 0 106 8 109 79h91c1 -6 1 -14 1 -16c0 -99 -55 -136 -205 -136c-104 0 -150 20 -170 76h-2c-23 -56 -68 -76 -173 -76c-139 0 -189 39 -189 145c0 104 48 141 185 141c84 0 116 -12 138 -50h2v80c0 79 -21 98 -109 98
c-86 0 -103 -12 -104 -71h-95c7 109 42 136 178 136c124 0 160 -12 179 -62h2c22 46 64 62 160 62c115 0 166 -25 189 -94c10 -30 13 -59 13 -158zM457 285h232c-1 58 -4 72 -16 88c-14 20 -43 28 -101 28c-65 0 -93 -12 -106 -45c-6 -14 -7 -28 -9 -71zM242 211
c-82 0 -106 -15 -106 -69c0 -61 24 -78 112 -78c89 0 119 19 119 75c0 57 -26 72 -125 72z" />
    <glyph glyph-name="ccedilla" unicode="&#xe7;" horiz-adv-x="488" 
d="M366 174h91c0 -72 -6 -101 -27 -128c-29 -39 -74 -52 -174 -52c-173 0 -214 47 -214 243c0 185 45 236 211 236c151 0 196 -38 197 -165h-91c1 74 -19 91 -109 91c-100 0 -114 -21 -114 -167c0 -74 8 -119 24 -140c13 -17 42 -24 103 -24c88 0 103 15 103 106zM264 -49
l46 -40l-86 -81l-34 28z" />
    <glyph glyph-name="egrave" unicode="&#xe8;" horiz-adv-x="505" 
d="M369 146h93v-18c0 -98 -54 -134 -201 -134c-179 0 -219 45 -219 242c0 190 43 237 217 237c120 0 169 -26 192 -102c9 -31 11 -58 11 -154h-326v-14c0 -113 21 -137 120 -137c98 0 113 11 113 80zM137 279h233c-1 62 -2 70 -10 87c-13 28 -38 37 -103 37
c-102 0 -119 -18 -120 -124zM168 665l146 -102l-24 -42l-160 81z" />
    <glyph glyph-name="eacute" unicode="&#xe9;" horiz-adv-x="505" 
d="M369 146h93v-18c0 -98 -54 -134 -201 -134c-179 0 -219 45 -219 242c0 190 43 237 217 237c120 0 169 -26 192 -102c9 -31 11 -58 11 -154h-326v-14c0 -113 21 -137 120 -137c98 0 113 11 113 80zM137 279h233c-1 62 -2 70 -10 87c-13 28 -38 37 -103 37
c-102 0 -119 -18 -120 -124zM337 665l38 -63l-160 -81l-24 42z" />
    <glyph glyph-name="ecircumflex" unicode="&#xea;" horiz-adv-x="505" 
d="M369 146h93v-18c0 -98 -54 -134 -201 -134c-179 0 -219 45 -219 242c0 190 43 237 217 237c120 0 169 -26 192 -102c9 -31 11 -58 11 -154h-326v-14c0 -113 21 -137 120 -137c98 0 113 11 113 80zM137 279h233c-1 62 -2 70 -10 87c-13 28 -38 37 -103 37
c-102 0 -119 -18 -120 -124zM252 658l138 -101l-26 -39l-112 67l-111 -67l-26 39z" />
    <glyph glyph-name="edieresis" unicode="&#xeb;" horiz-adv-x="505" 
d="M369 146h93v-18c0 -98 -54 -134 -201 -134c-179 0 -219 45 -219 242c0 190 43 237 217 237c120 0 169 -26 192 -102c9 -31 11 -58 11 -154h-326v-14c0 -113 21 -137 120 -137c98 0 113 11 113 80zM137 279h233c-1 62 -2 70 -10 87c-13 28 -38 37 -103 37
c-102 0 -119 -18 -120 -124zM204 620v-74h-84v74h84zM384 620v-74h-84v74h84z" />
    <glyph glyph-name="igrave" unicode="&#xec;" horiz-adv-x="207" 
d="M150 467v-467h-92v467h92zM19 665l146 -102l-24 -42l-160 81z" />
    <glyph glyph-name="iacute" unicode="&#xed;" horiz-adv-x="207" 
d="M150 467v-467h-92v467h92zM188 665l38 -63l-160 -81l-24 42z" />
    <glyph glyph-name="icircumflex" unicode="&#xee;" horiz-adv-x="206" 
d="M150 467v-467h-92v467h92zM103 658l138 -101l-26 -39l-112 67l-110 -67l-27 39z" />
    <glyph glyph-name="idieresis" unicode="&#xef;" horiz-adv-x="207" 
d="M149 467v-467h-92v467h92zM78 620v-74h-84v74h84zM212 620v-74h-84v74h84z" />
    <glyph glyph-name="eth" unicode="&#xf0;" horiz-adv-x="511" 
d="M251 552l-88 -46l-23 45l83 44l-47 72h92l24 -36l79 42l24 -45l-75 -40l99 -150c43 -65 49 -88 49 -193c0 -128 -21 -185 -80 -221c-34 -20 -82 -30 -141 -30c-157 0 -206 60 -206 251c0 169 56 228 218 228c13 0 26 0 46 -2zM255 400c-105 0 -119 -19 -119 -162
c0 -154 12 -171 120 -171c104 0 118 20 118 170c0 145 -13 163 -119 163z" />
    <glyph glyph-name="ntilde" unicode="&#xf1;" horiz-adv-x="524" 
d="M57 467h92l-3 -72l2 -1c22 54 69 79 149 79c79 0 131 -22 153 -64c11 -20 14 -44 14 -98v-311h-92v289c0 92 -15 109 -96 109c-88 0 -125 -35 -125 -119v-279h-94v467zM365 627l48 -28c-26 -48 -53 -69 -87 -69c-18 0 -41 8 -69 22c-33 18 -43 22 -56 22
c-18 0 -28 -9 -42 -37l-49 29c30 50 54 68 90 68c17 0 37 -6 66 -22c38 -20 47 -23 58 -23c15 0 27 10 41 38z" />
    <glyph glyph-name="ograve" unicode="&#xf2;" horiz-adv-x="512" 
d="M254 473c179 0 216 -39 216 -230c0 -208 -35 -249 -215 -249c-178 0 -213 40 -213 247c0 190 38 232 212 232zM256 399c-105 0 -119 -19 -119 -161c0 -153 12 -170 120 -170c104 0 118 20 118 169c0 144 -13 162 -119 162zM171 665l147 -102l-24 -42l-161 81z" />
    <glyph glyph-name="oacute" unicode="&#xf3;" horiz-adv-x="512" 
d="M254 473c179 0 216 -39 216 -230c0 -208 -35 -249 -215 -249c-178 0 -213 40 -213 247c0 190 38 232 212 232zM256 399c-105 0 -119 -19 -119 -161c0 -153 12 -170 120 -170c104 0 118 20 118 169c0 144 -13 162 -119 162zM341 665l37 -63l-160 -81l-24 42z" />
    <glyph glyph-name="ocircumflex" unicode="&#xf4;" horiz-adv-x="512" 
d="M254 473c179 0 216 -39 216 -230c0 -208 -35 -249 -215 -249c-178 0 -213 40 -213 247c0 190 38 232 212 232zM256 399c-105 0 -119 -19 -119 -161c0 -153 12 -170 120 -170c104 0 118 20 118 169c0 144 -13 162 -119 162zM255 658l138 -101l-26 -39l-112 67l-110 -67
l-27 39z" />
    <glyph glyph-name="otilde" unicode="&#xf5;" horiz-adv-x="512" 
d="M254 473c179 0 216 -39 216 -230c0 -208 -35 -249 -215 -249c-178 0 -213 40 -213 247c0 190 38 232 212 232zM256 399c-105 0 -119 -19 -119 -161c0 -153 12 -170 120 -170c104 0 118 20 118 169c0 144 -13 162 -119 162zM359 627l49 -28c-27 -48 -53 -69 -87 -69
c-19 0 -42 8 -69 22c-34 18 -43 22 -56 22c-19 0 -29 -9 -43 -37l-49 29c30 50 54 68 90 68c18 0 37 -6 66 -22c39 -20 47 -23 59 -23c15 0 26 10 40 38z" />
    <glyph glyph-name="odieresis" unicode="&#xf6;" horiz-adv-x="512" 
d="M254 473c179 0 216 -39 216 -230c0 -208 -35 -249 -215 -249c-178 0 -213 40 -213 247c0 190 38 232 212 232zM256 399c-105 0 -119 -19 -119 -161c0 -153 12 -170 120 -170c104 0 118 20 118 169c0 144 -13 162 -119 162zM208 620v-74h-84v74h84zM388 620v-74h-84v74h84
z" />
    <glyph glyph-name="divide" unicode="&#xf7;" horiz-adv-x="621" 
d="M311 568c32 0 58 -26 58 -58c0 -33 -26 -59 -59 -59c-32 0 -58 27 -58 59s26 58 59 58zM312 216c31 0 57 -26 57 -58c0 -33 -26 -59 -58 -59c-33 0 -59 26 -59 59c0 32 26 58 60 58zM70 376h480v-85h-480v85z" />
    <glyph glyph-name="oslash" unicode="&#xf8;" horiz-adv-x="499" 
d="M12 -9v66l37 32c-11 35 -14 67 -14 139c0 114 10 166 40 199c30 34 76 46 173 46c108 0 148 -11 180 -52l58 51v-67l-36 -31c9 -31 13 -73 13 -135c0 -121 -18 -186 -59 -215c-29 -22 -71 -30 -151 -30c-102 0 -147 12 -180 50zM366 304l-221 -201c15 -28 33 -35 95 -35
c60 0 85 5 101 20c19 17 28 62 28 141c0 16 -1 36 -3 75zM133 159l222 202c-10 21 -18 27 -41 32c-20 4 -41 6 -67 6c-60 0 -82 -7 -95 -30c-15 -26 -22 -76 -22 -147c0 -21 1 -34 3 -63z" />
    <glyph glyph-name="ugrave" unicode="&#xf9;" horiz-adv-x="518" 
d="M455 467v-467h-92l6 71l-2 1c-24 -54 -70 -78 -152 -78c-111 0 -159 48 -159 161v312h92v-298c0 -80 18 -100 93 -100c93 0 122 32 122 137v261h92zM174 665l146 -102l-24 -42l-160 81z" />
    <glyph glyph-name="uacute" unicode="&#xfa;" horiz-adv-x="518" 
d="M455 467v-467h-92l6 71l-2 1c-24 -54 -70 -78 -152 -78c-111 0 -159 48 -159 161v312h92v-298c0 -80 18 -100 93 -100c93 0 122 32 122 137v261h92zM343 665l38 -63l-160 -81l-24 42z" />
    <glyph glyph-name="ucircumflex" unicode="&#xfb;" horiz-adv-x="518" 
d="M455 467v-467h-92l6 71l-2 1c-24 -54 -70 -78 -152 -78c-111 0 -159 48 -159 161v312h92v-298c0 -80 18 -100 93 -100c93 0 122 32 122 137v261h92zM258 658l138 -101l-26 -39l-112 67l-110 -67l-27 39z" />
    <glyph glyph-name="udieresis" unicode="&#xfc;" horiz-adv-x="518" 
d="M455 467v-467h-92l6 71l-2 1c-24 -54 -70 -78 -152 -78c-111 0 -159 48 -159 161v312h92v-298c0 -80 18 -100 93 -100c93 0 122 32 122 137v261h92zM211 620v-74h-84v74h84zM390 620v-74h-84v74h84z" />
    <glyph glyph-name="yacute" unicode="&#xfd;" horiz-adv-x="413" 
d="M417 467l-127 -495c-14 -55 -33 -105 -49 -127c-25 -36 -66 -53 -125 -53c-13 0 -21 1 -36 2v71c8 -1 18 -2 21 -2c54 0 77 32 98 137h-43l-160 467h98l65 -203l32 -101c11 -34 21 -68 32 -101h2c6 28 12 56 19 84c9 40 19 79 28 118l49 203h96zM291 665l38 -63l-160 -81
l-24 42z" />
    <glyph glyph-name="thorn" unicode="&#xfe;" horiz-adv-x="523" 
d="M57 667h92v-264l2 -1c27 53 65 71 148 71c136 0 180 -58 180 -237c0 -184 -42 -242 -179 -242c-84 0 -121 17 -148 68h-2v-262h-93v867zM267 399c-96 0 -116 -29 -116 -165c0 -134 23 -165 120 -165c93 0 113 29 113 161c0 143 -18 169 -117 169z" />
    <glyph glyph-name="ydieresis" unicode="&#xff;" horiz-adv-x="413" 
d="M417 467l-127 -495c-14 -55 -33 -105 -49 -127c-25 -36 -66 -53 -125 -53c-13 0 -21 1 -36 2v71c8 -1 18 -2 21 -2c54 0 77 32 98 137h-43l-160 467h98l65 -203l32 -101c11 -34 21 -68 32 -101h2c6 28 12 56 19 84c9 40 19 79 28 118l49 203h96zM159 620v-74h-84v74h84z
M338 620v-74h-84v74h84z" />
    <glyph glyph-name="fraction" unicode="&#x2044;" horiz-adv-x="150" 
d="M325 667l-436 -667h-64l434 667h66z" />
    <glyph glyph-name="periodcentered" unicode="&#xb7;" horiz-adv-x="308" 
d="M201 288v-106h-95v106h95z" />
    <glyph glyph-name="macron" unicode="&#xaf;" 
d="M122 614h255v-63h-255v63z" />
    <glyph glyph-name="breve" unicode="&#x2d8;" 
d="M112 651h58c10 -45 39 -70 80 -70s70 26 80 70h57c-6 -36 -13 -55 -30 -76c-26 -32 -66 -52 -107 -52c-72 0 -125 50 -138 128z" />
    <glyph glyph-name="dotaccent" unicode="&#x2d9;" 
d="M292 620v-74h-84v74h84z" />
    <glyph glyph-name="ring" unicode="&#x2da;" 
d="M251 672c42 0 78 -36 78 -79c0 -44 -36 -80 -80 -80s-79 36 -79 80s36 79 81 79zM250 635c-24 0 -43 -19 -43 -42c0 -24 19 -43 43 -43c23 0 42 19 42 43c0 23 -19 42 -42 42z" />
    <glyph glyph-name="hungarumlaut" unicode="&#x2dd;" 
d="M249 665l44 -47l-128 -99l-28 33zM390 665l44 -47l-128 -99l-28 33z" />
    <glyph glyph-name="ogonek" unicode="&#x2db;" 
d="M318 0h60c-48 -29 -72 -55 -72 -79s21 -40 53 -40c11 0 19 2 34 7v-51c-18 -6 -30 -8 -47 -8c-56 0 -94 32 -94 80c0 36 21 65 66 91z" />
    <glyph glyph-name="caron" unicode="&#x2c7;" 
d="M248 520l-138 96l27 42l111 -63l118 63l24 -42z" />
    <glyph glyph-name="Lslash" unicode="&#x141;" horiz-adv-x="504" 
d="M71 667h102v-215l136 124v-85l-136 -124v-275h327v-92h-429v289l-69 -62v85l69 63v292z" />
    <glyph glyph-name="dotlessi" unicode="&#x131;" horiz-adv-x="207" 
d="M149 467v-467h-92v467h92z" />
    <glyph glyph-name="lslash" unicode="&#x142;" horiz-adv-x="211" 
d="M155 381v-381h-97v316l-56 -50v67l56 49v285h97v-220l53 50v-66z" />
    <glyph glyph-name="minus" unicode="&#x2212;" horiz-adv-x="621" 
d="M70 376h480v-85h-480v85z" />
    <glyph glyph-name="Zcaron" unicode="&#x17d;" horiz-adv-x="572" 
d="M543 667v-87l-393 -490v-3h400v-87h-527v88l391 489v3h-377v87h506zM287 719l-157 91l20 41l137 -58l134 58l22 -41z" />
    <glyph glyph-name="zcaron" unicode="&#x17e;" horiz-adv-x="414" 
d="M42 467h351v-82l-264 -314h264v-71h-372v82l262 314h-241v71zM205 520l-138 96l27 42l111 -63l118 63l24 -42z" />
    <glyph glyph-name="Abreve" unicode="&#x102;" horiz-adv-x="622" 
d="M467 134h-311l-46 -134h-108l233 667h149l236 -667h-106zM442 212l-131 375l-129 -375h260zM162 847h58c9 -42 44 -68 91 -68s82 26 92 68h57c-6 -34 -14 -53 -32 -74c-29 -34 -69 -52 -117 -52c-79 0 -137 49 -149 126z" />
    <glyph glyph-name="Aogonek" unicode="&#x104;" horiz-adv-x="622" 
d="M467 134h-311l-46 -134h-108l233 667h149l236 -667h-41c-53 -32 -75 -56 -75 -81c0 -26 20 -42 52 -42c14 0 23 2 38 8v-52c-18 -7 -31 -9 -48 -9c-60 0 -100 33 -100 82c0 22 10 46 26 61c9 9 15 13 43 33zM442 212l-131 375l-129 -375h260z" />
    <glyph glyph-name="Cacute" unicode="&#x106;" horiz-adv-x="608" 
d="M484 230h102v-23c0 -95 -9 -133 -41 -165c-39 -38 -88 -48 -236 -48c-125 0 -176 13 -216 53c-47 47 -58 112 -58 327c0 156 10 199 56 242c48 46 97 57 260 57c92 0 124 -5 159 -26c37 -21 60 -64 65 -118c2 -21 3 -33 4 -75h-102c-2 119 -15 131 -136 131
c-179 0 -199 -16 -199 -156c0 -214 3 -260 18 -294c18 -42 49 -53 151 -53c153 0 174 14 174 116c0 9 0 17 -1 32zM408 836l19 -70l-177 -30l-11 47z" />
    <glyph glyph-name="Ccaron" unicode="&#x10c;" horiz-adv-x="608" 
d="M484 230h102v-23c0 -95 -9 -133 -41 -165c-39 -38 -88 -48 -236 -48c-125 0 -176 13 -216 53c-47 47 -58 112 -58 327c0 156 10 199 56 242c48 46 97 57 260 57c92 0 124 -5 159 -26c37 -21 60 -64 65 -118c2 -21 3 -33 4 -75h-102c-2 119 -15 131 -136 131
c-179 0 -199 -16 -199 -156c0 -214 3 -260 18 -294c18 -42 49 -53 151 -53c153 0 174 14 174 116c0 9 0 17 -1 32zM304 719l-157 91l20 41l137 -58l135 58l21 -41z" />
    <glyph glyph-name="Dcaron" unicode="&#x10e;" horiz-adv-x="663" 
d="M61 0v667h318c94 0 150 -17 188 -58c46 -49 61 -107 61 -232c0 -179 -6 -233 -33 -281c-26 -46 -60 -71 -112 -84c-27 -7 -65 -12 -92 -12h-330zM163 88h198c67 0 110 13 131 41c26 34 33 77 33 199c0 137 -6 175 -31 209c-21 29 -56 41 -122 41h-209v-490zM332 719
l-157 91l20 41l137 -58l135 58l21 -41z" />
    <glyph glyph-name="Dcroat" unicode="&#x110;" horiz-adv-x="663" 
d="M61 307h-63v67h63v293h319c94 0 150 -17 188 -58c46 -49 61 -107 61 -233c0 -179 -6 -232 -33 -280c-26 -46 -60 -71 -112 -84c-28 -7 -66 -12 -93 -12h-330v307zM163 307v-219h198c68 0 110 13 132 41c26 34 33 77 33 199c0 136 -6 175 -31 209c-21 29 -56 41 -122 41
h-210v-204h203v-67h-203z" />
    <glyph glyph-name="Ecaron" unicode="&#x11a;" horiz-adv-x="520" 
d="M143 581v-199h325v-79h-325v-217h342v-86h-444v667h442v-86h-340zM260 719l-157 91l20 41l137 -58l135 58l21 -41z" />
    <glyph glyph-name="Edotaccent" unicode="&#x116;" horiz-adv-x="520" 
d="M143 581v-199h325v-79h-325v-217h342v-86h-444v667h442v-86h-340zM301 821v-73h-83v73h83z" />
    <glyph glyph-name="Eogonek" unicode="&#x118;" horiz-adv-x="519" 
d="M143 581v-199h325v-79h-325v-217h342v-86c-52 -32 -74 -56 -74 -81c0 -26 20 -42 52 -42c13 0 23 2 37 8v-52c-18 -7 -30 -9 -47 -9c-60 0 -100 33 -100 82c0 38 23 67 71 94h-383v667h442v-86h-340z" />
    <glyph glyph-name="Gbreve" unicode="&#x11e;" horiz-adv-x="633" 
d="M311 343h290c2 -32 2 -41 2 -81c0 -121 -4 -153 -25 -190c-18 -34 -49 -56 -92 -67c-27 -7 -85 -11 -168 -11c-99 0 -140 6 -181 25c-46 21 -71 50 -88 102c-11 34 -14 69 -14 149c0 187 1 204 12 256c17 76 59 120 129 137c28 7 71 10 148 10c143 0 172 -4 218 -32
c25 -16 45 -46 52 -79c5 -26 7 -45 7 -92h-102c-3 108 -16 116 -184 116c-105 0 -142 -11 -160 -50c-14 -31 -17 -68 -17 -200c0 -142 3 -175 17 -205c18 -39 57 -50 177 -50c152 0 169 15 169 150c0 5 0 18 -1 32h-189v80zM168 847h57c10 -42 45 -68 92 -68s82 26 91 68h57
c-5 -34 -13 -53 -31 -74c-29 -34 -70 -52 -117 -52c-80 0 -137 49 -149 126z" />
    <glyph glyph-name="Idotaccent" unicode="&#x130;" horiz-adv-x="225" 
d="M163 667v-667h-102v667h102zM154 821v-73h-83v73h83z" />
    <glyph glyph-name="Lacute" unicode="&#x139;" horiz-adv-x="494" 
d="M163 667v-575h327v-92h-429v667h102zM258 836l19 -70l-177 -30l-11 47z" />
    <glyph glyph-name="Lcaron" unicode="&#x13d;" horiz-adv-x="494" 
d="M163 667v-575h327v-92h-429v667h102zM339 667v-78c0 -68 -18 -89 -75 -89c-3 0 -10 0 -17 1v37c35 1 43 11 42 47h-34v82h84z" />
    <glyph glyph-name="Nacute" unicode="&#x143;" horiz-adv-x="717" 
d="M656 667v-667h-171l-234 408c-14 28 -44 84 -88 171h-4c2 -60 3 -106 3 -139v-440h-101v667h170l207 -367c23 -41 44 -79 115 -213h3c-1 60 -2 106 -2 137v443h102zM463 836l19 -70l-177 -30l-11 47z" />
    <glyph glyph-name="Ncaron" unicode="&#x147;" horiz-adv-x="717" 
d="M656 667v-667h-171l-234 408c-14 28 -44 84 -88 171h-4c2 -60 3 -106 3 -139v-440h-101v667h170l207 -367c23 -41 44 -79 115 -213h3c-1 60 -2 106 -2 137v443h102zM359 719l-157 91l20 41l137 -58l135 58l21 -41z" />
    <glyph glyph-name="Ohungarumlaut" unicode="&#x150;" horiz-adv-x="632" 
d="M320 673c103 0 147 -6 186 -25c53 -26 82 -72 95 -147c5 -32 6 -61 6 -155c0 -134 -2 -161 -12 -210c-13 -58 -45 -98 -94 -119c-43 -18 -84 -23 -180 -23c-110 0 -148 5 -192 24c-48 21 -78 60 -91 117c-11 47 -13 73 -13 198c0 166 7 211 40 261c40 61 99 79 255 79z
M504 242v93v93c0 75 -16 122 -48 140c-24 14 -53 17 -151 17c-120 0 -148 -12 -166 -69c-10 -32 -11 -44 -11 -183c0 -124 0 -124 5 -158c7 -43 23 -69 52 -80c25 -10 52 -13 132 -13c93 0 123 5 146 22c26 20 41 70 41 138zM310 861l40 -51l-139 -91l-25 35zM475 861
l40 -51l-140 -91l-25 35z" />
    <glyph glyph-name="Racute" unicode="&#x154;" horiz-adv-x="634" 
d="M61 0v667h323c153 0 206 -51 206 -195c0 -128 -25 -166 -118 -183v-3c75 -6 110 -47 110 -129v-157h-103v135c0 47 -7 70 -28 87c-20 17 -38 22 -85 22h-203v-244h-102zM163 332h198c47 0 77 7 96 22c23 18 30 40 30 96c0 80 -7 103 -38 118c-15 7 -40 11 -71 11h-215
v-247zM422 836l19 -70l-178 -30l-10 47z" />
    <glyph glyph-name="Rcaron" unicode="&#x158;" horiz-adv-x="634" 
d="M61 0v667h323c153 0 206 -51 206 -195c0 -128 -25 -166 -118 -183v-3c75 -6 110 -47 110 -129v-157h-103v135c0 47 -7 70 -28 87c-20 17 -38 22 -85 22h-203v-244h-102zM163 332h198c47 0 77 7 96 22c23 18 30 40 30 96c0 80 -7 103 -38 118c-15 7 -40 11 -71 11h-215
v-247zM318 719l-157 91l20 41l137 -58l134 58l22 -41z" />
    <glyph glyph-name="Sacute" unicode="&#x15a;" horiz-adv-x="580" 
d="M537 479h-100c0 46 -3 63 -15 80c-17 23 -45 30 -123 30c-138 0 -164 -16 -164 -104c0 -54 14 -80 49 -91c18 -6 28 -7 129 -12c122 -6 159 -14 190 -39c35 -28 48 -68 48 -146c0 -99 -17 -146 -64 -174c-39 -22 -86 -29 -212 -29c-135 0 -184 14 -216 63
c-22 33 -28 64 -29 152h100c0 -60 3 -75 15 -96c17 -30 35 -34 147 -34c141 0 158 13 158 119c0 51 -11 74 -41 85c-18 6 -18 6 -132 13c-124 7 -139 9 -173 27c-51 27 -71 73 -71 159c0 78 16 126 51 152c40 30 90 39 209 39c132 0 184 -14 216 -59c19 -28 28 -64 28 -115
v-20zM394 836l19 -70l-177 -30l-11 47z" />
    <glyph glyph-name="Scedilla" unicode="&#x15e;" horiz-adv-x="580" 
d="M537 479h-100c0 46 -3 63 -15 80c-17 23 -45 30 -123 30c-138 0 -164 -16 -164 -104c0 -54 14 -80 49 -91c18 -6 28 -7 129 -12c122 -6 159 -14 190 -39c35 -28 48 -68 48 -146c0 -99 -17 -146 -64 -174c-39 -22 -86 -29 -212 -29c-135 0 -184 14 -216 63
c-22 33 -28 64 -29 152h100c0 -60 3 -75 15 -96c17 -30 35 -34 147 -34c141 0 158 13 158 119c0 51 -11 74 -41 85c-18 6 -18 6 -132 13c-124 7 -139 9 -173 27c-51 27 -71 73 -71 159c0 78 16 126 51 152c40 30 90 39 209 39c132 0 184 -14 216 -59c19 -28 28 -64 28 -115
v-20zM307 -49l52 -44l-96 -94l-40 31z" />
    <glyph glyph-name="Tcaron" unicode="&#x164;" horiz-adv-x="522" 
d="M310 575v-575h-102v575h-204v92h513v-93zM262 719l-158 91l20 41l138 -58l134 58l21 -41z" />
    <glyph glyph-name="Uring" unicode="&#x16e;" horiz-adv-x="664" 
d="M501 667h102v-455c0 -81 -9 -120 -34 -153c-40 -51 -91 -65 -240 -65c-99 0 -141 5 -179 22c-68 31 -89 77 -89 192v459h102v-459c0 -48 4 -73 14 -88c19 -29 56 -38 150 -38c155 0 174 14 174 129v456zM333 870c42 0 78 -36 78 -79c0 -44 -35 -79 -79 -79
c-45 0 -80 35 -80 80c0 43 36 78 81 78zM332 833c-24 0 -43 -18 -43 -42c0 -23 19 -42 43 -42c23 0 42 19 42 42s-19 42 -42 42z" />
    <glyph glyph-name="Uhungarumlaut" unicode="&#x170;" horiz-adv-x="664" 
d="M501 667h102v-455c0 -81 -9 -120 -34 -153c-40 -51 -91 -65 -240 -65c-99 0 -141 5 -179 22c-68 31 -89 77 -89 192v459h102v-459c0 -48 4 -73 14 -88c19 -29 56 -38 150 -38c155 0 174 14 174 129v456zM326 861l40 -51l-140 -91l-25 35zM491 861l39 -51l-139 -91l-25 35
z" />
    <glyph glyph-name="Zacute" unicode="&#x179;" horiz-adv-x="572" 
d="M543 667v-87l-393 -490v-3h400v-87h-527v88l391 489v3h-377v87h506zM391 836l19 -70l-178 -30l-10 47z" />
    <glyph glyph-name="Zdotaccent" unicode="&#x17b;" horiz-adv-x="572" 
d="M543 667v-87l-393 -490v-3h400v-87h-527v88l391 489v3h-377v87h506zM328 821v-73h-83v73h83z" />
    <glyph glyph-name="Amacron" unicode="&#x100;" horiz-adv-x="622" 
d="M467 134h-311l-46 -134h-108l233 667h149l236 -667h-106zM442 212l-131 375l-129 -375h260zM182 814h259v-63h-259v63z" />
    <glyph glyph-name="Tcommaaccent" unicode="&#x162;" horiz-adv-x="522" 
d="M310 575v-575h-102v575h-204v92h513v-93zM306 -52v-74c0 -66 -18 -87 -73 -87l-17 1v36c34 2 42 11 41 47h-33v77h82z" />
    <glyph glyph-name="Emacron" unicode="&#x112;" horiz-adv-x="520" 
d="M143 581v-199h325v-79h-325v-217h342v-86h-444v667h442v-86h-340zM133 814h260v-63h-260v63z" />
    <glyph glyph-name="Imacron" unicode="&#x12a;" horiz-adv-x="225" 
d="M163 667v-667h-102v667h102zM-18 814h259v-63h-259v63z" />
    <glyph glyph-name="Iogonek" unicode="&#x12e;" horiz-adv-x="225" 
d="M163 667v-667c-55 -36 -73 -56 -73 -81c0 -26 20 -42 52 -42c14 0 23 2 38 8v-52c-19 -7 -31 -9 -48 -9c-60 0 -100 33 -100 82c0 38 22 66 71 94h-42v667h102z" />
    <glyph glyph-name="Kcommaaccent" unicode="&#x136;" horiz-adv-x="625" 
d="M163 667v-281h63l246 281h129l-287 -324l319 -343h-134l-273 297h-63v-297h-102v667h102zM358 -52v-74c0 -66 -18 -87 -73 -87l-17 1v36c34 2 42 11 41 47h-33v77h82z" />
    <glyph glyph-name="Lcommaaccent" unicode="&#x13b;" horiz-adv-x="494" 
d="M163 667v-575h327v-92h-429v667h102zM292 -52v-74c0 -66 -18 -87 -73 -87l-17 1v36c34 2 42 11 41 47h-33v77h82z" />
    <glyph glyph-name="Ncommaaccent" unicode="&#x145;" horiz-adv-x="717" 
d="M656 667v-667h-171l-234 408c-14 28 -44 84 -88 171h-4c2 -60 3 -106 3 -139v-440h-101v667h170l207 -367c23 -41 44 -79 115 -213h3c-1 60 -2 106 -2 137v443h102zM404 -52v-74c0 -66 -18 -87 -73 -87l-18 1v36c35 1 43 11 42 47h-33v77h82z" />
    <glyph glyph-name="Omacron" unicode="&#x14c;" horiz-adv-x="632" 
d="M320 673c103 0 147 -6 186 -25c53 -26 82 -72 95 -147c5 -32 6 -61 6 -155c0 -134 -2 -161 -12 -210c-13 -58 -45 -98 -94 -119c-43 -18 -84 -23 -180 -23c-110 0 -148 5 -192 24c-48 21 -78 60 -91 117c-11 47 -13 73 -13 198c0 166 7 211 40 261c40 61 99 79 255 79z
M504 242v93v93c0 75 -16 122 -48 140c-24 14 -53 17 -151 17c-120 0 -148 -12 -166 -69c-10 -32 -11 -44 -11 -183c0 -124 0 -124 5 -158c7 -43 23 -69 52 -80c25 -10 52 -13 132 -13c93 0 123 5 146 22c26 20 41 70 41 138zM186 814h260v-63h-260v63z" />
    <glyph glyph-name="Rcommaaccent" unicode="&#x156;" horiz-adv-x="634" 
d="M61 0v667h323c153 0 206 -51 206 -195c0 -128 -25 -166 -118 -183v-3c75 -6 110 -47 110 -129v-157h-103v135c0 47 -7 70 -28 87c-20 17 -38 22 -85 22h-203v-244h-102zM163 332h198c47 0 77 7 96 22c23 18 30 40 30 96c0 80 -7 103 -38 118c-15 7 -40 11 -71 11h-215
v-247zM362 -52v-74c0 -66 -18 -87 -73 -87l-17 1v36c34 2 42 11 41 47h-33v77h82z" />
    <glyph glyph-name="Gcommaaccent" unicode="&#x122;" horiz-adv-x="633" 
d="M311 343h290c2 -32 2 -41 2 -81c0 -121 -4 -153 -25 -190c-18 -34 -49 -56 -92 -67c-27 -7 -85 -11 -168 -11c-99 0 -140 6 -181 25c-46 21 -71 50 -88 102c-11 34 -14 69 -14 149c0 187 1 204 12 256c17 76 59 120 129 137c28 7 71 10 148 10c143 0 172 -4 218 -32
c25 -16 45 -46 52 -79c5 -26 7 -45 7 -92h-102c-3 108 -16 116 -184 116c-105 0 -142 -11 -160 -50c-14 -31 -17 -68 -17 -200c0 -142 3 -175 17 -205c18 -39 57 -50 177 -50c152 0 169 15 169 150c0 5 0 18 -1 32h-189v80zM362 -52v-74c0 -66 -18 -87 -73 -87l-18 1v36
c35 1 43 11 42 47h-33v77h82z" />
    <glyph glyph-name="Umacron" unicode="&#x16a;" horiz-adv-x="664" 
d="M501 667h102v-455c0 -81 -9 -120 -34 -153c-40 -51 -91 -65 -240 -65c-99 0 -141 5 -179 22c-68 31 -89 77 -89 192v459h102v-459c0 -48 4 -73 14 -88c19 -29 56 -38 150 -38c155 0 174 14 174 129v456zM202 814h260v-63h-260v63z" />
    <glyph glyph-name="Uogonek" unicode="&#x172;" horiz-adv-x="664" 
d="M519 -115v-52c-18 -7 -30 -9 -47 -9c-61 0 -101 33 -101 82c0 37 22 67 68 92c-40 -3 -74 -4 -122 -4c-142 0 -204 22 -236 85c-15 31 -20 61 -20 129v459h102v-459c0 -48 4 -73 14 -88c19 -29 56 -38 150 -38c155 0 174 14 174 129v456h102v-455
c0 -118 -20 -158 -110 -219c-49 -32 -64 -50 -64 -74c0 -26 20 -42 52 -42c15 0 23 2 38 8z" />
    <glyph glyph-name="abreve" unicode="&#x103;" horiz-adv-x="517" 
d="M153 334h-93c1 112 38 139 193 139c158 0 203 -37 203 -166v-307h-92l5 57l-2 1c-27 -49 -63 -64 -153 -64c-128 0 -173 38 -173 143c0 53 15 96 40 116c27 20 72 31 135 31c49 0 88 -5 113 -16c15 -6 24 -15 33 -34h2v66c0 90 -18 109 -108 109c-82 0 -102 -13 -103 -67
v-8zM249 219c-92 0 -113 -14 -113 -72c0 -68 19 -83 107 -83c93 0 123 19 123 76c0 62 -26 79 -117 79zM121 651h58c10 -45 39 -70 80 -70s70 26 80 70h58c-6 -36 -14 -55 -31 -76c-26 -32 -66 -52 -107 -52c-72 0 -125 50 -138 128z" />
    <glyph glyph-name="aogonek" unicode="&#x105;" horiz-adv-x="514" 
d="M153 334h-93c1 112 38 139 193 139c157 0 203 -37 203 -166v-307h-33c-48 -29 -72 -55 -72 -79s21 -40 53 -40c11 0 19 2 34 7v-51c-18 -6 -30 -8 -47 -8c-56 0 -94 32 -94 80c0 36 22 66 67 91l5 57l-2 1c-27 -49 -63 -64 -153 -64c-128 0 -173 38 -173 143
c0 53 15 96 40 116c27 20 72 31 135 31c49 0 88 -5 113 -16c15 -6 24 -15 33 -34h2v66c0 90 -18 109 -108 109c-82 0 -102 -13 -103 -67v-8zM249 219c-92 0 -113 -14 -113 -72c0 -68 19 -83 107 -83c93 0 123 19 123 76c0 62 -26 79 -117 79z" />
    <glyph glyph-name="cacute" unicode="&#x107;" horiz-adv-x="488" 
d="M366 174h91c0 -72 -6 -101 -27 -128c-29 -39 -74 -52 -174 -52c-173 0 -214 47 -214 243c0 185 45 236 211 236c151 0 196 -38 197 -165h-91c1 74 -19 91 -109 91c-100 0 -114 -21 -114 -167c0 -74 8 -119 24 -140c13 -17 42 -24 103 -24c88 0 103 15 103 106zM328 665
l38 -63l-160 -81l-24 42z" />
    <glyph glyph-name="ccaron" unicode="&#x10d;" horiz-adv-x="488" 
d="M366 174h91c0 -72 -6 -101 -27 -128c-29 -39 -74 -52 -174 -52c-173 0 -214 47 -214 243c0 185 45 236 211 236c151 0 196 -38 197 -165h-91c1 74 -19 91 -109 91c-100 0 -114 -21 -114 -167c0 -74 8 -119 24 -140c13 -17 42 -24 103 -24c88 0 103 15 103 106zM242 520
l-138 96l26 42l112 -63l117 63l25 -42z" />
    <glyph glyph-name="dcaron" unicode="&#x10f;" horiz-adv-x="587" 
d="M462 667v-667h-90l3 68l-2 1c-24 -54 -64 -75 -146 -75c-65 0 -113 15 -140 45c-33 36 -44 85 -44 202c0 104 11 151 45 189c26 28 71 43 135 43c84 0 126 -20 145 -69l2 1v262h92zM250 398c-41 0 -73 -8 -86 -22c-19 -19 -27 -62 -27 -134c0 -145 19 -174 114 -174
c100 0 119 28 119 177c0 122 -24 153 -120 153zM587 667v-74c0 -64 -17 -84 -70 -84l-16 1v35c33 2 40 10 39 44h-32v78h79z" />
    <glyph glyph-name="dcroat" unicode="&#x111;" horiz-adv-x="519" 
d="M462 581h56v-51h-56v-530h-90l3 68l-2 1c-24 -54 -64 -75 -146 -75c-65 0 -113 15 -140 45c-33 36 -44 85 -44 202c0 104 11 151 45 189c26 28 72 43 135 43c84 0 126 -20 145 -69l2 1v125h-178v51h178v86h92v-86zM250 398c-41 0 -72 -8 -86 -22
c-19 -19 -27 -62 -27 -134c0 -145 19 -174 114 -174c100 0 119 28 119 177c0 122 -24 153 -120 153z" />
    <glyph glyph-name="ecaron" unicode="&#x11b;" horiz-adv-x="505" 
d="M369 146h93v-18c0 -98 -54 -134 -201 -134c-179 0 -219 45 -219 242c0 190 43 237 217 237c120 0 169 -26 192 -102c9 -31 11 -58 11 -154h-326v-14c0 -113 21 -137 120 -137c98 0 113 11 113 80zM137 279h233c-1 62 -2 70 -10 87c-13 28 -38 37 -103 37
c-102 0 -119 -18 -120 -124zM251 520l-139 96l27 42l112 -63l117 63l24 -42z" />
    <glyph glyph-name="edotaccent" unicode="&#x117;" horiz-adv-x="505" 
d="M369 146h93v-18c0 -98 -54 -134 -201 -134c-179 0 -219 45 -219 242c0 190 43 237 217 237c120 0 169 -26 192 -102c9 -31 11 -58 11 -154h-326v-14c0 -113 21 -137 120 -137c98 0 113 11 113 80zM137 279h233c-1 62 -2 70 -10 87c-13 28 -38 37 -103 37
c-102 0 -119 -18 -120 -124zM294 620v-74h-84v74h84z" />
    <glyph glyph-name="eogonek" unicode="&#x119;" horiz-adv-x="505" 
d="M369 146h92c1 -7 1 -15 1 -18c0 -44 -13 -77 -38 -99c-11 -9 -11 -9 -56 -29c-35 -15 -72 -56 -72 -79c0 -24 21 -40 53 -40c11 0 19 2 34 7v-51c-18 -6 -30 -8 -47 -8c-56 0 -94 32 -94 80c0 34 19 62 58 86c-21 -1 -41 -1 -51 -1c-76 0 -128 14 -159 42
c-34 31 -48 88 -48 201c0 189 43 236 217 236c119 0 169 -26 191 -102c9 -31 11 -58 11 -154h-325v-14v-8c1 -106 22 -129 120 -129s113 11 113 80zM137 279h233c-2 62 -3 70 -11 87c-12 28 -37 37 -103 37c-101 0 -119 -18 -119 -124z" />
    <glyph glyph-name="gbreve" unicode="&#x11f;" horiz-adv-x="520" 
d="M463 467v-486c0 -145 -50 -189 -213 -189c-102 0 -155 20 -177 66c-10 20 -13 41 -13 90h88c1 -71 16 -83 107 -83c89 0 116 23 116 100v100h-2c-20 -49 -63 -70 -143 -70c-64 0 -112 16 -141 47c-32 36 -43 81 -43 189c0 113 11 161 46 198c28 30 74 44 139 44
c82 0 121 -20 146 -77l2 1l-4 70h92zM251 398c-95 0 -114 -25 -114 -157c0 -146 17 -171 115 -171c97 0 117 29 117 173c0 128 -21 155 -118 155zM122 651h58c10 -45 39 -70 80 -70s70 26 80 70h58c-6 -36 -14 -55 -31 -76c-26 -32 -66 -52 -107 -52c-71 0 -125 50 -138 128
z" />
    <glyph glyph-name="lacute" unicode="&#x13a;" horiz-adv-x="207" 
d="M150 667v-667h-92v667h92zM208 836l19 -70l-177 -30l-11 47z" />
    <glyph glyph-name="lcaron" unicode="&#x13e;" horiz-adv-x="275" 
d="M149 667v-667h-92v667h92zM274 667v-74c0 -64 -17 -84 -70 -84l-16 1v35c33 2 40 10 39 44h-32v78h79z" />
    <glyph glyph-name="nacute" unicode="&#x144;" horiz-adv-x="524" 
d="M57 467h92l-3 -72l2 -1c22 54 69 79 149 79c79 0 131 -22 153 -64c11 -20 14 -44 14 -98v-311h-92v289c0 92 -15 109 -96 109c-88 0 -125 -35 -125 -119v-279h-94v467zM346 665l38 -63l-160 -81l-24 42z" />
    <glyph glyph-name="ncaron" unicode="&#x148;" horiz-adv-x="524" 
d="M57 467h92l-3 -72l2 -1c22 54 69 79 149 79c79 0 131 -22 153 -64c11 -20 14 -44 14 -98v-311h-92v289c0 92 -15 109 -96 109c-88 0 -125 -35 -125 -119v-279h-94v467zM260 520l-139 96l27 42l112 -63l117 63l24 -42z" />
    <glyph glyph-name="ohungarumlaut" unicode="&#x151;" horiz-adv-x="512" 
d="M254 473c179 0 216 -39 216 -230c0 -208 -35 -249 -215 -249c-178 0 -213 40 -213 247c0 190 38 232 212 232zM256 399c-105 0 -119 -19 -119 -161c0 -153 12 -170 120 -170c104 0 118 20 118 169c0 144 -13 162 -119 162zM254 665l45 -47l-128 -99l-28 33zM395 665
l45 -47l-128 -99l-28 33z" />
    <glyph glyph-name="racute" unicode="&#x155;" horiz-adv-x="411" 
d="M62 467h92l-7 -60l2 -1c30 51 65 70 130 70c89 0 126 -42 126 -144c0 -4 0 -19 -1 -33h-87c1 14 1 22 1 31c0 54 -17 72 -67 72c-44 0 -75 -17 -88 -48c-7 -16 -9 -36 -9 -76v-278h-92v467zM290 665l38 -63l-160 -81l-24 42z" />
    <glyph glyph-name="sacute" unicode="&#x15b;" horiz-adv-x="485" 
d="M434 341h-90c-4 59 -13 65 -106 65s-107 -8 -107 -64c0 -37 8 -53 29 -60c11 -3 11 -3 93 -7c90 -5 90 -5 110 -9c59 -13 86 -53 86 -127c0 -50 -14 -88 -40 -110c-31 -26 -76 -35 -172 -35c-152 0 -201 33 -201 134v20h95c-1 -7 -1 -15 -1 -18c0 -56 20 -69 110 -69
c95 0 117 14 117 73c0 50 -14 64 -67 65c-75 1 -145 6 -173 14c-55 14 -77 50 -77 124c0 108 42 136 202 136c152 0 193 -28 192 -132zM327 665l38 -63l-160 -81l-24 42z" />
    <glyph glyph-name="scommaaccent" unicode="&#x219;" horiz-adv-x="485" 
d="M434 341h-90c-4 59 -13 65 -106 65s-107 -8 -107 -64c0 -37 8 -53 29 -60c11 -3 11 -3 93 -7c90 -5 90 -5 110 -9c59 -13 86 -53 86 -127c0 -50 -14 -88 -40 -110c-31 -26 -76 -35 -172 -35c-152 0 -201 33 -201 134v20h95c-1 -7 -1 -15 -1 -18c0 -56 20 -69 110 -69
c95 0 117 14 117 73c0 50 -14 64 -67 65c-75 1 -145 6 -173 14c-55 14 -77 50 -77 124c0 108 42 136 202 136c152 0 193 -28 192 -132zM283 -47v-66c0 -60 -16 -79 -66 -79l-15 1v33c31 1 38 9 37 41h-30v70h74z" />
    <glyph glyph-name="tcaron" unicode="&#x165;" horiz-adv-x="356" 
d="M334 467v-72h-179v-258c0 -56 11 -70 56 -70c50 0 62 16 62 84c0 7 0 11 -1 22h80c1 -13 1 -28 1 -32c0 -109 -38 -147 -147 -147c-78 0 -118 18 -135 62c-6 17 -8 32 -8 72v267h-63v72h63v108h92v-108h179zM296 667v-74c0 -64 -17 -84 -70 -84l-17 1v35
c33 1 41 10 40 44h-32v78h79z" />
    <glyph glyph-name="uring" unicode="&#x16f;" horiz-adv-x="518" 
d="M455 467v-467h-92l6 71l-2 1c-24 -54 -70 -78 -152 -78c-111 0 -159 48 -159 161v312h92v-298c0 -80 18 -100 93 -100c93 0 122 32 122 137v261h92zM260 672c42 0 78 -36 78 -79c0 -44 -36 -80 -80 -80s-79 36 -79 80s36 79 81 79zM259 635c-24 0 -43 -19 -43 -42
c0 -24 19 -43 43 -43c23 0 42 19 42 43c0 23 -19 42 -42 42z" />
    <glyph glyph-name="uhungarumlaut" unicode="&#x171;" horiz-adv-x="518" 
d="M455 467v-467h-92l6 71l-2 1c-24 -54 -70 -78 -152 -78c-111 0 -159 48 -159 161v312h92v-298c0 -80 18 -100 93 -100c93 0 122 32 122 137v261h92zM257 665l44 -47l-128 -99l-28 33zM398 665l44 -47l-128 -99l-28 33z" />
    <glyph glyph-name="zacute" unicode="&#x17a;" horiz-adv-x="414" 
d="M42 467h351v-82l-264 -314h264v-71h-372v82l262 314h-241v71zM292 665l38 -63l-161 -81l-24 42z" />
    <glyph glyph-name="zdotaccent" unicode="&#x17c;" horiz-adv-x="414" 
d="M42 467h351v-82l-264 -314h264v-71h-372v82l262 314h-241v71zM249 620v-74h-84v74h84z" />
    <glyph glyph-name="tcommaaccent" unicode="&#x163;" horiz-adv-x="356" 
d="M334 467v-72h-179v-258c0 -56 11 -70 56 -70c50 0 62 16 62 84c0 7 0 11 -1 22h80c1 -13 1 -28 1 -32c0 -109 -38 -147 -147 -147c-78 0 -118 18 -135 62c-6 17 -8 32 -8 72v267h-63v72h63v108h92v-108h179zM218 -47v-66c0 -60 -16 -79 -66 -79l-15 1v33c31 1 38 9 37 41
h-30v70h74z" />
    <glyph glyph-name="amacron" unicode="&#x101;" horiz-adv-x="517" 
d="M153 334h-93c1 112 38 139 193 139c158 0 203 -37 203 -166v-307h-92l5 57l-2 1c-27 -49 -63 -64 -153 -64c-128 0 -173 38 -173 143c0 53 15 96 40 116c27 20 72 31 135 31c49 0 88 -5 113 -16c15 -6 24 -15 33 -34h2v66c0 90 -18 109 -108 109c-82 0 -102 -13 -103 -67
v-8zM249 219c-92 0 -113 -14 -113 -72c0 -68 19 -83 107 -83c93 0 123 19 123 76c0 62 -26 79 -117 79zM131 614h255v-63h-255v63z" />
    <glyph glyph-name="emacron" unicode="&#x113;" horiz-adv-x="505" 
d="M369 146h93v-18c0 -98 -54 -134 -201 -134c-179 0 -219 45 -219 242c0 190 43 237 217 237c120 0 169 -26 192 -102c9 -31 11 -58 11 -154h-326v-14c0 -113 21 -137 120 -137c98 0 113 11 113 80zM137 279h233c-1 62 -2 70 -10 87c-13 28 -38 37 -103 37
c-102 0 -119 -18 -120 -124zM125 614h255v-63h-255v63z" />
    <glyph glyph-name="imacron" unicode="&#x12b;" horiz-adv-x="206" 
d="M150 467v-467h-92v467h92zM-24 614h255v-63h-255v63z" />
    <glyph glyph-name="kcommaaccent" unicode="&#x137;" horiz-adv-x="458" 
d="M149 667v-384h30l144 184h110l-181 -217l215 -250h-117l-173 216h-28v-216h-92v667h92zM269 -47v-66c0 -60 -16 -79 -66 -79l-15 1v33c31 1 38 9 37 41h-30v70h74z" />
    <glyph glyph-name="lcommaaccent" unicode="&#x13c;" horiz-adv-x="207" 
d="M149 667v-667h-92v667h92zM143 -47v-66c0 -60 -16 -79 -66 -79l-15 1v33c31 1 38 9 37 41h-30v70h74z" />
    <glyph glyph-name="ncommaaccent" unicode="&#x146;" horiz-adv-x="524" 
d="M57 467h92l-3 -72l2 -1c22 54 69 79 149 79c79 0 131 -22 153 -64c11 -20 14 -44 14 -98v-311h-92v289c0 92 -15 109 -96 109c-88 0 -125 -35 -125 -119v-279h-94v467zM302 -47v-66c0 -60 -16 -79 -66 -79l-15 1v33c31 1 38 9 37 41h-30v70h74z" />
    <glyph glyph-name="omacron" unicode="&#x14d;" horiz-adv-x="512" 
d="M254 473c179 0 216 -39 216 -230c0 -208 -35 -249 -215 -249c-178 0 -213 40 -213 247c0 190 38 232 212 232zM256 399c-105 0 -119 -19 -119 -161c0 -153 12 -170 120 -170c104 0 118 20 118 169c0 144 -13 162 -119 162zM128 614h256v-63h-256v63z" />
    <glyph glyph-name="rcommaaccent" unicode="&#x157;" horiz-adv-x="411" 
d="M62 467h92l-7 -60l2 -1c30 51 65 70 130 70c89 0 126 -42 126 -144c0 -4 0 -19 -1 -33h-87c1 14 1 22 1 31c0 54 -17 72 -67 72c-44 0 -75 -17 -88 -48c-7 -16 -9 -36 -9 -76v-278h-92v467zM151 -47v-66c0 -60 -16 -79 -66 -79l-15 1v33c31 1 38 9 37 41h-30v70h74z" />
    <glyph glyph-name="umacron" unicode="&#x16b;" horiz-adv-x="518" 
d="M455 467v-467h-92l6 71l-2 1c-24 -54 -70 -78 -152 -78c-111 0 -159 48 -159 161v312h92v-298c0 -80 18 -100 93 -100c93 0 122 32 122 137v261h92zM128 614h255v-63h-255v63z" />
    <glyph glyph-name="uogonek" unicode="&#x173;" horiz-adv-x="518" 
d="M469 -112v-51c-18 -6 -30 -8 -47 -8c-56 0 -94 32 -94 80c0 37 20 64 66 91h-31l6 71l-2 1c-24 -54 -70 -78 -152 -78c-111 0 -159 48 -159 161v312h92v-298c0 -80 18 -100 93 -100c93 0 122 32 122 137v261h92v-467c-46 -26 -73 -54 -73 -79c0 -24 21 -40 53 -40
c11 0 19 2 34 7z" />
    <glyph glyph-name="rcaron" unicode="&#x159;" horiz-adv-x="411" 
d="M62 467h92l-7 -60l2 -1c30 51 65 70 130 70c89 0 126 -42 126 -144c0 -4 0 -19 -1 -33h-87c1 14 1 22 1 31c0 54 -17 72 -67 72c-44 0 -75 -17 -88 -48c-7 -16 -9 -36 -9 -76v-278h-92v467zM204 520l-139 96l27 42l112 -63l117 63l24 -42z" />
    <glyph glyph-name="scedilla" unicode="&#x15f;" horiz-adv-x="485" 
d="M434 341h-90c-4 59 -13 65 -106 65s-107 -8 -107 -64c0 -37 8 -53 29 -60c11 -3 11 -3 93 -7c90 -5 90 -5 110 -9c59 -13 86 -53 86 -127c0 -50 -14 -88 -40 -110c-31 -26 -76 -35 -172 -35c-152 0 -201 33 -201 134v20h95c-1 -7 -1 -15 -1 -18c0 -56 20 -69 110 -69
c95 0 117 14 117 73c0 50 -14 64 -67 65c-75 1 -145 6 -173 14c-55 14 -77 50 -77 124c0 108 42 136 202 136c152 0 193 -28 192 -132zM259 -49l46 -43l-90 -82l-35 29z" />
    <glyph glyph-name="gcommaaccent" unicode="&#x123;" horiz-adv-x="520" 
d="M463 467v-486c0 -145 -50 -189 -213 -189c-102 0 -155 20 -177 66c-10 20 -13 41 -13 90h88c1 -71 16 -83 107 -83c89 0 116 23 116 100v100h-2c-20 -49 -63 -70 -143 -70c-64 0 -112 16 -141 47c-32 36 -43 81 -43 189c0 113 11 161 46 198c28 30 74 44 139 44
c82 0 121 -20 146 -77l2 1l-4 70h92zM251 398c-95 0 -114 -25 -114 -157c0 -146 17 -171 115 -171c97 0 117 29 117 173c0 128 -21 155 -118 155zM207 537v74c0 66 18 87 73 87c3 0 10 0 17 -1v-36c-34 -2 -42 -11 -41 -47h33v-77h-82z" />
    <glyph glyph-name="commaaccent" unicode="&#xf6c3;" 
d="M290 -47v-66c0 -60 -16 -79 -66 -79l-15 1v33c31 1 38 9 37 41h-30v70h74z" />
    <glyph glyph-name="iogonek" unicode="&#x12f;" horiz-adv-x="207" 
d="M163 -112v-50c-18 -7 -30 -9 -47 -9c-56 0 -94 32 -94 80c0 37 21 65 66 91h-31v467h92v-467c-46 -26 -73 -54 -73 -79c0 -24 21 -40 53 -40c12 0 19 2 34 7zM149 667v-87h-92v87h92z" />
    <glyph glyph-name="Scommaaccent" unicode="&#x218;" horiz-adv-x="580" 
d="M537 479h-100c0 46 -3 63 -15 80c-17 23 -45 30 -123 30c-138 0 -164 -16 -164 -104c0 -54 14 -80 49 -91c18 -6 28 -7 129 -12c122 -6 159 -14 190 -39c35 -28 48 -68 48 -146c0 -99 -17 -146 -64 -174c-39 -22 -86 -29 -212 -29c-135 0 -184 14 -216 63
c-22 33 -28 64 -29 152h100c0 -60 3 -75 15 -96c17 -30 35 -34 147 -34c141 0 158 13 158 119c0 51 -11 74 -41 85c-18 6 -18 6 -132 13c-124 7 -139 9 -173 27c-51 27 -71 73 -71 159c0 78 16 126 51 152c40 30 90 39 209 39c132 0 184 -14 216 -59c19 -28 28 -64 28 -115
v-20zM315 -52v-74c0 -66 -18 -87 -73 -87l-17 1v36c34 2 42 11 41 47h-33v77h82z" />
    <glyph glyph-name="lozenge" unicode="&#x25ca;" horiz-adv-x="667" 
d="M334 693l259 -359l-259 -360l-260 360zM334 539l-150 -205l150 -205l149 205z" />
    <glyph glyph-name="Delta" unicode="&#x2206;" horiz-adv-x="667" 
d="M24 0l259 667h99l261 -667h-619zM155 86h355l-177 469z" />
    <glyph glyph-name="notequal" unicode="&#x2260;" 
d="M269 462l54 111l61 -28l-41 -83h124v-82h-161l-41 -84h202v-82h-240l-53 -108l-61 27l39 81h-119v82h157l41 84h-198v82h236z" />
    <glyph glyph-name="radical" unicode="&#x221a;" horiz-adv-x="667" 
d="M667 830v-86h-190l-199 -744h-117l-74 289h-87v86h162l31 -116c5 -17 9 -46 23 -141h8c3 21 3 23 7 40c6 33 13 71 22 114c2 16 4 27 43 172l101 386h270z" />
    <glyph glyph-name="lessequal" unicode="&#x2264;" 
d="M466 629v-87l-335 -151l335 -150v-87l-433 197v78zM466 125v-86h-433v86h433z" />
    <glyph glyph-name="greaterequal" unicode="&#x2265;" 
d="M33 154v87l336 151l-336 150v87l433 -200v-78zM33 39v86h433v-86h-433z" />
    <glyph glyph-name="summation" unicode="&#x2211;" horiz-adv-x="667" 
d="M606 750v-236h-83l-9 150h-385l251 -395l-251 -433h395l5 148h86v-234h-589v96l247 423l-247 386v95h580z" />
    <glyph glyph-name="partialdiff" unicode="&#x2202;" 
d="M78 588l11 81c120 -16 193 -46 259 -106c81 -75 126 -186 126 -310c0 -158 -89 -263 -224 -263c-123 0 -224 102 -224 226c0 122 91 218 207 218c59 0 97 -17 139 -64c-44 123 -146 199 -294 218zM253 366c-75 0 -134 -67 -134 -154c0 -84 58 -152 131 -152
s130 69 130 157c0 86 -54 149 -127 149z" />
    </font>
</defs>
</svg>
