<?xml version="1.0" standalone="no"?>
<!DOCTYPE svg PUBLIC "-//W3C//DTD SVG 1.1//EN" "http://www.w3.org/Graphics/SVG/1.1/DTD/svg11.dtd" >
<svg xmlns="http://www.w3.org/2000/svg" xmlns:xlink="http://www.w3.org/1999/xlink" version="1.1">
<metadata>
Created by FontForge 20190801 at Sat Sep 27 10:39:17 2003
 By root
(c) Copyright SoftMaker Software GmbH and its licensors
</metadata>
<defs>
<font id="MicroSquareEx" horiz-adv-x="500" >
  <font-face 
    font-family="MicroSquare-Ex"
    font-weight="400"
    font-stretch="normal"
    units-per-em="1000"
    panose-1="0 0 4 0 0 0 0 0 0 0"
    ascent="800"
    descent="-200"
    x-height="473"
    cap-height="667"
    bbox="-257 -250 1971 870"
    underline-thickness="66"
    underline-position="-132"
    unicode-range="U+0020-F002"
  />
<missing-glyph 
d="M63 0v770h375v-770h-375zM125 63h250v645h-250v-645z" />
    <glyph glyph-name=".notdef" 
d="M63 0v770h375v-770h-375zM125 63h250v645h-250v-645z" />
    <glyph glyph-name=".null" horiz-adv-x="0" 
 />
    <glyph glyph-name="nonmarkingreturn" horiz-adv-x="250" 
 />
    <glyph glyph-name="space" unicode=" " horiz-adv-x="250" 
 />
    <glyph glyph-name="exclam" unicode="!" horiz-adv-x="288" 
d="M108 197l-4 470h81l-4 -470h-73zM93 0v112h101v-112h-101z" />
    <glyph glyph-name="quotedbl" unicode="&#x22;" horiz-adv-x="336" 
d="M117 400h-56l-11 267h78zM276 400h-57l-10 267h78z" />
    <glyph glyph-name="numbersign" unicode="#" horiz-adv-x="907" 
d="M357 488h242l29 179h64l-29 -179h146l-10 -61h-145l-29 -179h146l-10 -65h-146l-29 -183h-64l29 183h-242l-29 -183h-62l29 183h-150l10 65h150l29 179h-150l9 61h150l29 179h62zM319 248h242l29 179h-242z" />
    <glyph glyph-name="dollar" unicode="$" horiz-adv-x="907" 
d="M479 599v-224l97 -2q99 -2 133.5 -7.5t63.5 -22.5q71 -42 71 -148q0 -114 -67 -157q-59 -38 -213 -38h-85v-67h-64v67h-94q-147 0 -202 40t-55 146q0 15 1 26h83v-16q0 -45 6 -64q10 -30 41 -45q41 -19 157 -19h63v238l-82 2q-88 2 -107 4q-25 1 -53 9q-102 28 -102 168
q0 119 77 156q46 22 187 22h80v73h64v-73h94q80 0 105 -3q61 -7 97 -35q56 -43 52 -142q0 -2 -1 -9h-79q0 41 -3 57q-7 32 -30 47q-20 12 -60 15q-24 2 -82 2h-93zM415 599h-76q-112 0 -149.5 -22t-37.5 -88q0 -69 35 -92q16 -11 39 -14t107 -5l82 -2v223zM479 68h106
q104 0 147 35q31 25 31 86q0 74 -41 94q-35 18 -146 20l-97 2v-237z" />
    <glyph glyph-name="percent" unicode="%" horiz-adv-x="1437" 
d="M375 -5l585 676h99l-585 -676h-99zM335 692q158 0 209 -40q34 -27 47 -69t13 -128q0 -82 -13 -123.5t-47 -68.5q-50 -40 -209 -40q-157 0 -208 40q-34 27 -47 68.5t-13 126.5q0 84 13 125.5t47 68.5q51 40 208 40zM336 629q-61 0 -85 -3q-53 -7 -77 -31q-33 -33 -33 -137
q0 -56 5 -80q9 -47 39 -68q34 -24 151 -24q61 0 85 3q53 7 77 31q32 33 32 135q0 57 -5 81q-9 47 -39 69q-34 24 -150 24zM1102 452q158 0 209 -40q34 -27 47 -69t13 -128q0 -82 -13 -123.5t-47 -68.5q-50 -40 -209 -40q-157 0 -208 40q-34 27 -47 68.5t-13 126.5
q0 84 13 125.5t47 68.5q51 40 208 40zM1103 389q-61 0 -85 -3q-53 -7 -77 -31q-33 -33 -33 -137q0 -56 5 -80q9 -47 39 -68q34 -24 151 -24q61 0 85 3q53 7 77 31q32 33 32 135q0 57 -5 81q-9 47 -39 69q-34 24 -150 24z" />
    <glyph glyph-name="ampersand" unicode="&#x26;" horiz-adv-x="999" 
d="M978 2l-139 72q-25 -43 -84 -58t-205 -15q-159 0 -188 1q-141 4 -186 23q-96 40 -96 185q0 101 37 142t131 45q-48 30 -64.5 56.5t-16.5 71.5q0 90 59 125q40 24 163 24q210 0 270 -6t95 -31q52 -37 52 -150v-14h-85q0 66 -10 87q-12 27 -56 35q-34 6 -141 6
q-185 0 -209 -4q-55 -9 -55 -76q0 -36 17.5 -55t81.5 -53l438 -231q6 26 6 63q0 23 -3 80h86q2 -24 2 -58q0 -67 -13 -126l134 -70zM762 115l-460 242q-81 -4 -109 -34.5t-28 -120.5q0 -76 33 -100q45 -33 280 -33q256 0 284 46z" />
    <glyph glyph-name="quotesingle" unicode="'" horiz-adv-x="178" 
d="M118 400h-57l-11 267h78z" />
    <glyph glyph-name="parenleft" unicode="(" horiz-adv-x="348" 
d="M321 689v-66q-65 0 -75 -1q-46 -5 -66.5 -28.5t-24 -70t-3.5 -286.5t3.5 -287t24 -70.5t66.5 -28.5q10 -1 75 -1v-66q-79 0 -104 3q-61 9 -92 42q-35 38 -42 120q-3 37 -3 288q0 223 1.5 268.5t11.5 81.5q20 73 92 92q39 10 136 10z" />
    <glyph glyph-name="parenright" unicode=")" horiz-adv-x="348" 
d="M27 -216v66q65 0 75 1q46 5 66.5 28.5t24 70.5t3.5 287q0 239 -3.5 286t-24 70.5t-66.5 28.5q-10 1 -75 1v66q79 0 104 -3q61 -9 92 -42q35 -38 42 -120q3 -37 3 -287q0 -223 -1.5 -269t-11.5 -82q-20 -74 -92 -92q-41 -10 -136 -10z" />
    <glyph glyph-name="asterisk" unicode="*" horiz-adv-x="678" 
d="M367 767v-145l212 69l18 -58l-205 -66l119 -138l-46 -42l-126 145l-127 -145l-46 42l119 138l-205 66l18 58l212 -69v145h57z" />
    <glyph glyph-name="plus" unicode="+" horiz-adv-x="840" 
d="M449 372h285v-59h-285v-273h-60v273h-284v59h284v268h60v-268z" />
    <glyph glyph-name="comma" unicode="," horiz-adv-x="288" 
d="M93 112h102v-112q0 -105 -114 -108v54q48 0 48 51v3h-36v112z" />
    <glyph glyph-name="hyphen" unicode="-" horiz-adv-x="333" 
d="M0 297h333v-67h-333v67z" />
    <glyph glyph-name="hyphen" unicode="&#x2010;" horiz-adv-x="333" 
d="M0 297h333v-67h-333v67z" />
    <glyph glyph-name="period" unicode="." horiz-adv-x="288" 
d="M93 0v112h101v-112h-101z" />
    <glyph glyph-name="slash" unicode="/" horiz-adv-x="738" 
d="M615 671h92l-749 -864h-92z" />
    <glyph glyph-name="zero" unicode="0" horiz-adv-x="907" 
d="M453 674q156 0 181 -2q117 -11 158 -59q36 -43 45 -137q3 -30 3 -148q0 -109 -3 -142q-10 -91 -45 -132q-41 -48 -158 -59q-24 -2 -181 -2q-155 0 -180 2q-117 11 -158 59q-36 43 -45 135q-3 30 -3 145t3 145q9 91 45 134q41 48 158 59q25 2 180 2zM430 606
q-154 0 -198 -11q-59 -15 -75 -71q-11 -42 -11 -190t11 -190q16 -57 75 -72q44 -11 198 -11h161q108 7 138 42q24 29 30 111q2 23 2 117q0 99 -1 120q-6 84 -31 113q-30 35 -138 42h-161z" />
    <glyph glyph-name="one" unicode="1" horiz-adv-x="907" 
d="M235 398l-47 52l276 217h107v-667h-77v610z" />
    <glyph glyph-name="two" unicode="2" horiz-adv-x="907" 
d="M169 420h-78q0 89 7 121q20 90 108 115q65 18 248 18q119 0 158 -3q109 -9 151 -41q60 -46 60 -164q0 -130 -67 -172q-41 -26 -167 -35l-246 -18q-119 -9 -149 -37.5t-31 -135.5h661v-68h-742v32q0 164 43 216t188 63l247 19q117 9 149.5 32t32.5 98q0 69 -17 96
q-20 31 -81 41q-53 9 -189 9q-135 0 -188 -10q-61 -11 -81 -46q-17 -30 -17 -107v-23z" />
    <glyph glyph-name="three" unicode="3" horiz-adv-x="907" 
d="M354 374h257q69 0 94.5 25t25.5 93q0 83 -45 100q-36 14 -195 14q-142 0 -156 -1q-110 -4 -144.5 -26.5t-34.5 -116.5h-78q0 81 12 112q26 67 115 86q65 14 264 14q122 0 151 -2q98 -7 142 -38q50 -35 50 -148q0 -76 -22 -104.5t-87 -36.5q53 -7 79 -29q38 -33 38 -125
q0 -74 -16.5 -112.5t-58.5 -59.5q-37 -19 -126 -23q-19 -1 -133 -1q-181 0 -196 1q-133 8 -174 47q-25 24 -34 58t-9 103h79q0 -49 3 -65q6 -36 31 -53q35 -24 249 -24q226 0 261 17q28 14 37 45q6 19 6 61q0 48 -6 68q-10 36 -44 47q-19 6 -73 6h-262v68z" />
    <glyph glyph-name="four" unicode="4" horiz-adv-x="907" 
d="M82 146v105l537 416h111v-453h108v-68h-108v-146h-77v146h-571zM145 214h501v394z" />
    <glyph glyph-name="five" unicode="5" horiz-adv-x="907" 
d="M86 203h77v-12q0 -61 17 -85q20 -28 79 -37q51 -8 180 -8q114 0 132 1q90 4 129 21q31 14 41.5 44.5t10.5 104.5q0 64 -13.5 94t-48.5 43q-45 17 -257 17q-149 0 -199 -12.5t-57 -52.5h-80l8 346h708v-68h-635l-3 -228q25 60 86 73q42 10 180 10q137 0 166 -2
q107 -6 157 -35q42 -24 58 -71q11 -32 11 -108q0 -93 -13 -138t-47 -67q-46 -30 -141 -38q-32 -2 -148 -2q-254 0 -303 17q-72 25 -89 96q-6 25 -6 97z" />
    <glyph glyph-name="six" unicode="6" horiz-adv-x="907" 
d="M815 477h-84v12q0 48 -11 69q-14 27 -54.5 37.5t-178.5 10.5q-120 0 -141 -1q-95 -5 -133 -28q-26 -15 -35.5 -44t-9.5 -89v-146q21 58 56 75.5t128 20.5q15 1 128 1q190 0 246 -17q45 -14 71 -52q22 -32 22 -116q0 -124 -49 -167q-43 -38 -142 -47q-31 -3 -155 -3h-134
q-88 2 -131 15q-86 25 -108 114q-13 53 -13 214q0 153 13 209t58 87.5t159 39.5q29 2 169 2q139 0 197.5 -12t92.5 -49q22 -23 29.5 -51t9.5 -85zM450 327q-189 0 -231 -22q-49 -26 -49 -112q0 -54 16.5 -81t56.5 -38q47 -13 225 -13q127 0 177 9q58 10 77 42q16 27 16 96
q0 62 -14 82q-17 24 -77 31q-48 6 -197 6z" />
    <glyph glyph-name="seven" unicode="7" horiz-adv-x="907" 
d="M64 667h752v-97l-499 -570h-105l525 599h-673v68z" />
    <glyph glyph-name="eight" unicode="8" horiz-adv-x="907" 
d="M702 339q74 -8 98 -38.5t24 -115.5q0 -69 -15 -105.5t-53 -59t-145 -26.5q-14 -1 -158 -1q-174 0 -227.5 5.5t-85.5 28t-45 57.5t-13 101q0 85 24.5 115.5t98.5 38.5q-56 12 -75 28q-41 33 -41 125q0 82 24 117q36 53 159 59q128 6 181 6q212 0 282 -22q53 -17 72 -71
q10 -29 10 -89q0 -99 -47 -130q-18 -12 -68 -23zM453 606q-173 0 -224 -11q-33 -7 -46.5 -30t-13.5 -70q0 -82 32 -100q28 -15 120 -19h128h132q95 3 125.5 19.5t30.5 99.5q0 47 -13.5 70t-46.5 30q-51 11 -224 11zM456 310q-115 0 -133 -1q-96 -3 -125 -20q-35 -20 -35 -98
q0 -64 16 -87q19 -27 81 -36q51 -7 193 -7t193 7q62 9 81 36q16 23 16 87q0 78 -36 98.5t-251 20.5z" />
    <glyph glyph-name="nine" unicode="9" horiz-adv-x="907" 
d="M91 190h84v-12q0 -48 11 -69q14 -27 54.5 -37.5t178.5 -10.5q120 0 141 1q95 5 133 28q26 15 35.5 44t9.5 89v146q-21 -58 -56 -75.5t-128 -20.5q-15 -1 -128 -1q-190 0 -246 17q-45 14 -71 52q-22 32 -22 116q0 124 49 167q43 38 142 47q31 3 155 3h134q88 -2 131 -15
q86 -25 108 -114q13 -53 13 -214q0 -153 -13 -209t-58 -87.5t-159 -39.5q-29 -2 -169 -2q-139 0 -197.5 12t-92.5 49q-22 23 -29.5 51t-9.5 85zM438 606q-127 0 -177 -9q-58 -10 -77 -42q-16 -27 -16 -96q0 -62 14 -82q17 -24 77 -31q48 -6 197 -6q189 0 231 22
q49 26 49 112q0 53 -16.5 80.5t-56.5 38.5q-47 13 -225 13z" />
    <glyph glyph-name="colon" unicode=":" horiz-adv-x="288" 
d="M93 0v112h101v-112h-101zM93 361v112h101v-112h-101z" />
    <glyph glyph-name="semicolon" unicode=";" horiz-adv-x="288" 
d="M93 112h102v-112q0 -105 -114 -108v54q48 0 48 51v3h-36v112zM93 361v112h101v-112h-101z" />
    <glyph glyph-name="less" unicode="&#x3c;" 
d="M466 570v-71l-356 -162l356 -163v-71l-433 203v62z" />
    <glyph glyph-name="equal" unicode="=" horiz-adv-x="840" 
d="M116 423h609v-57h-609v57zM116 316h609v-57h-609v57z" />
    <glyph glyph-name="greater" unicode="&#x3e;" 
d="M34 103v71l356 163l-356 162v71l433 -203v-62z" />
    <glyph glyph-name="question" unicode="?" horiz-adv-x="753" 
d="M294 213v14q0 72 44 101q23 15 43 20q24 6 116 20q67 10 89.5 32.5t22.5 81.5q0 61 -14 84q-17 28 -70 36q-45 8 -163 8q-84 0 -105 -2q-74 -5 -99 -27q-17 -15 -20.5 -34t-3.5 -93h-77v42q0 56 5 78q10 38 42 63q37 29 122 35q24 2 134 2q106 0 132 -2q85 -6 126 -31
q37 -22 51.5 -59t14.5 -106q0 -112 -74 -149q-28 -14 -171 -38q-43 -7 -57 -22t-13 -54h-75zM281 0v112h101v-112h-101z" />
    <glyph glyph-name="at" unicode="@" horiz-adv-x="938" 
d="M809 69h60q-9 -73 -69 -108q-44 -26 -161 -32q-27 -1 -168 -1q-171 0 -198 2q-128 12 -174 65q-39 45 -49 146q-3 34 -3 159t3 159q10 101 49 146q46 53 173 65q27 2 197 2t197 -2q127 -12 173 -65q29 -34 41 -94.5t12 -176.5q0 -136 -20 -175q-15 -29 -42.5 -39
t-92.5 -10q-66 0 -83 4q-47 10 -53 53q-26 -36 -62 -48.5t-117 -12.5q-116 0 -157 23.5t-41 90.5q0 38 10.5 91.5t23.5 83.5q26 58 73.5 78.5t156.5 20.5q82 0 115 -12.5t45 -48.5l10 56h62l-46 -258q-3 -17 -3 -32q0 -25 27 -31q11 -3 47 -3q57 0 69 26q14 30 14 152
q0 183 -36 227q-31 38 -152 46q-18 1 -171 1q-155 0 -172 -1q-120 -8 -151 -46q-27 -33 -34 -132q-2 -29 -2 -138t2 -138q7 -99 34 -132q30 -36 119 -43q51 -4 205 -4q151 0 199.5 2.5t78.5 12.5q47 15 61 71zM485 439q-95 0 -126.5 -13.5t-47.5 -60.5q-23 -68 -23 -131
q0 -56 51 -69q17 -4 99 -4q89 0 121 14t49 61q23 64 23 128q0 41 -18 56q-23 19 -128 19z" />
    <glyph glyph-name="A" unicode="A" horiz-adv-x="859" 
d="M703 150h-546l-88 -150h-89l393 667h113l393 -667h-88zM665 213l-235 398l-235 -398h470z" />
    <glyph glyph-name="B" unicode="B" horiz-adv-x="931" 
d="M93 0v667h534q62 0 89 -4q52 -8 81 -35q47 -43 47 -136q0 -74 -26 -102.5t-102 -37.5q80 -5 109 -27q43 -33 43 -130q0 -103 -49.5 -149t-161.5 -46h-564zM173 380h398q127 0 155 17q35 22 35 91q0 64 -30.5 88t-112.5 24h-445v-220zM173 67h448q99 0 131.5 25t32.5 102
t-34.5 100t-147.5 23h-430v-250z" />
    <glyph glyph-name="C" unicode="C" horiz-adv-x="937" 
d="M792 224h78v-28q0 -56 -5 -83q-9 -44 -38 -71q-34 -34 -110 -42q-69 -7 -242 -7q-151 0 -184 3q-119 11 -165 58q-40 41 -50 133q-3 31 -3 146q0 155 16 213.5t66 90.5q47 30 183 36q24 1 198 1q103 0 136 -3q91 -7 130 -34.5t52 -81.5q8 -31 10 -98h-78v17q0 63 -18 86
q-21 28 -86 37q-56 7 -204 7q-177 0 -226 -10q-67 -15 -84 -71q-12 -41 -12 -190q0 -93 2 -118q7 -84 33 -111q31 -32 130 -39q23 -2 140 -2q160 0 219 7q70 8 93 34q19 23 19 82v38z" />
    <glyph glyph-name="D" unicode="D" horiz-adv-x="990" 
d="M93 0v667h519q110 0 170 -22.5t91 -74.5q44 -75 44 -237q0 -161 -44 -236q-31 -52 -91 -74.5t-170 -22.5h-519zM173 67h445q142 0 182 65q34 55 34 198q0 154 -36 210q-39 60 -186 60h-439v-533z" />
    <glyph glyph-name="E" unicode="E" horiz-adv-x="819" 
d="M93 0v667h664v-67h-584v-223h563v-63h-563v-247h589v-67h-669z" />
    <glyph glyph-name="F" unicode="F" horiz-adv-x="768" 
d="M93 0v667h638v-67h-558v-230h529v-63h-529v-307h-80z" />
    <glyph glyph-name="G" unicode="G" horiz-adv-x="982" 
d="M477 329h435q0 -108 -4 -151q-12 -127 -95 -162q-43 -18 -153 -22q-21 -1 -154 -1q-178 0 -202 2q-131 10 -178 59q-40 41 -50 133q-3 32 -3 146q0 115 3 147q10 92 50 133q48 50 188 60q17 1 216 1q128 0 158 -2q104 -7 149 -38q64 -43 68 -163h-79q-2 77 -25.5 99
t-65 28t-177.5 6q-167 0 -185 -1q-137 -5 -170 -29q-36 -26 -45 -113q-2 -24 -2 -128q0 -90 2 -118q7 -84 33 -111q31 -32 134 -39q22 -2 147 -2q195 0 249 7t80 35q19 20 25 49t8 108h-357v67z" />
    <glyph glyph-name="H" unicode="H" horiz-adv-x="972" 
d="M93 0v667h80v-292h625v292h80v-667h-80v312h-625v-312h-80z" />
    <glyph glyph-name="I" unicode="I" horiz-adv-x="267" 
d="M93 0v667h80v-667h-80z" />
    <glyph glyph-name="J" unicode="J" horiz-adv-x="740" 
d="M574 667h80v-435q0 -70 -5 -100q-10 -56 -42 -89q-28 -29 -81 -39.5t-171 -10.5q-132 0 -193 10.5t-92.5 39.5t-39.5 82q-3 22 -3 94v26h78v-47q0 -59 11.5 -83.5t43.5 -35.5q49 -16 190 -16q133 0 176 22q28 14 38 50t10 122v410z" />
    <glyph glyph-name="K" unicode="K" horiz-adv-x="870" 
d="M93 0v667h80v-291h121l436 291h135l-487 -323l512 -344h-134l-464 313h-119v-313h-80z" />
    <glyph glyph-name="L" unicode="L" horiz-adv-x="722" 
d="M93 0v667h80v-600h529v-67h-609z" />
    <glyph glyph-name="M" unicode="M" horiz-adv-x="1246" 
d="M93 0v667h129l402 -574l403 574h125v-667h-80v601l-420 -601h-59l-420 601v-601h-80z" />
    <glyph glyph-name="N" unicode="N" horiz-adv-x="1026" 
d="M93 0v667h129l630 -610v610h80v-667h-129l-630 610v-610h-80z" />
    <glyph glyph-name="O" unicode="O" horiz-adv-x="1005" 
d="M506 674q169 0 197 -2q128 -11 175 -59q40 -41 50 -133q3 -32 3 -147q0 -114 -3 -146q-10 -92 -50 -133q-48 -49 -177 -59q-24 -2 -199 -2t-199 2q-129 10 -177 59q-40 41 -50 133q-3 32 -3 146t3 147q10 92 50 133q47 49 178 59q25 2 202 2zM506 604q-143 0 -164 -1
q-121 -7 -151 -40q-26 -28 -33 -112q-2 -28 -2 -118t2 -118q7 -84 33 -111q32 -33 146 -40q16 -1 165 -1t165 1q114 7 146 40q26 27 33 111q2 27 2 118q0 151 -13 191q-17 56 -88 70q-51 10 -241 10z" />
    <glyph glyph-name="P" unicode="P" horiz-adv-x="896" 
d="M93 0v667h538q66 0 94 -5q55 -9 84 -39q40 -42 40 -153q0 -73 -11.5 -110t-41.5 -61q-47 -37 -147 -37h-476v-262h-80zM173 329h417q107 0 141.5 26.5t34.5 109.5q0 81 -32 108t-128 27h-433v-271z" />
    <glyph glyph-name="Q" unicode="Q" horiz-adv-x="1005" 
d="M977 84l-34 -65l-61 39q-49 -52 -178 -63q-24 -2 -202 -2q-171 0 -199 2q-130 11 -177 59q-40 41 -50 133q-3 32 -3 147q0 114 3 146q10 93 50 133q48 49 177 59q24 2 199 2q172 0 199 -2q130 -11 177 -59q40 -41 49 -133q4 -32 4 -146q0 -154 -15 -210zM539 279l40 62
l262 -169q7 50 7 163q0 90 -2 117q-7 83 -33 111q-30 32 -149 40q-22 1 -162 1t-162 -1q-119 -8 -149 -40q-26 -28 -33 -112q-2 -28 -2 -118t2 -118q7 -84 33 -111q31 -33 143 -40q18 -1 161 -1q184 0 236 6.5t81 33.5z" />
    <glyph glyph-name="R" unicode="R" horiz-adv-x="946" 
d="M93 0v667h550q76 0 116.5 -11t66.5 -40q41 -45 41 -153q0 -112 -53 -142q-29 -17 -97 -23q58 -7 83 -20q54 -29 54 -105v-173h-80v127q0 49 -5 70q-9 39 -37 55.5t-101 16.5h-458v-269h-80zM173 332h439q103 0 137.5 27t34.5 108q0 79 -35.5 106t-141.5 27h-434v-268z
" />
    <glyph glyph-name="S" unicode="S" horiz-adv-x="894" 
d="M67 208h80v-18q0 -50 12.5 -73.5t44.5 -34.5q58 -19 233 -19q195 0 251.5 24t56.5 107q0 77 -62 94q-32 9 -77 11q-40 1 -269 3q-77 1 -110 4q-67 8 -104 33q-56 37 -56 130q0 146 115 180q84 25 282 25q215 0 279 -40q41 -26 56 -69q9 -28 11 -89h-78q-1 70 -32 94
q-44 34 -235 34q-197 0 -255.5 -24t-58.5 -104q0 -66 41 -85q47 -22 167 -22q382 1 214 4q123 -2 179 -29q76 -37 76 -154q0 -135 -97 -171q-70 -26 -279 -26q-220 0 -292 25q-93 32 -93 144v46z" />
    <glyph glyph-name="T" unicode="T" horiz-adv-x="744" 
d="M332 0v600h-339v67h757v-67h-338v-600h-80z" />
    <glyph glyph-name="U" unicode="U" horiz-adv-x="959" 
d="M793 667h80v-453q0 -90 -10 -118q-23 -63 -97 -83t-286 -20q-172 0 -245 11t-106.5 43t-39.5 89q-2 18 -2 78v453h80v-439q0 -68 4 -84q13 -52 67.5 -66.5t241.5 -14.5q131 0 154 2q113 8 139 43q13 18 16.5 37.5t3.5 82.5v439z" />
    <glyph glyph-name="V" unicode="V" horiz-adv-x="810" 
d="M-20 667h90l335 -608l336 608h89l-369 -667h-112z" />
    <glyph glyph-name="W" unicode="W" horiz-adv-x="1370" 
d="M-7 667h88l277 -594l281 594h94l281 -594l278 594h84l-315 -667h-98l-278 589l-279 -589h-98z" />
    <glyph glyph-name="X" unicode="X" horiz-adv-x="846" 
d="M-13 0l369 354l-336 313h111l292 -274l293 274h111l-336 -313l369 -354h-110l-327 315l-326 -315h-110z" />
    <glyph glyph-name="Y" unicode="Y" horiz-adv-x="814" 
d="M407 346l317 321h110l-387 -387v-280h-80v280l-387 387h110z" />
    <glyph glyph-name="Z" unicode="Z" horiz-adv-x="832" 
d="M27 0v67l644 533h-617v67h734v-67l-644 -533h655v-67h-772z" />
    <glyph glyph-name="bracketleft" unicode="[" horiz-adv-x="309" 
d="M282 683v-61h-131v-771h131v-61h-202v893h202z" />
    <glyph glyph-name="backslash" unicode="\" horiz-adv-x="738" 
d="M122 671l749 -864h-92l-749 864h92z" />
    <glyph glyph-name="bracketright" unicode="]" horiz-adv-x="309" 
d="M27 -210v61h131v771h-131v61h202v-893h-202z" />
    <glyph glyph-name="asciicircum" unicode="^" 
d="M104 366h-78l177 303h95l177 -303h-78l-147 246z" />
    <glyph glyph-name="underscore" unicode="_" 
d="M0 -66h500v-66h-500v66z" />
    <glyph glyph-name="grave" unicode="`" 
d="M316 543l-210 57l23 67l198 -84z" />
    <glyph glyph-name="a" unicode="a" horiz-adv-x="716" 
d="M158 336h-76q1 58 22.5 89.5t73.5 43.5q44 11 160 11q114 0 149 -5q96 -13 128 -61q21 -33 21 -122v-292h-71v64q-18 -45 -59 -58t-163 -13q-98 0 -121 2q-82 5 -114 28q-48 34 -48 118q0 92 49.5 118.5t221.5 26.5q108 0 131 -3q79 -12 103 -62v50q0 73 -12 100
q-15 31 -63 41q-39 8 -150 8q-118 0 -149.5 -14.5t-32.5 -69.5zM352 226q-140 0 -179.5 -16t-39.5 -72q0 -63 53 -76q36 -9 159 -9q126 0 164 13q57 19 57 78q0 46 -39 66q-31 16 -175 16z" />
    <glyph glyph-name="b" unicode="b" horiz-adv-x="758" 
d="M80 0v673h71v-270q23 44 73 60.5t164 16.5q191 0 245 -47q58 -51 58 -196q0 -146 -58 -197q-54 -47 -245 -47q-114 0 -164.5 16.5t-72.5 60.5v-70h-71zM383 420q-79 0 -107 -3q-73 -9 -97 -39q-29 -36 -29 -139q0 -122 40 -154t192 -32q78 0 107 3q73 9 97 39
q30 37 30 142q0 114 -36.5 148.5t-196.5 34.5z" />
    <glyph glyph-name="c" unicode="c" horiz-adv-x="713" 
d="M583 173h77q-4 -79 -36 -118q-29 -35 -86 -48.5t-176 -13.5q-189 0 -239 47q-56 52 -56 197q0 144 56 196q50 47 238 47q192 0 242 -46t50 -117v-10h-78v10q0 53 -39 78t-182 25q-75 0 -98 -3q-61 -8 -86 -40q-28 -36 -28 -140q0 -114 35 -149q26 -26 89 -33q21 -2 98 -2
q85 0 110 3q68 10 93 47q15 22 16 70z" />
    <glyph glyph-name="d" unicode="d" horiz-adv-x="758" 
d="M678 0h-71v70q-22 -44 -72.5 -60.5t-164.5 -16.5q-191 0 -245 47q-58 51 -58 197q0 145 58 196q54 47 245 47q114 0 164 -16.5t73 -60.5v270h71v-673zM376 420q-78 0 -107 -3q-73 -9 -97 -39q-30 -37 -30 -141q0 -116 37 -150t196 -34q78 0 107 3q73 9 97 39
q29 37 29 139q0 122 -40 154t-192 32z" />
    <glyph glyph-name="e" unicode="e" horiz-adv-x="729" 
d="M666 223h-524q0 -51 3 -69q5 -38 27 -61q28 -30 94 -38q22 -2 106 -2q126 0 169 17.5t51 71.5h73q-4 -60 -40 -95q-30 -30 -87.5 -42t-169.5 -12q-189 0 -243 47q-58 51 -58 196q0 146 58 197q54 47 242 47q119 0 176 -15t86 -55q38 -53 37 -187zM142 281h449
q-1 52 -14 76q-20 38 -61 50.5t-149 12.5t-149.5 -12.5t-61.5 -50.5q-13 -24 -14 -76z" />
    <glyph glyph-name="f" unicode="f" horiz-adv-x="390" 
d="M103 0v413h-103v60h103v37q0 115 69 147q47 22 175 22h63v-60h-48q-119 0 -151 -19q-37 -22 -37 -87v-40h236v-60h-236v-413h-71z" />
    <glyph glyph-name="g" unicode="g" horiz-adv-x="758" 
d="M678 473v-427q0 -99 -12 -146t-45 -76q-53 -47 -246 -47q-185 0 -241 42t-56 120v10h72l1 -10q5 -47 31 -70.5t95 -29.5q22 -2 102 -2q111 0 152.5 12t58 49t17.5 172q-26 -46 -74 -61.5t-163 -15.5q-191 0 -245 47q-58 51 -58 197q0 145 58 196q54 47 245 47
q115 0 163 -15.5t74 -61.5v70h71zM372 420q-86 0 -109 -3q-69 -7 -96 -40q-30 -36 -30 -140q0 -114 37 -149q27 -26 94 -33q24 -2 102 -2q84 0 107 3q69 8 96 40q30 36 30 139q0 116 -37 151q-27 25 -93 32q-23 2 -101 2z" />
    <glyph glyph-name="h" unicode="h" horiz-adv-x="727" 
d="M80 0v673h71v-294q15 49 56 72q49 28 196 28q140 0 192 -37.5t52 -143.5v-298h-71v294q0 76 -37.5 100t-156.5 24q-127 0 -179 -31.5t-52 -108.5v-278h-71z" />
    <glyph glyph-name="i" unicode="i" horiz-adv-x="231" 
d="M80 0v473h71v-473h-71zM80 586v87h71v-87h-71z" />
    <glyph glyph-name="j" unicode="j" horiz-adv-x="231" 
d="M80 473h71v-497q0 -67 -15 -96q-26 -51 -121 -51q-11 0 -19 1v60q7 -1 17 -1q40 0 53.5 20t13.5 81v483zM80 586v87h71v-87h-71z" />
    <glyph glyph-name="k" unicode="k" horiz-adv-x="629" 
d="M80 0v673h71v-390h41l298 190h119l-345 -220l378 -253h-117l-333 223h-41v-223h-71z" />
    <glyph glyph-name="l" unicode="l" horiz-adv-x="231" 
d="M80 0v673h71v-673h-71z" />
    <glyph glyph-name="m" unicode="m" horiz-adv-x="1159" 
d="M80 0v473h71v-93q22 60 68.5 80t165.5 20q100 0 145 -21.5t63 -78.5q23 58 76.5 79t180.5 21q134 0 181.5 -38t47.5 -144v-298h-71v295q0 84 -52 109q-33 16 -126 16q-115 0 -165 -33t-50 -109v-278h-71v295q0 84 -52 109q-33 16 -126 16q-115 0 -165 -33t-50 -109v-278
h-71z" />
    <glyph glyph-name="n" unicode="n" horiz-adv-x="729" 
d="M80 0v473h71v-94q23 64 73.5 85.5t179.5 21.5q141 0 193 -39.5t52 -148.5v-298h-71v294q0 76 -37.5 100.5t-156.5 24.5q-127 0 -180 -32t-53 -109v-278h-71z" />
    <glyph glyph-name="o" unicode="o" horiz-adv-x="748" 
d="M374 480q196 0 250 -47q58 -50 58 -200q0 -142 -58 -193q-30 -26 -85.5 -36.5t-164.5 -10.5q-195 0 -249 47q-58 51 -58 197q0 145 58 196q54 47 249 47zM376 420q-78 0 -108 -3q-73 -9 -97 -39q-29 -36 -29 -141q0 -116 37 -150t196 -34q78 0 107 3q72 9 96 39
q29 37 29 140q0 117 -37 151t-194 34z" />
    <glyph glyph-name="p" unicode="p" horiz-adv-x="758" 
d="M80 473h71v-70q22 44 72.5 60.5t164.5 16.5q191 0 245 -47q58 -51 58 -197q0 -145 -58 -196q-54 -47 -245 -47q-114 0 -164 16.5t-73 60.5v-270h-71v673zM383 420q-79 0 -107 -3q-73 -9 -97 -39q-29 -36 -29 -139q0 -122 40 -154t192 -32q78 0 107 3q73 9 97 39
q30 37 30 142q0 114 -36.5 148.5t-196.5 34.5z" />
    <glyph glyph-name="q" unicode="q" horiz-adv-x="758" 
d="M678 473v-673h-71v270q-23 -44 -73 -60.5t-164 -16.5q-191 0 -245 47q-58 51 -58 196q0 146 58 197q54 47 245 47q114 0 164.5 -16.5t72.5 -60.5v70h71zM376 420q-78 0 -107 -3q-73 -9 -97 -39q-30 -37 -30 -141q0 -116 37 -150t196 -34q78 0 107 3q73 9 97 39
q29 37 29 139q0 122 -40 154t-192 32z" />
    <glyph glyph-name="r" unicode="r" horiz-adv-x="598" 
d="M80 0v473h71v-93q20 60 63 80t153 20q123 0 167 -38t44 -144v-28h-71v25q0 77 -31 101t-129 24q-107 0 -151.5 -32.5t-44.5 -109.5v-278h-71z" />
    <glyph glyph-name="s" unicode="s" horiz-adv-x="714" 
d="M566 339v11q0 44 -36.5 57t-159.5 13q-146 0 -187.5 -14.5t-41.5 -65.5q0 -44 33 -57q22 -9 182 -10q134 -1 175 -5t70 -19q52 -27 52 -112q0 -97 -64 -123q-51 -21 -235 -21q-101 0 -126 2q-85 5 -119 27q-28 18 -38.5 45t-10.5 81v12h73v-12q0 -33 3 -43q5 -22 26 -33
q37 -19 211 -19q180 0 86 -2q55 1 83 16q37 20 37 67q0 57 -41 69q-19 6 -56.5 7t-241.5 3q-111 1 -145 35q-28 28 -28 92q0 86 54.5 113t224.5 27q103 0 129 -2q87 -6 124.5 -33t37.5 -98v-8h-71z" />
    <glyph glyph-name="t" unicode="t" horiz-adv-x="544" 
d="M-7 413v60h114l2 105h71l-1 -105h324v-60h-326l-4 -245q0 -73 28 -94t123 -21q92 0 114 36q12 19 12 100v16h64v-19q0 -59 -2 -75q-4 -46 -23 -69q-39 -49 -170 -49q-134 0 -179 40q-26 23 -34 55q-5 20 -5 66v22l5 237h-113z" />
    <glyph glyph-name="u" unicode="u" horiz-adv-x="729" 
d="M649 473v-473h-71v94q-23 -64 -73.5 -85.5t-179.5 -21.5q-141 0 -193 39.5t-52 148.5v298h71v-294q0 -76 37.5 -100.5t156.5 -24.5q127 0 180 32t53 109v278h71z" />
    <glyph glyph-name="v" unicode="v" horiz-adv-x="607" 
d="M-20 473h81l243 -424l243 424h80l-272 -473h-103z" />
    <glyph glyph-name="w" unicode="w" horiz-adv-x="943" 
d="M0 473h78l185 -418l156 418h108l156 -418l185 418h75l-211 -473h-101l-159 423l-160 -423h-100z" />
    <glyph glyph-name="x" unicode="x" horiz-adv-x="622" 
d="M-7 0l265 248l-230 225h93l190 -186l190 186h93l-230 -225l264 -248h-95l-222 209l-223 -209h-95z" />
    <glyph glyph-name="y" unicode="y" horiz-adv-x="567" 
d="M-17 473h78l235 -426l213 426h75l-255 -511q-60 -120 -96 -150q-50 -41 -137 -41q-16 0 -29 1v60q9 -1 23 -1q62 0 92.5 24.5t71.5 106.5l19 38h-27z" />
    <glyph glyph-name="z" unicode="z" horiz-adv-x="608" 
d="M33 0v60l430 353h-411v60h513v-60l-430 -353h432v-60h-534z" />
    <glyph glyph-name="braceleft" unicode="{" horiz-adv-x="348" 
d="M321 689v-66q-68 0 -91.5 -3t-38.5 -14q-31 -22 -38 -92q-2 -18 -2 -105v-55q0 -48 -12 -73t-44 -44q32 -19 44 -44.5t12 -73.5v-55q0 -92 2 -110q9 -71 46 -91q24 -13 122 -13v-66q-69 0 -89 2q-55 5 -85 24q-42 27 -56 85q-11 46 -11 167v53q0 73 -57 87v69
q57 15 57 87v53q0 157 23 202q33 65 128 74q26 2 90 2z" />
    <glyph glyph-name="bar" unicode="|" 
d="M214 667h72v-834h-72v834z" />
    <glyph glyph-name="braceright" unicode="}" horiz-adv-x="348" 
d="M27 -216v66q106 0 130 17q31 22 38 91q2 18 2 106v55q0 48 12 73.5t44 44.5q-32 19 -44 44t-12 73v55q0 92 -2 110q-9 71 -46 91q-24 13 -122 13v66q68 0 89 -2q54 -5 85 -24q41 -26 54 -76.5t13 -175.5v-53q0 -72 57 -87v-69q-57 -14 -57 -87v-53q0 -157 -23 -202
q-30 -59 -106 -71q-31 -5 -112 -5z" />
    <glyph glyph-name="asciitilde" unicode="~" horiz-adv-x="667" 
d="M136 583l-43 28q32 64 62 89t75 25q39 0 112 -34q69 -32 97 -32t48 15t43 53l44 -26q-28 -54 -55 -77q-40 -34 -89 -34q-33 0 -140 48q-40 18 -66 18q-49 0 -88 -73z" />
    <glyph glyph-name="dagger" unicode="&#x2020;" horiz-adv-x="789" 
d="M409 687l33 -170l-27 -63l70 26l237 -33v-25l-230 -33l-77 27l27 -70l-33 -546h-29l-33 546l27 70l-77 -27l-230 33v25l230 33l77 -26l-27 70l33 163h29z" />
    <glyph glyph-name="cent" unicode="&#xa2;" horiz-adv-x="907" 
d="M493 99v-99h-64v98q-156 4 -202 35q-71 48 -71 208q0 169 80 214q48 27 193 30v82h64v-83q136 -1 188.5 -35.5t61.5 -126.5l1 -10h-78q1 63 -35.5 86t-137.5 24v-361q105 0 142 24t38 92h78q-5 -101 -59 -139t-199 -39zM429 160v363q-109 -1 -143 -20q-52 -28 -52 -162
q0 -133 52 -161q34 -19 143 -20z" />
    <glyph glyph-name="sterling" unicode="&#xa3;" horiz-adv-x="907" 
d="M40 329h120v119q0 81 14 119.5t52 64.5q63 42 292 42q135 0 192 -10.5t86 -39.5t38 -77q4 -25 4 -86h-81q-1 77 -11 100q-14 31 -64 39q-38 6 -166 6q-180 0 -229.5 -28.5t-49.5 -132.5v-116h336v-68h-336v-73q0 -49 -11 -73.5t-44 -46.5h684v-68h-792v68q49 5 67.5 32
t18.5 95v66h-120v68z" />
    <glyph glyph-name="section" unicode="&#xa7;" horiz-adv-x="907" 
d="M371 411l226 -16q104 -7 137 -27q57 -34 57 -139q0 -68 -20.5 -105t-66.5 -54q49 -35 49 -120q0 -113 -78 -144q-50 -19 -228 -19q-128 0 -183 11.5t-81 43.5q-22 27 -28 72q-2 19 -2 79h78v-24q0 -78 35 -96.5t184 -18.5q152 0 187.5 16t35.5 86q0 53 -24 69t-113 22
l-226 16q-104 7 -137 27q-57 34 -57 139q0 68 20.5 105t66.5 54q-50 35 -50 120q0 114 78 145q50 19 228 19q129 0 183.5 -11.5t80.5 -43.5q22 -28 28 -73q2 -18 2 -79h-78q1 10 1 24q0 79 -35 97.5t-184 18.5q-153 0 -188.5 -16t-35.5 -86q0 -54 24 -70t114 -22zM334 131
l225 -16q16 -1 23 -1q86 1 107.5 21t21.5 98q0 55 -23.5 71.5t-114.5 22.5l-226 16q-4 0 -12 1h-10q-86 0 -107.5 -20.5t-21.5 -98.5q0 -55 23.5 -71.5t114.5 -22.5z" />
    <glyph glyph-name="bullet" unicode="&#x2022;" horiz-adv-x="667" 
d="M337 477q55 0 95.5 -41t40.5 -97q0 -58 -40.5 -98.5t-97.5 -40.5t-98 40.5t-41 97.5q0 58 41 98.5t100 40.5z" />
    <glyph glyph-name="paragraph" unicode="&#xb6;" horiz-adv-x="655" 
d="M304 -100v419q-89 1 -125 5.5t-60 18.5q-59 34 -59 150q0 104 45 139t199 35h258v-767h-65v713h-128v-713h-65z" />
    <glyph glyph-name="germandbls" unicode="&#xdf;" horiz-adv-x="747" 
d="M80 0v462q0 77 10 114t38 60q39 32 123 41q32 3 133 3q152 0 199 -24q51 -26 51 -110q0 -53 -19 -77t-71 -37q55 -8 88 -34q27 -22 37.5 -59.5t10.5 -114.5q0 -66 -5 -95q-10 -52 -41 -84q-51 -52 -183 -52t-181 40t-46 125l1 26h72q0 -13 1 -15q1 -39 4 -54
q7 -29 30 -44q26 -18 114 -18q102 0 130.5 33t28.5 151q0 96 -34 129t-121 33h-186v63h186q59 0 80 15.5t21 58.5q0 67 -66 81q-15 3 -122 3q-142 0 -177 -28.5t-35 -144.5v-447h-71z" />
    <glyph glyph-name="acute" unicode="&#xb4;" 
d="M184 543l-11 40l198 84l23 -67z" />
    <glyph glyph-name="dieresis" unicode="&#xa8;" 
d="M64 561v64h136v-64h-136zM301 561v64h136v-64h-136z" />
    <glyph glyph-name="AE" unicode="&#xc6;" horiz-adv-x="1376" 
d="M-33 0l536 667h812v-67h-571v-223h549v-63h-549v-247h575v-67h-655v146h-482l-117 -146h-98zM549 604l-316 -395h431v395h-115z" />
    <glyph glyph-name="Oslash" unicode="&#xd8;" horiz-adv-x="1005" 
d="M47 -3v79l47 30q-16 47 -20 114q-1 20 -1 116q0 113 3 145q10 92 50 132q48 49 177 59q24 2 198 2q173 0 198 -2q127 -10 176 -56l82 54v-79l-47 -30q16 -47 20 -114q1 -22 1 -116q0 -113 -3 -145q-10 -92 -50 -132q-48 -49 -177 -59q-24 -2 -198 -2q-173 0 -198 2
q-127 10 -176 56zM837 513l-638 -417q28 -22 82 -27.5t227 -5.5q144 0 162 1q112 7 143 40q26 28 33 112q2 27 2 118q0 130 -11 179zM167 154l638 417q-34 26 -149 32q-23 1 -157 1q-191 0 -241 -10q-72 -14 -89 -70q-13 -40 -13 -191q0 -130 11 -179z" />
    <glyph glyph-name="yen" unicode="&#xa5;" horiz-adv-x="907" 
d="M454 342l317 325h108l-264 -264h205v-61h-274l-54 -62v-31h328v-61h-328v-188h-77v188h-328v61h328v31l-54 62h-274v61h205l-264 264h108z" />
    <glyph glyph-name="ordfeminine" unicode="&#xaa;" horiz-adv-x="446" 
d="M108 464h-55q2 67 50 84q28 10 108 10q123 0 155 -25q29 -22 29 -90v-176h-52v24q-19 -21 -60 -26q-12 -2 -68 -2q-118 0 -144 18q-31 22 -31 73q0 57 31 73.5t137 16.5q70 0 93.5 -4.5t41.5 -21.5v12q0 58 -20 70.5t-111 12.5q-70 0 -87 -8t-17 -41zM218 399
q-68 0 -78 -2q-47 -8 -47 -45q0 -29 20.5 -36.5t104.5 -7.5q63 0 77 2q48 9 48 46q0 33 -49 41q-12 2 -76 2z" />
    <glyph glyph-name="ordmasculine" unicode="&#xba;" horiz-adv-x="466" 
d="M233 557q116 0 152.5 -28.5t36.5 -120.5q0 -85 -36 -115t-153 -30q-119 0 -154 30t-35 117q0 86 37 118q34 29 152 29zM234 512q-90 0 -113 -17t-23 -85q0 -67 23 -84.5t112 -17.5t112 17t23 84q0 68 -22.5 85.5t-111.5 17.5z" />
    <glyph glyph-name="ae" unicode="&#xe6;" horiz-adv-x="1224" 
d="M158 336h-76q1 58 22.5 89.5t73.5 43.5q44 11 160 11q169 0 217 -30q34 -21 48 -59q25 52 80 70.5t180 18.5q101 0 144 -8q88 -16 121 -67t33 -182h-525q1 -61 6.5 -86t23.5 -44q29 -30 94 -38q22 -2 106 -2q127 0 170 17.5t51 71.5h72q-4 -61 -39 -95q-30 -30 -87.5 -42
t-168.5 -12q-123 0 -176.5 17t-81.5 66q-29 -54 -86 -70q-44 -13 -178 -13q-98 0 -120 2q-82 5 -114 28q-48 34 -48 118q0 92 49.5 118t221.5 26q108 0 130 -3q80 -11 104 -61v50q0 73 -12 100q-15 31 -63 41q-39 8 -150 8q-118 0 -149.5 -14.5t-32.5 -69.5zM352 225
q-140 0 -179.5 -15.5t-39.5 -71.5q0 -63 53 -76q36 -9 159 -9q126 0 164 13q57 19 57 78q0 45 -39 65q-31 16 -175 16zM636 281h450q-1 51 -15 77q-20 37 -61 49.5t-148 12.5q-109 0 -150.5 -12.5t-60.5 -49.5q-12 -25 -15 -77z" />
    <glyph glyph-name="oslash" unicode="&#xf8;" horiz-adv-x="748" 
d="M48 56l43 28q-25 54 -25 153q0 145 58 196q30 26 86 36.5t164 10.5q113 0 168.5 -11.5t85.5 -40.5l77 50v-61l-47 -31q24 -54 24 -149q0 -146 -58 -197q-30 -26 -86 -36.5t-165 -10.5q-111 0 -165.5 11t-85.5 39l-74 -48v61zM155 125l411 264q-32 22 -92 28q-26 3 -98 3
q-89 0 -118 -4q-76 -11 -97 -53q-20 -38 -20 -129q0 -67 14 -109zM594 345l-410 -263q45 -29 187 -29q99 0 142.5 9t63.5 33q30 36 30 143q0 64 -13 107z" />
    <glyph glyph-name="questiondown" unicode="&#xbf;" horiz-adv-x="753" 
d="M460 260v-14q0 -73 -44 -102q-21 -14 -42.5 -19t-116.5 -20q-67 -10 -89.5 -33t-22.5 -82q0 -61 14 -84q17 -28 70 -36q45 -8 163 -8q84 0 105 2q74 5 99 27q17 15 20.5 34t3.5 94h77v-42q0 -56 -5 -78q-10 -38 -42 -63q-37 -29 -122 -35q-24 -2 -134 -2q-106 0 -132 2
q-86 6 -124.5 30t-53 61t-14.5 105q0 111 74 149q27 14 171 38q43 7 57 22t13 54h75zM472 473v-112h-101v112h101z" />
    <glyph glyph-name="exclamdown" unicode="&#xa1;" horiz-adv-x="288" 
d="M179 276l5 -469h-82l5 469h72zM194 473v-112h-101v112h101z" />
    <glyph glyph-name="florin" unicode="&#x192;" horiz-adv-x="907" 
d="M433 473l10 37q31 116 109 148q50 21 167 21h12l-16 -59l-12 -1q-91 1 -130.5 -21.5t-55.5 -84.5l-10 -40h172l-16 -60h-172l-118 -437q-18 -68 -41 -96q-41 -51 -137 -51q-11 0 -19 1l16 60q7 -1 17 -1q41 0 59 20t35 81l114 423h-104l16 60h104z" />
    <glyph glyph-name="guillemotleft" unicode="&#xab;" horiz-adv-x="522" 
d="M50 249l149 254l53 -36l-127 -218l127 -219l-53 -36zM263 249l149 254l54 -36l-128 -218l128 -219l-54 -36z" />
    <glyph glyph-name="guillemotright" unicode="&#xbb;" horiz-adv-x="522" 
d="M473 248l-149 -254l-54 36l128 218l-128 219l54 36zM259 248l-149 -254l-53 36l127 218l-127 219l53 36z" />
    <glyph glyph-name="ellipsis" unicode="&#x2026;" horiz-adv-x="864" 
d="M93 0v112h101v-112h-101zM381 0v112h101v-112h-101zM670 0v112h101v-112h-101z" />
    <glyph glyph-name="OE" unicode="&#x152;" horiz-adv-x="1539" 
d="M826 667h651v-67h-571v-223h549v-63h-549v-247h576v-67h-656v73q-23 -38 -55 -54q-40 -21 -136 -25q-19 -1 -140 -1q-168 0 -196 2q-126 11 -173 59q-40 41 -49 133q-4 32 -4 146t3 147q10 92 50 133q47 48 173 59q28 2 196 2q237 0 120 2q74 -1 121 -16q61 -20 90 -66
v73zM502 604q-147 0 -165 -1q-116 -7 -146 -39q-26 -28 -33 -112q-2 -28 -2 -119q0 -90 2 -118q7 -85 33 -112t77 -33.5t232 -6.5q172 0 220.5 6.5t73 33.5t30.5 112q2 26 2 118q0 93 -2 118q-6 85 -31 113q-28 32 -137 39q-15 1 -154 1z" />
    <glyph glyph-name="oe" unicode="&#x153;" horiz-adv-x="1266" 
d="M1129 142h73q-4 -60 -40 -95q-30 -30 -87.5 -42t-168.5 -12q-126 0 -182 18.5t-81 69.5q-26 -52 -82 -70t-188 -18q-194 0 -248 47q-58 51 -58 197q0 145 58 196q54 47 248 47q132 0 188 -18t82 -69q26 50 81.5 68.5t180.5 18.5q119 0 175.5 -15t85.5 -55q38 -53 37 -187
h-524q0 -51 3 -69q5 -38 27 -61q28 -30 94 -38q22 -2 106 -2q126 0 169 17.5t51 71.5zM376 420q-78 0 -108 -3q-73 -9 -97 -39q-29 -36 -29 -141q0 -115 36.5 -149.5t196.5 -34.5q77 0 107 4q72 8 96 39q29 37 29 139q0 117 -37 151t-194 34zM679 281h449q-1 52 -14 76
q-20 38 -61 50.5t-149 12.5t-149.5 -12.5t-61.5 -50.5q-13 -24 -14 -76z" />
    <glyph glyph-name="endash" unicode="&#x2013;" horiz-adv-x="907" 
d="M67 294h773v-60h-773v60z" />
    <glyph glyph-name="emdash" unicode="&#x2014;" horiz-adv-x="999" 
d="M0 290h999v-54h-999v54z" />
    <glyph glyph-name="quotedblleft" unicode="&#x201c;" horiz-adv-x="483" 
d="M194 454h-101v112q0 108 107 108h7v-53q-26 -1 -37 -12q-14 -18 -12 -40q0 -1 1 -3h35v-112zM389 446h-101v112q0 110 114 109v-54q-25 0 -38 -13t-11 -39q0 -1 1 -3h35v-112z" />
    <glyph glyph-name="quotedblright" unicode="&#x201d;" horiz-adv-x="483" 
d="M288 667h102v-112q0 -105 -114 -108v54q48 0 48 51v3h-36v112zM93 667h102v-112q0 -105 -114 -108v54q48 0 48 51v3h-36v112z" />
    <glyph glyph-name="quoteleft" unicode="&#x2018;" horiz-adv-x="288" 
d="M194 454h-101v112q0 108 107 108h7v-53q-26 -1 -37 -12q-14 -18 -12 -40q0 -1 1 -3h35v-112z" />
    <glyph glyph-name="quoteright" unicode="&#x2019;" horiz-adv-x="288" 
d="M93 673h102v-112q0 -105 -114 -108v54q48 0 48 51v3h-36v112z" />
    <glyph glyph-name="fraction" unicode="&#x2044;" horiz-adv-x="133" 
d="M-257 -5l586 676h61l-585 -676h-62z" />
    <glyph glyph-name="currency" unicode="&#xa4;" horiz-adv-x="968" 
d="M732 232h-478q3 -83 20 -113q21 -36 83 -47q52 -9 197 -9q140 0 163 1q119 7 149 39v-94q-64 -16 -295 -16q-151 0 -184 3q-120 11 -165.5 58.5t-51.5 177.5h-103l29 68h73v68h-102l29 68h74q6 129 53 177.5t184 58.5q21 2 210 2q116 0 146 -2q98 -8 138 -38l-34 -80
q-22 39 -137 48q-23 2 -156 2q-157 0 -211 -9q-67 -10 -88 -46q-18 -29 -21 -113h565l-29 -68h-538v-68h509z" />
    <glyph glyph-name="guilsinglleft" unicode="&#x2039;" horiz-adv-x="309" 
d="M50 249l149 254l53 -36l-127 -218l127 -219l-53 -36z" />
    <glyph glyph-name="guilsinglright" unicode="&#x203a;" horiz-adv-x="309" 
d="M259 248l-149 -254l-53 36l127 218l-127 219l53 36z" />
    <glyph glyph-name="fi" unicode="&#xf001;" horiz-adv-x="621" 
d="M541 473v-473h-71v413h-296v-413h-71v413h-103v60h103v37q0 115 69 147q47 22 175 22h63v-60h-48q-119 0 -151 -19q-37 -22 -37 -87v-40h367zM470 586v87h71v-87h-71z" />
    <glyph glyph-name="fl" unicode="&#xf002;" horiz-adv-x="621" 
d="M0 473h103v37q0 115 69 147q47 22 176 22h193v-679h-71v619h-108q-118 0 -150 -19q-38 -22 -38 -87v-40h223v-60h-223v-413h-71v413h-103v60z" />
    <glyph glyph-name="daggerdbl" unicode="&#x2021;" horiz-adv-x="789" 
d="M409 687l33 -170l-27 -63l70 26l237 -33v-25l-230 -33l-77 27l42 -179l-42 -180l77 27l230 -33v-25l-230 -33l-77 26l27 -70l-33 -183h-29l-33 190l27 63l-70 -26l-237 33v25l230 33l77 -27l-42 179l42 180l-77 -27l-230 33v25l230 33l77 -26l-27 70l33 163h29z" />
    <glyph glyph-name="periodcentered" unicode="&#x2219;" horiz-adv-x="261" 
d="M80 187v112h101v-112h-101z" />
    <glyph glyph-name="quotesinglbase" unicode="&#x201a;" horiz-adv-x="288" 
d="M93 112h102v-112q0 -105 -114 -108v54q48 0 48 51v3h-36v112z" />
    <glyph glyph-name="quotedblbase" unicode="&#x201e;" horiz-adv-x="483" 
d="M288 112h102v-112q0 -105 -114 -108v54q48 0 48 51v3h-36v112zM93 112h102v-112q0 -105 -114 -108v54q48 0 48 51v3h-36v112z" />
    <glyph glyph-name="perthousand" unicode="&#x2030;" horiz-adv-x="2037" 
d="M375 -5l585 676h99l-585 -676h-99zM335 692q158 0 209 -40q34 -27 47 -69t13 -128q0 -82 -13 -123.5t-47 -68.5q-50 -40 -209 -40q-157 0 -208 40q-34 27 -47 68.5t-13 126.5q0 84 13 125.5t47 68.5q51 40 208 40zM336 629q-61 0 -85 -3q-53 -7 -77 -31q-33 -33 -33 -137
q0 -56 5 -80q9 -47 39 -68q34 -24 151 -24q61 0 85 3q53 7 77 31q32 33 32 135q0 57 -5 81q-9 47 -39 69q-34 24 -150 24zM1102 452q158 0 209 -40q34 -27 47 -69t13 -128q0 -82 -13 -123.5t-47 -68.5q-50 -40 -209 -40q-157 0 -208 40q-34 27 -47 68.5t-13 126.5
q0 84 13 125.5t47 68.5q51 40 208 40zM1103 389q-61 0 -85 -3q-53 -7 -77 -31q-33 -33 -33 -137q0 -56 5 -80q9 -47 39 -68q34 -24 151 -24q61 0 85 3q53 7 77 31q32 33 32 135q0 57 -5 81q-9 47 -39 69q-34 24 -150 24zM1702 452q158 0 209 -40q34 -27 47 -69t13 -128
q0 -82 -13 -123.5t-47 -68.5q-50 -40 -209 -40q-157 0 -208 40q-34 27 -47 68.5t-13 126.5q0 84 13 125.5t47 68.5q51 40 208 40zM1703 389q-61 0 -85 -3q-53 -7 -77 -31q-33 -33 -33 -137q0 -56 5 -80q9 -47 39 -68q34 -24 151 -24q61 0 85 3q53 7 77 31q32 33 32 135
q0 57 -5 81q-9 47 -39 69q-34 24 -150 24z" />
    <glyph glyph-name="dotlessi" unicode="&#x131;" horiz-adv-x="231" 
d="M80 0v473h71v-473h-71z" />
    <glyph glyph-name="circumflex" unicode="&#x2c6;" 
d="M250 670l162 -91l-10 -40l-152 55l-153 -55l-10 40z" />
    <glyph glyph-name="tilde" unicode="&#x2dc;" 
d="M353 642h71q-17 -96 -96 -96q-20 0 -32 3.5t-67 26.5q-27 11 -43 11q-30 0 -40 -34h-71q17 96 96 96q20 0 32 -3.5t67 -26.5q27 -11 43 -11q30 0 40 34z" />
    <glyph glyph-name="macron" unicode="&#x2c9;" 
d="M65 619h370v-51h-370v51z" />
    <glyph glyph-name="breve" unicode="&#x2d8;" 
d="M79 667h62q10 -37 34.5 -52t74.5 -15q91 0 109 67h62q-20 -130 -171 -130t-171 130z" />
    <glyph glyph-name="dotaccent" unicode="&#x2d9;" 
d="M182 561v64h136v-64h-136z" />
    <glyph glyph-name="ring" unicode="&#x2da;" 
d="M250 691q62 0 98 -20.5t36 -55.5q0 -76 -136 -76q-61 0 -96.5 20.5t-35.5 55.5t36 55.5t98 20.5zM250 650q-77 0 -77 -35q0 -36 76 -36q78 0 78 36q0 35 -77 35z" />
    <glyph glyph-name="cedilla" unicode="&#xb8;" 
d="M172 -171l-27 42l148 86l36 -60z" />
    <glyph glyph-name="hungarumlaut" unicode="&#x2dd;" 
d="M323 543l-21 34l154 100l29 -51zM149 543l-20 34l154 100l28 -51z" />
    <glyph glyph-name="ogonek" unicode="&#x2db;" 
d="M321 0h40q-13 -25 -13 -52q0 -52 62 -63l-23 -64q-99 27 -99 99q0 41 33 80z" />
    <glyph glyph-name="caron" unicode="&#x2c7;" 
d="M250 539l-163 91l10 40l153 -55l152 55l10 -40z" />
    <glyph glyph-name="Lslash" unicode="&#x141;" horiz-adv-x="722" 
d="M0 156v69l93 59v383h80v-344l307 190v-69l-307 -190v-187h529v-67h-609v215z" />
    <glyph glyph-name="lslash" unicode="&#x142;" horiz-adv-x="257" 
d="M0 224v67l93 67v315h71v-279l93 67v-67l-93 -67v-327h-71v291z" />
    <glyph glyph-name="glyph152" horiz-adv-x="250" 
 />
    <glyph glyph-name="currency_2" unicode="&#xec13;" horiz-adv-x="679" 
d="M70 98l91 93q-52 65 -52 143q0 75 52 142l-94 93l35 35l93 -93q70 53 145 53q77 0 144 -53l93 92l35 -34l-93 -92q52 -69 52 -144q0 -74 -51 -142l93 -93l-34 -35l-94 93q-67 -52 -144 -52q-71 0 -145 52l-92 -93zM342 510q-74 0 -125.5 -51.5t-51.5 -125.5
q0 -72 51.5 -123.5t123.5 -51.5t123.5 51.5t51.5 123.5q0 73 -51 125t-122 52z" />
    <glyph glyph-name="Euro" unicode="&#x20ac;" horiz-adv-x="968" 
d="M732 232h-478q3 -83 20 -113q21 -36 83 -47q52 -9 197 -9q140 0 163 1q119 7 149 39v-94q-64 -16 -295 -16q-151 0 -184 3q-120 11 -165.5 58.5t-51.5 177.5h-103l29 68h73v68h-102l29 68h74q6 129 53 177.5t184 58.5q21 2 210 2q116 0 146 -2q98 -8 138 -38l-34 -80
q-22 39 -137 48q-23 2 -156 2q-157 0 -211 -9q-67 -10 -88 -46q-18 -29 -21 -113h565l-29 -68h-538v-68h509z" />
    <glyph glyph-name="sfthyphen" unicode="&#xad;" horiz-adv-x="333" 
d="M0 297h333v-67h-333v67z" />
    <glyph glyph-name="increment" unicode="&#x394;" horiz-adv-x="667" 
d="M28 0l266 667h77l268 -667h-611zM131 67h404l-202 513z" />
    <glyph glyph-name="increment" unicode="&#x2206;" horiz-adv-x="667" 
d="M28 0l266 667h77l268 -667h-611zM131 67h404l-202 513z" />
    <glyph glyph-name="Ohm" unicode="&#x2126;" horiz-adv-x="667" 
d="M28 0v65h180q-180 106 -180 298q0 136 88 228t217 92t217 -92t88 -228q0 -193 -180 -298h180v-65h-261v59q72 41 109 83q79 90 79 213q0 118 -80 198q-65 65 -151 65q-99 0 -166 -75.5t-67 -187.5q0 -191 188 -296v-59h-261z" />
    <glyph glyph-name="middot" unicode="&#xb7;" horiz-adv-x="261" 
d="M80 187v112h101v-112h-101z" />
    <glyph glyph-name="overscore" unicode="&#xaf;" 
d="M0 862h500v-65h-500v65z" />
    <glyph glyph-name="mu1" unicode="&#xb5;" horiz-adv-x="729" 
d="M80 -200v673h71v-278q0 -74 50.5 -108t162.5 -34t163 34t51 108v278h71v-473h-71v94q-21 -59 -68.5 -83t-145.5 -24q-97 0 -144.5 24t-68.5 83v-294h-71z" />
    <glyph glyph-name="Ydieresis" unicode="&#x178;" horiz-adv-x="814" 
d="M407 346l317 321h110l-387 -387v-280h-80v280l-387 387h110zM224 745v69h140v-69h-140zM469 745v69h140v-69h-140z" />
    <glyph glyph-name="lozenge" unicode="&#x25ca;" horiz-adv-x="667" 
d="M334 693l259 -359l-259 -360l-260 360zM334 604l-197 -270l197 -271l197 271z" />
    <glyph glyph-name="approxequal" unicode="&#x2248;" 
d="M53 347l-43 28q54 114 137 114q39 0 112 -34q69 -32 97 -32t48 15t43 53l44 -25q-56 -112 -144 -112q-34 0 -140 48q-40 18 -66 18q-49 0 -88 -73zM53 181l-43 28q53 115 137 115q37 0 112 -35q68 -32 97 -32q28 0 48 15t43 53l44 -25q-56 -112 -144 -112q-35 0 -140 48
q-42 19 -66 19q-49 0 -88 -74z" />
    <glyph glyph-name="approxequal" unicode="&#x22f2;" 
d="M53 347l-43 28q54 114 137 114q39 0 112 -34q69 -32 97 -32t48 15t43 53l44 -25q-56 -112 -144 -112q-34 0 -140 48q-40 18 -66 18q-49 0 -88 -73zM53 181l-43 28q53 115 137 115q37 0 112 -35q68 -32 97 -32q28 0 48 15t43 53l44 -25q-56 -112 -144 -112q-35 0 -140 48
q-42 19 -66 19q-49 0 -88 -74z" />
    <glyph glyph-name="radical" unicode="&#x221a;" horiz-adv-x="667" 
d="M667 829v-67h-197l-216 -762h-88l-83 299h-83v67h142l37 -130q4 -13 14 -64l15 -74h5q4 24 4 21l40 171q14 51 43 152l109 387h258z" />
    <glyph glyph-name="Omega" unicode="&#x3a9;" horiz-adv-x="667" 
d="M28 0v65h180q-180 106 -180 298q0 136 88 228t217 92t217 -92t88 -228q0 -193 -180 -298h180v-65h-261v59q72 41 109 83q79 90 79 213q0 118 -80 198q-65 65 -151 65q-99 0 -166 -75.5t-67 -187.5q0 -191 188 -296v-59h-261z" />
    <glyph glyph-name="integral" unicode="&#x222b;" 
d="M96 -239l15 64q24 -11 45 -11q47 0 54 45q3 19 3 76v618q0 93 9 124q21 73 114 73q28 0 67 -10l-16 -64q-26 9 -45 9q-47 0 -54 -45q-3 -18 -3 -106v-586q0 -75 -3.5 -102.5t-16.5 -46.5q-32 -48 -112 -48q-32 0 -57 10z" />
    <glyph glyph-name="pi" unicode="&#x3c0;" horiz-adv-x="579" 
d="M102 0v414h-74v65h523v-65h-73v-414h-72v414h-232v-414h-72z" />
    <glyph glyph-name="product" unicode="&#x220f;" horiz-adv-x="698" 
d="M37 750h625v-67h-80v-866h80v-67h-233v67h81v866h-322v-866h81v-67h-232v67h79v866h-79v67z" />
    <glyph glyph-name="summation" unicode="&#x2211;" horiz-adv-x="667" 
d="M597 750v-228h-65l-7 161h-417l252 -413l-252 -453h427l3 159h69v-226h-579v75l248 445l-248 407v73h569z" />
    <glyph glyph-name="partialdiff" unicode="&#x2202;" 
d="M86 607l9 64q157 -22 246 -106q128 -121 128 -320q0 -96 -41 -159q-63 -97 -177 -97q-91 0 -155.5 66.5t-64.5 159.5q0 92 60.5 156t148.5 64q87 0 147 -74l-7 16q-28 65 -55 100q-31 42 -79 72q-73 46 -160 58zM255 381q-64 0 -107.5 -49t-43.5 -121q0 -69 43 -118
t104 -49t103 50t42 123q0 71 -40 117.5t-101 46.5z" />
    <glyph glyph-name="greaterequal" unicode="&#x2265;" 
d="M33 156v69l356 157l-356 158v68l433 -196v-62zM33 60v67h433v-67h-433z" />
    <glyph glyph-name="lessequal" unicode="&#x2264;" 
d="M466 608v-68l-356 -158l356 -157v-69l-433 194v62zM466 127v-67h-433v67h433z" />
    <glyph glyph-name="infinity" unicode="&#x221e;" horiz-adv-x="667" 
d="M335 292q-74 -105 -166 -105q-67 0 -109 43.5t-42 111.5q0 66 43 109t109 43q90 0 162 -105q70 105 165 105q67 0 109 -43t42 -111q0 -67 -42 -110t-108 -43q-93 0 -163 105zM369 341q58 -93 121 -93q38 0 62.5 26t24.5 66t-25 66t-63 26q-60 0 -120 -91zM297 340
q-58 93 -121 93q-38 0 -62.5 -26t-24.5 -66t25 -66.5t63 -26.5q61 0 120 92z" />
    <glyph glyph-name="notequal" unicode="&#x2260;" horiz-adv-x="840" 
d="M501 423h224v-57h-257l-29 -50h286v-57h-319l-117 -202l-51 29l100 173h-222v57h255l29 50h-284v57h317l119 206l51 -30z" />
    <glyph glyph-name="trademark" unicode="&#x2122;" horiz-adv-x="1214" 
d="M199 285v337h-207v45h470v-45h-206v-337h-57zM507 285v382h85l243 -319l243 319h83v-382h-57v329l-250 -329h-40l-250 329v-329h-57z" />
    <glyph glyph-name="zcaron" unicode="&#x17e;" horiz-adv-x="608" 
d="M33 0v60l430 353h-411v60h513v-60l-430 -353h432v-60h-534zM319 539l-163 91l10 40l153 -55l152 55l10 -40z" />
    <glyph glyph-name="Zcaron" unicode="&#x17d;" horiz-adv-x="832" 
d="M27 0v67l644 533h-617v67h734v-67l-644 -533h655v-67h-772zM441 729l-194 80l13 42l181 -46l182 46l13 -42z" />
    <glyph glyph-name="scaron" unicode="&#x161;" horiz-adv-x="714" 
d="M566 339v11q0 44 -36.5 57t-159.5 13q-146 0 -187.5 -14.5t-41.5 -65.5q0 -44 33 -57q22 -9 182 -10q134 -1 175 -5t70 -19q52 -27 52 -112q0 -97 -64 -123q-51 -21 -235 -21q-101 0 -126 2q-85 5 -119 27q-28 18 -38.5 45t-10.5 81v12h73v-12q0 -33 3 -43q5 -22 26 -33
q37 -19 211 -19q180 0 86 -2q55 1 83 16q37 20 37 67q0 57 -41 69q-19 6 -56.5 7t-241.5 3q-111 1 -145 35q-28 28 -28 92q0 86 54.5 113t224.5 27q103 0 129 -2q87 -6 124.5 -33t37.5 -98v-8h-71zM361 539l-163 91l10 40l153 -55l152 55l10 -40z" />
    <glyph glyph-name="Scaron" unicode="&#x160;" horiz-adv-x="894" 
d="M67 208h80v-18q0 -50 12.5 -73.5t44.5 -34.5q58 -19 233 -19q195 0 251.5 24t56.5 107q0 77 -62 94q-32 9 -77 11q-40 1 -269 3q-77 1 -110 4q-67 8 -104 33q-56 37 -56 130q0 146 115 180q84 25 282 25q215 0 279 -40q41 -26 56 -69q9 -28 11 -89h-78q-1 70 -32 94
q-44 34 -235 34q-197 0 -255.5 -24t-58.5 -104q0 -66 41 -85q47 -22 167 -22q382 1 214 4q123 -2 179 -29q76 -37 76 -154q0 -135 -97 -171q-70 -26 -279 -26q-220 0 -292 25q-93 32 -93 144v46zM457 729l-194 80l13 42l181 -46l182 46l13 -42z" />
    <glyph glyph-name="ydieresis" unicode="&#xff;" horiz-adv-x="567" 
d="M-17 473h78l235 -426l213 426h75l-255 -511q-60 -120 -96 -150q-50 -41 -137 -41q-16 0 -29 1v60q9 -1 23 -1q62 0 92.5 24.5t71.5 106.5l19 38h-27zM110 561v64h136v-64h-136zM347 561v64h136v-64h-136z" />
    <glyph glyph-name="thorn" unicode="&#xfe;" horiz-adv-x="758" 
d="M80 673h71v-270q22 44 72.5 60.5t164.5 16.5q191 0 245 -47q58 -51 58 -197q0 -145 -58 -196q-54 -47 -245 -47q-114 0 -164 16.5t-73 60.5v-270h-71v873zM383 420q-79 0 -107 -3q-73 -9 -97 -39q-29 -36 -29 -139q0 -122 40 -154t192 -32q78 0 107 3q73 9 97 39
q30 37 30 142q0 114 -36.5 148.5t-196.5 34.5z" />
    <glyph glyph-name="yacute" unicode="&#xfd;" horiz-adv-x="567" 
d="M-17 473h78l235 -426l213 426h75l-255 -511q-60 -120 -96 -150q-50 -41 -137 -41q-16 0 -29 1v60q9 -1 23 -1q62 0 92.5 24.5t71.5 106.5l19 38h-27zM270 543l-11 40l198 84l23 -67z" />
    <glyph glyph-name="udieresis" unicode="&#xfc;" horiz-adv-x="729" 
d="M649 473v-473h-71v94q-23 -64 -73.5 -85.5t-179.5 -21.5q-141 0 -193 39.5t-52 148.5v298h71v-294q0 -76 37.5 -100.5t156.5 -24.5q127 0 180 32t53 109v278h71zM185 561v64h136v-64h-136zM422 561v64h136v-64h-136z" />
    <glyph glyph-name="ucircumflex" unicode="&#xfb;" horiz-adv-x="729" 
d="M649 473v-473h-71v94q-23 -64 -73.5 -85.5t-179.5 -21.5q-141 0 -193 39.5t-52 148.5v298h71v-294q0 -76 37.5 -100.5t156.5 -24.5q127 0 180 32t53 109v278h71zM375 670l162 -91l-10 -40l-152 55l-153 -55l-10 40z" />
    <glyph glyph-name="uacute" unicode="&#xfa;" horiz-adv-x="729" 
d="M649 473v-473h-71v94q-23 -64 -73.5 -85.5t-179.5 -21.5q-141 0 -193 39.5t-52 148.5v298h71v-294q0 -76 37.5 -100.5t156.5 -24.5q127 0 180 32t53 109v278h71zM331 543l-11 40l198 84l23 -67z" />
    <glyph glyph-name="ugrave" unicode="&#xf9;" horiz-adv-x="729" 
d="M649 473v-473h-71v94q-23 -64 -73.5 -85.5t-179.5 -21.5q-141 0 -193 39.5t-52 148.5v298h71v-294q0 -76 37.5 -100.5t156.5 -24.5q127 0 180 32t53 109v278h71zM411 543l-210 57l23 67l198 -84z" />
    <glyph glyph-name="divide" unicode="&#xf7;" horiz-adv-x="840" 
d="M105 370h629v-57h-629v57zM370 556h100v-109h-100v109zM369 236h100v-109h-100v109z" />
    <glyph glyph-name="odieresis" unicode="&#xf6;" horiz-adv-x="748" 
d="M374 480q196 0 250 -47q58 -50 58 -200q0 -142 -58 -193q-30 -26 -85.5 -36.5t-164.5 -10.5q-195 0 -249 47q-58 51 -58 197q0 145 58 196q54 47 249 47zM376 420q-78 0 -108 -3q-73 -9 -97 -39q-29 -36 -29 -141q0 -116 37 -150t196 -34q78 0 107 3q72 9 96 39
q29 37 29 140q0 117 -37 151t-194 34zM191 561v64h136v-64h-136zM428 561v64h136v-64h-136z" />
    <glyph glyph-name="otilde" unicode="&#xf5;" horiz-adv-x="748" 
d="M374 480q196 0 250 -47q58 -50 58 -200q0 -142 -58 -193q-30 -26 -85.5 -36.5t-164.5 -10.5q-195 0 -249 47q-58 51 -58 197q0 145 58 196q54 47 249 47zM376 420q-78 0 -108 -3q-73 -9 -97 -39q-29 -36 -29 -141q0 -116 37 -150t196 -34q78 0 107 3q72 9 96 39
q29 37 29 140q0 117 -37 151t-194 34zM495 642h71q-17 -96 -96 -96q-20 0 -32 3.5t-67 26.5q-27 11 -43 11q-30 0 -40 -34h-71q17 96 96 96q20 0 32 -3.5t67 -26.5q27 -11 43 -11q30 0 40 34z" />
    <glyph glyph-name="ocircumflex" unicode="&#xf4;" horiz-adv-x="748" 
d="M374 480q196 0 250 -47q58 -50 58 -200q0 -142 -58 -193q-30 -26 -85.5 -36.5t-164.5 -10.5q-195 0 -249 47q-58 51 -58 197q0 145 58 196q54 47 249 47zM376 420q-78 0 -108 -3q-73 -9 -97 -39q-29 -36 -29 -141q0 -116 37 -150t196 -34q78 0 107 3q72 9 96 39
q29 37 29 140q0 117 -37 151t-194 34zM378 670l162 -91l-10 -40l-152 55l-153 -55l-10 40z" />
    <glyph glyph-name="oacute" unicode="&#xf3;" horiz-adv-x="748" 
d="M374 480q196 0 250 -47q58 -50 58 -200q0 -142 -58 -193q-30 -26 -85.5 -36.5t-164.5 -10.5q-195 0 -249 47q-58 51 -58 197q0 145 58 196q54 47 249 47zM376 420q-78 0 -108 -3q-73 -9 -97 -39q-29 -36 -29 -141q0 -116 37 -150t196 -34q78 0 107 3q72 9 96 39
q29 37 29 140q0 117 -37 151t-194 34zM342 543l-11 40l198 84l23 -67z" />
    <glyph glyph-name="ograve" unicode="&#xf2;" horiz-adv-x="748" 
d="M374 480q196 0 250 -47q58 -50 58 -200q0 -142 -58 -193q-30 -26 -85.5 -36.5t-164.5 -10.5q-195 0 -249 47q-58 51 -58 197q0 145 58 196q54 47 249 47zM376 420q-78 0 -108 -3q-73 -9 -97 -39q-29 -36 -29 -141q0 -116 37 -150t196 -34q78 0 107 3q72 9 96 39
q29 37 29 140q0 117 -37 151t-194 34zM411 543l-210 57l23 67l198 -84z" />
    <glyph glyph-name="ntilde" unicode="&#xf1;" horiz-adv-x="729" 
d="M80 0v473h71v-94q23 64 73.5 85.5t179.5 21.5q141 0 193 -39.5t52 -148.5v-298h-71v294q0 76 -37.5 100.5t-156.5 24.5q-127 0 -180 -32t-53 -109v-278h-71zM484 642h71q-17 -96 -96 -96q-20 0 -32 3.5t-67 26.5q-27 11 -43 11q-30 0 -40 -34h-71q17 96 96 96
q20 0 32 -3.5t67 -26.5q27 -11 43 -11q30 0 40 34z" />
    <glyph glyph-name="eth" unicode="&#xf0;" horiz-adv-x="748" 
d="M411 578l-74 -56l-34 43l66 50q-20 23 -83 73l46 45q38 -29 91 -78l78 58l37 -40l-75 -57q79 -74 137 -152q82 -109 82 -240q0 -134 -58 -184q-30 -26 -86 -36.5t-164 -10.5q-195 0 -249 47q-58 51 -58 196q0 147 58 197q32 28 97 38q57 9 131 9q111 0 172 -24
q-12 14 -36 40q-13 15 -60 64zM367 420q-146 0 -185.5 -32.5t-39.5 -150.5q0 -116 37 -150t196 -34q77 0 107 4q72 8 96 38q29 36 29 131q0 108 -47 153q-42 41 -193 41z" />
    <glyph glyph-name="idieresis" unicode="&#xef;" horiz-adv-x="231" 
d="M80 0v473h71v-473h-71zM-12 561v64h109v-64h-109zM144 561v64h109v-64h-109z" />
    <glyph glyph-name="icircumflex" unicode="&#xee;" horiz-adv-x="231" 
d="M80 0v473h71v-473h-71zM119 670l136 -91l-13 -40l-123 55l-123 -55l-13 40z" />
    <glyph glyph-name="iacute" unicode="&#xed;" horiz-adv-x="231" 
d="M80 0v473h71v-473h-71zM90 543l-12 40l163 84l25 -65z" />
    <glyph glyph-name="igrave" unicode="&#xec;" horiz-adv-x="231" 
d="M81 0v473h71v-473h-71zM146 543l-174 59l25 65l163 -84z" />
    <glyph glyph-name="edieresis" unicode="&#xeb;" horiz-adv-x="729" 
d="M666 223h-524q0 -51 3 -69q5 -38 27 -61q28 -30 94 -38q22 -2 106 -2q126 0 169 17.5t51 71.5h73q-4 -60 -40 -95q-30 -30 -87.5 -42t-169.5 -12q-189 0 -243 47q-58 51 -58 196q0 146 58 197q54 47 242 47q119 0 176 -15t86 -55q38 -53 37 -187zM142 281h449
q-1 52 -14 76q-20 38 -61 50.5t-149 12.5t-149.5 -12.5t-61.5 -50.5q-13 -24 -14 -76zM185 561v64h136v-64h-136zM422 561v64h136v-64h-136z" />
    <glyph glyph-name="ecircumflex" unicode="&#xea;" horiz-adv-x="729" 
d="M666 223h-524q0 -51 3 -69q5 -38 27 -61q28 -30 94 -38q22 -2 106 -2q126 0 169 17.5t51 71.5h73q-4 -60 -40 -95q-30 -30 -87.5 -42t-169.5 -12q-189 0 -243 47q-58 51 -58 196q0 146 58 197q54 47 242 47q119 0 176 -15t86 -55q38 -53 37 -187zM142 281h449
q-1 52 -14 76q-20 38 -61 50.5t-149 12.5t-149.5 -12.5t-61.5 -50.5q-13 -24 -14 -76zM371 670l162 -91l-10 -40l-152 55l-153 -55l-10 40z" />
    <glyph glyph-name="eacute" unicode="&#xe9;" horiz-adv-x="729" 
d="M666 223h-524q0 -51 3 -69q5 -38 27 -61q28 -30 94 -38q22 -2 106 -2q126 0 169 17.5t51 71.5h73q-4 -60 -40 -95q-30 -30 -87.5 -42t-169.5 -12q-189 0 -243 47q-58 51 -58 196q0 146 58 197q54 47 242 47q119 0 176 -15t86 -55q38 -53 37 -187zM142 281h449
q-1 52 -14 76q-20 38 -61 50.5t-149 12.5t-149.5 -12.5t-61.5 -50.5q-13 -24 -14 -76zM335 543l-11 40l198 84l23 -67z" />
    <glyph glyph-name="egrave" unicode="&#xe8;" horiz-adv-x="729" 
d="M666 223h-524q0 -51 3 -69q5 -38 27 -61q28 -30 94 -38q22 -2 106 -2q126 0 169 17.5t51 71.5h73q-4 -60 -40 -95q-30 -30 -87.5 -42t-169.5 -12q-189 0 -243 47q-58 51 -58 196q0 146 58 197q54 47 242 47q119 0 176 -15t86 -55q38 -53 37 -187zM142 281h449
q-1 52 -14 76q-20 38 -61 50.5t-149 12.5t-149.5 -12.5t-61.5 -50.5q-13 -24 -14 -76zM411 543l-210 57l23 67l198 -84z" />
    <glyph glyph-name="ccedilla" unicode="&#xe7;" horiz-adv-x="713" 
d="M583 173h77q-4 -79 -36 -118q-29 -35 -86 -48.5t-176 -13.5q-189 0 -239 47q-56 52 -56 197q0 144 56 196q50 47 238 47q192 0 242 -46t50 -117v-10h-78v10q0 53 -39 78t-182 25q-75 0 -98 -3q-61 -8 -86 -40q-28 -36 -28 -140q0 -114 35 -149q26 -26 89 -33q21 -2 98 -2
q85 0 110 3q68 10 93 47q15 22 16 70zM245 -171l-27 42l149 86l35 -60z" />
    <glyph glyph-name="aring" unicode="&#xe5;" horiz-adv-x="716" 
d="M158 336h-76q1 58 22.5 89.5t73.5 43.5q44 11 160 11q114 0 149 -5q96 -13 128 -61q21 -33 21 -122v-292h-71v64q-18 -45 -59 -58t-163 -13q-98 0 -121 2q-82 5 -114 28q-48 34 -48 118q0 92 49.5 118.5t221.5 26.5q108 0 131 -3q79 -12 103 -62v50q0 73 -12 100
q-15 31 -63 41q-39 8 -150 8q-118 0 -149.5 -14.5t-32.5 -69.5zM352 226q-140 0 -179.5 -16t-39.5 -72q0 -63 53 -76q36 -9 159 -9q126 0 164 13q57 19 57 78q0 46 -39 66q-31 16 -175 16zM365 691q62 0 98 -20.5t36 -55.5q0 -76 -136 -76q-61 0 -96.5 20.5t-35.5 55.5
t36 55.5t98 20.5zM365 650q-77 0 -77 -35q0 -36 76 -36q78 0 78 36q0 35 -77 35z" />
    <glyph glyph-name="adieresis" unicode="&#xe4;" horiz-adv-x="716" 
d="M158 336h-76q1 58 22.5 89.5t73.5 43.5q44 11 160 11q114 0 149 -5q96 -13 128 -61q21 -33 21 -122v-292h-71v64q-18 -45 -59 -58t-163 -13q-98 0 -121 2q-82 5 -114 28q-48 34 -48 118q0 92 49.5 118.5t221.5 26.5q108 0 131 -3q79 -12 103 -62v50q0 73 -12 100
q-15 31 -63 41q-39 8 -150 8q-118 0 -149.5 -14.5t-32.5 -69.5zM352 226q-140 0 -179.5 -16t-39.5 -72q0 -63 53 -76q36 -9 159 -9q126 0 164 13q57 19 57 78q0 46 -39 66q-31 16 -175 16zM178 561v64h136v-64h-136zM415 561v64h136v-64h-136z" />
    <glyph glyph-name="atilde" unicode="&#xe3;" horiz-adv-x="716" 
d="M158 336h-76q1 58 22.5 89.5t73.5 43.5q44 11 160 11q114 0 149 -5q96 -13 128 -61q21 -33 21 -122v-292h-71v64q-18 -45 -59 -58t-163 -13q-98 0 -121 2q-82 5 -114 28q-48 34 -48 118q0 92 49.5 118.5t221.5 26.5q108 0 131 -3q79 -12 103 -62v50q0 73 -12 100
q-15 31 -63 41q-39 8 -150 8q-118 0 -149.5 -14.5t-32.5 -69.5zM352 226q-140 0 -179.5 -16t-39.5 -72q0 -63 53 -76q36 -9 159 -9q126 0 164 13q57 19 57 78q0 46 -39 66q-31 16 -175 16zM475 642h71q-17 -96 -96 -96q-20 0 -32 3.5t-67 26.5q-27 11 -43 11q-30 0 -40 -34
h-71q17 96 96 96q20 0 32 -3.5t67 -26.5q27 -11 43 -11q30 0 40 34z" />
    <glyph glyph-name="acircumflex" unicode="&#xe2;" horiz-adv-x="716" 
d="M158 336h-76q1 58 22.5 89.5t73.5 43.5q44 11 160 11q114 0 149 -5q96 -13 128 -61q21 -33 21 -122v-292h-71v64q-18 -45 -59 -58t-163 -13q-98 0 -121 2q-82 5 -114 28q-48 34 -48 118q0 92 49.5 118.5t221.5 26.5q108 0 131 -3q79 -12 103 -62v50q0 73 -12 100
q-15 31 -63 41q-39 8 -150 8q-118 0 -149.5 -14.5t-32.5 -69.5zM352 226q-140 0 -179.5 -16t-39.5 -72q0 -63 53 -76q36 -9 159 -9q126 0 164 13q57 19 57 78q0 46 -39 66q-31 16 -175 16zM372 670l162 -91l-10 -40l-152 55l-153 -55l-10 40z" />
    <glyph glyph-name="aacute" unicode="&#xe1;" horiz-adv-x="716" 
d="M158 336h-76q1 58 22.5 89.5t73.5 43.5q44 11 160 11q114 0 149 -5q96 -13 128 -61q21 -33 21 -122v-292h-71v64q-18 -45 -59 -58t-163 -13q-98 0 -121 2q-82 5 -114 28q-48 34 -48 118q0 92 49.5 118.5t221.5 26.5q108 0 131 -3q79 -12 103 -62v50q0 73 -12 100
q-15 31 -63 41q-39 8 -150 8q-118 0 -149.5 -14.5t-32.5 -69.5zM352 226q-140 0 -179.5 -16t-39.5 -72q0 -63 53 -76q36 -9 159 -9q126 0 164 13q57 19 57 78q0 46 -39 66q-31 16 -175 16zM328 543l-11 40l198 84l23 -67z" />
    <glyph glyph-name="agrave" unicode="&#xe0;" horiz-adv-x="716" 
d="M158 336h-76q1 58 22.5 89.5t73.5 43.5q44 11 160 11q114 0 149 -5q96 -13 128 -61q21 -33 21 -122v-292h-71v64q-18 -45 -59 -58t-163 -13q-98 0 -121 2q-82 5 -114 28q-48 34 -48 118q0 92 49.5 118.5t221.5 26.5q108 0 131 -3q79 -12 103 -62v50q0 73 -12 100
q-15 31 -63 41q-39 8 -150 8q-118 0 -149.5 -14.5t-32.5 -69.5zM352 226q-140 0 -179.5 -16t-39.5 -72q0 -63 53 -76q36 -9 159 -9q126 0 164 13q57 19 57 78q0 46 -39 66q-31 16 -175 16zM411 543l-210 57l23 67l198 -84z" />
    <glyph glyph-name="Thorn" unicode="&#xde;" horiz-adv-x="896" 
d="M93 0v667h80v-100h458q66 0 94 -5q55 -9 84 -39q40 -42 40 -153q0 -72 -11.5 -109t-41.5 -61q-47 -37 -147 -37h-476v-163h-80zM173 230h417q107 0 141.5 26.5t34.5 108.5q0 81 -32 108t-128 27h-433v-270z" />
    <glyph glyph-name="Yacute" unicode="&#xdd;" horiz-adv-x="814" 
d="M407 346l317 321h110l-387 -387v-280h-80v280l-387 387h110zM376 729l-15 45l250 77l27 -71z" />
    <glyph glyph-name="Udieresis" unicode="&#xdc;" horiz-adv-x="959" 
d="M793 667h80v-453q0 -90 -10 -118q-23 -63 -97 -83t-286 -20q-172 0 -245 11t-106.5 43t-39.5 89q-2 18 -2 78v453h80v-439q0 -68 4 -84q13 -52 67.5 -66.5t241.5 -14.5q131 0 154 2q113 8 139 43q13 18 16.5 37.5t3.5 82.5v439zM294 745v69h140v-69h-140zM539 745v69h140
v-69h-140z" />
    <glyph glyph-name="Ucircumflex" unicode="&#xdb;" horiz-adv-x="959" 
d="M793 667h80v-453q0 -90 -10 -118q-23 -63 -97 -83t-286 -20q-172 0 -245 11t-106.5 43t-39.5 89q-2 18 -2 78v453h80v-439q0 -68 4 -84q13 -52 67.5 -66.5t241.5 -14.5q131 0 154 2q113 8 139 43q13 18 16.5 37.5t3.5 82.5v439zM493 851l195 -79l-13 -43l-182 46
l-181 -46l-13 43z" />
    <glyph glyph-name="Uacute" unicode="&#xda;" horiz-adv-x="959" 
d="M793 667h80v-453q0 -90 -10 -118q-23 -63 -97 -83t-286 -20q-172 0 -245 11t-106.5 43t-39.5 89q-2 18 -2 78v453h80v-439q0 -68 4 -84q13 -52 67.5 -66.5t241.5 -14.5q131 0 154 2q113 8 139 43q13 18 16.5 37.5t3.5 82.5v439zM419 729l-15 45l250 77l27 -71z" />
    <glyph glyph-name="Ugrave" unicode="&#xd9;" horiz-adv-x="959" 
d="M793 667h80v-453q0 -90 -10 -118q-23 -63 -97 -83t-286 -20q-172 0 -245 11t-106.5 43t-39.5 89q-2 18 -2 78v453h80v-439q0 -68 4 -84q13 -52 67.5 -66.5t241.5 -14.5q131 0 154 2q113 8 139 43q13 18 16.5 37.5t3.5 82.5v439zM561 729l-262 51l27 71l250 -77z" />
    <glyph glyph-name="multiply" unicode="&#xd7;" horiz-adv-x="840" 
d="M420 376l198 198l42 -43l-198 -198l198 -198l-42 -42l-198 198l-198 -198l-43 42l198 198l-198 198l43 43z" />
    <glyph glyph-name="Odieresis" unicode="&#xd6;" horiz-adv-x="1005" 
d="M506 674q169 0 197 -2q128 -11 175 -59q40 -41 50 -133q3 -32 3 -147q0 -114 -3 -146q-10 -92 -50 -133q-48 -49 -177 -59q-24 -2 -199 -2t-199 2q-129 10 -177 59q-40 41 -50 133q-3 32 -3 146t3 147q10 92 50 133q47 49 178 59q25 2 202 2zM506 604q-143 0 -164 -1
q-121 -7 -151 -40q-26 -28 -33 -112q-2 -28 -2 -118t2 -118q7 -84 33 -111q32 -33 146 -40q16 -1 165 -1t165 1q114 7 146 40q26 27 33 111q2 27 2 118q0 151 -13 191q-17 56 -88 70q-51 10 -241 10zM313 745v69h140v-69h-140zM558 745v69h140v-69h-140z" />
    <glyph glyph-name="Otilde" unicode="&#xd5;" horiz-adv-x="1005" 
d="M506 674q169 0 197 -2q128 -11 175 -59q40 -41 50 -133q3 -32 3 -147q0 -114 -3 -146q-10 -92 -50 -133q-48 -49 -177 -59q-24 -2 -199 -2t-199 2q-129 10 -177 59q-40 41 -50 133q-3 32 -3 146t3 147q10 92 50 133q47 49 178 59q25 2 202 2zM506 604q-143 0 -164 -1
q-121 -7 -151 -40q-26 -28 -33 -112q-2 -28 -2 -118t2 -118q7 -84 33 -111q32 -33 146 -40q16 -1 165 -1t165 1q114 7 146 40q26 27 33 111q2 27 2 118q0 151 -13 191q-17 56 -88 70q-51 10 -241 10zM394 732h-64q4 50 33 78.5t76 28.5q32 0 87 -22q50 -20 74 -20
q43 0 50 46h64q-4 -50 -33 -78.5t-76 -28.5q-32 0 -87 22q-50 20 -74 20q-43 0 -50 -46z" />
    <glyph glyph-name="Ocircumflex" unicode="&#xd4;" horiz-adv-x="1005" 
d="M506 674q169 0 197 -2q128 -11 175 -59q40 -41 50 -133q3 -32 3 -147q0 -114 -3 -146q-10 -92 -50 -133q-48 -49 -177 -59q-24 -2 -199 -2t-199 2q-129 10 -177 59q-40 41 -50 133q-3 32 -3 146t3 147q10 92 50 133q47 49 178 59q25 2 202 2zM506 604q-143 0 -164 -1
q-121 -7 -151 -40q-26 -28 -33 -112q-2 -28 -2 -118t2 -118q7 -84 33 -111q32 -33 146 -40q16 -1 165 -1t165 1q114 7 146 40q26 27 33 111q2 27 2 118q0 151 -13 191q-17 56 -88 70q-51 10 -241 10zM508 851l195 -79l-13 -43l-182 46l-181 -46l-13 43z" />
    <glyph glyph-name="Oacute" unicode="&#xd3;" horiz-adv-x="1005" 
d="M506 674q169 0 197 -2q128 -11 175 -59q40 -41 50 -133q3 -32 3 -147q0 -114 -3 -146q-10 -92 -50 -133q-48 -49 -177 -59q-24 -2 -199 -2t-199 2q-129 10 -177 59q-40 41 -50 133q-3 32 -3 146t3 147q10 92 50 133q47 49 178 59q25 2 202 2zM506 604q-143 0 -164 -1
q-121 -7 -151 -40q-26 -28 -33 -112q-2 -28 -2 -118t2 -118q7 -84 33 -111q32 -33 146 -40q16 -1 165 -1t165 1q114 7 146 40q26 27 33 111q2 27 2 118q0 151 -13 191q-17 56 -88 70q-51 10 -241 10zM458 729l-15 45l250 77l27 -71z" />
    <glyph glyph-name="Ograve" unicode="&#xd2;" horiz-adv-x="1005" 
d="M506 674q169 0 197 -2q128 -11 175 -59q40 -41 50 -133q3 -32 3 -147q0 -114 -3 -146q-10 -92 -50 -133q-48 -49 -177 -59q-24 -2 -199 -2t-199 2q-129 10 -177 59q-40 41 -50 133q-3 32 -3 146t3 147q10 92 50 133q47 49 178 59q25 2 202 2zM506 604q-143 0 -164 -1
q-121 -7 -151 -40q-26 -28 -33 -112q-2 -28 -2 -118t2 -118q7 -84 33 -111q32 -33 146 -40q16 -1 165 -1t165 1q114 7 146 40q26 27 33 111q2 27 2 118q0 151 -13 191q-17 56 -88 70q-51 10 -241 10zM549 729l-262 51l27 71l250 -77z" />
    <glyph glyph-name="Ntilde" unicode="&#xd1;" horiz-adv-x="1026" 
d="M93 0v667h129l630 -610v610h80v-667h-129l-630 610v-610h-80zM425 732h-64q4 50 33 78.5t76 28.5q32 0 87 -22q50 -20 74 -20q43 0 50 46h64q-4 -50 -33 -78.5t-76 -28.5q-32 0 -87 22q-50 20 -74 20q-43 0 -50 -46z" />
    <glyph glyph-name="Eth" unicode="&#xd0;" horiz-adv-x="990" 
d="M93 312h-93v63h93v292h519q111 0 171 -22.5t91 -74.5q43 -74 43 -237t-43 -236q-31 -52 -91.5 -74.5t-170.5 -22.5h-519v312zM173 312v-245h446q141 0 181 65q34 55 34 198q0 154 -36 210q-39 60 -185 60h-440v-225h319v-63h-319z" />
    <glyph glyph-name="Idieresis" unicode="&#xcf;" horiz-adv-x="267" 
d="M93 0v667h80v-667h-80zM-4 745v69h117v-69h-117zM160 745v69h117v-69h-117z" />
    <glyph glyph-name="Icircumflex" unicode="&#xce;" horiz-adv-x="267" 
d="M93 0v667h80v-667h-80zM137 851l147 -82l-16 -40l-131 46l-132 -46l-16 40z" />
    <glyph glyph-name="Iacute" unicode="&#xcd;" horiz-adv-x="267" 
d="M94 0v667h80v-667h-80zM103 729l-15 45l197 77l27 -67z" />
    <glyph glyph-name="Igrave" unicode="&#xcc;" horiz-adv-x="267" 
d="M93 0v667h80v-667h-80zM164 729l-209 55l27 67l197 -77z" />
    <glyph glyph-name="Edieresis" unicode="&#xcb;" horiz-adv-x="819" 
d="M93 0v667h664v-67h-584v-223h563v-63h-563v-247h589v-67h-669zM247 745v69h140v-69h-140zM492 745v69h140v-69h-140z" />
    <glyph glyph-name="Ecircumflex" unicode="&#xca;" horiz-adv-x="819" 
d="M93 0v667h664v-67h-584v-223h563v-63h-563v-247h589v-67h-669zM442 851l195 -79l-13 -43l-182 46l-181 -46l-13 43z" />
    <glyph glyph-name="Eacute" unicode="&#xc9;" horiz-adv-x="819" 
d="M93 0v667h664v-67h-584v-223h563v-63h-563v-247h589v-67h-669zM392 729l-15 45l250 77l27 -71z" />
    <glyph glyph-name="Egrave" unicode="&#xc8;" horiz-adv-x="819" 
d="M93 0v667h664v-67h-584v-223h563v-63h-563v-247h589v-67h-669zM484 729l-262 51l27 71l250 -77z" />
    <glyph glyph-name="Ccedilla" unicode="&#xc7;" horiz-adv-x="937" 
d="M792 224h78v-28q0 -56 -5 -83q-9 -44 -38 -71q-34 -34 -110 -42q-69 -7 -242 -7q-151 0 -184 3q-119 11 -165 58q-40 41 -50 133q-3 31 -3 146q0 155 16 213.5t66 90.5q47 30 183 36q24 1 198 1q103 0 136 -3q91 -7 130 -34.5t52 -81.5q8 -31 10 -98h-78v17q0 63 -18 86
q-21 28 -86 37q-56 7 -204 7q-177 0 -226 -10q-67 -15 -84 -71q-12 -41 -12 -190q0 -93 2 -118q7 -84 33 -111q31 -32 130 -39q23 -2 140 -2q160 0 219 7q70 8 93 34q19 23 19 82v38zM366 -178l-27 46l152 85l36 -60z" />
    <glyph glyph-name="Aring" unicode="&#xc5;" horiz-adv-x="859" 
d="M703 150h-546l-88 -150h-89l393 667h113l393 -667h-88zM665 213l-235 398l-235 -398h470zM433 870q62 0 100.5 -21t38.5 -55q0 -35 -38 -56t-103 -21q-61 0 -99.5 21.5t-38.5 55.5q0 33 39.5 54.5t100.5 21.5zM433 829q-83 0 -83 -36q0 -35 82 -35q83 0 83 36
q0 35 -82 35z" />
    <glyph glyph-name="Adieresis" unicode="&#xc4;" horiz-adv-x="859" 
d="M703 150h-546l-88 -150h-89l393 667h113l393 -667h-88zM665 213l-235 398l-235 -398h470zM234 745v69h140v-69h-140zM479 745v69h140v-69h-140z" />
    <glyph glyph-name="Atilde" unicode="&#xc3;" horiz-adv-x="859" 
d="M703 150h-546l-88 -150h-89l393 667h113l393 -667h-88zM665 213l-235 398l-235 -398h470zM308 732h-64q4 50 33 78.5t76 28.5q32 0 87 -22q50 -20 74 -20q43 0 50 46h64q-4 -50 -33 -78.5t-76 -28.5q-32 0 -87 22q-50 20 -74 20q-43 0 -50 -46z" />
    <glyph glyph-name="Acircumflex" unicode="&#xc2;" horiz-adv-x="859" 
d="M703 150h-546l-88 -150h-89l393 667h113l393 -667h-88zM665 213l-235 398l-235 -398h470zM433 851l195 -79l-13 -43l-182 46l-181 -46l-13 43z" />
    <glyph glyph-name="Aacute" unicode="&#xc1;" horiz-adv-x="859" 
d="M703 150h-546l-88 -150h-89l393 667h113l393 -667h-88zM665 213l-235 398l-235 -398h470zM389 729l-15 45l250 77l27 -71z" />
    <glyph glyph-name="Agrave" unicode="&#xc0;" horiz-adv-x="859" 
d="M703 150h-546l-88 -150h-89l393 667h113l393 -667h-88zM665 213l-235 398l-235 -398h470zM481 729l-262 51l27 71l250 -77z" />
    <glyph glyph-name="mu" unicode="&#x3bc;" horiz-adv-x="729" 
d="M80 -200v673h71v-278q0 -74 50.5 -108t162.5 -34t163 34t51 108v278h71v-473h-71v94q-21 -59 -68.5 -83t-145.5 -24q-97 0 -144.5 24t-68.5 83v-294h-71z" />
    <glyph glyph-name="plusminus" unicode="&#xb1;" horiz-adv-x="840" 
d="M449 419h285v-59h-285v-253h-60v253h-282v59h282v248h60v-248zM734 59v-59h-627v59h627z" />
    <glyph glyph-name="degree" unicode="&#xb0;" horiz-adv-x="366" 
d="M185 674q57 0 99 -42t42 -100q0 -61 -42 -103t-101 -42t-101 42t-42 102q0 59 42.5 101t102.5 42zM184 622q-39 0 -66.5 -26.5t-27.5 -64.5q0 -39 27.5 -66t65.5 -27q39 0 66 27t27 66q0 37 -27.5 64t-64.5 27z" />
    <glyph glyph-name="registered" unicode="&#xae;" horiz-adv-x="896" 
d="M224 133v400h327q77 0 106 -26.5t29 -96.5q0 -45 -12 -66q-15 -25 -54 -32q59 -13 59 -73v-106h-54v79q0 50 -15 65t-66 15h-266v-159h-54zM278 336h255q58 0 77.5 15t19.5 61q0 45 -20 60t-80 15h-252v-151zM455 693q120 0 188.5 -19t116.5 -66q85 -84 85 -275
q0 -192 -85 -275q-49 -47 -117.5 -66t-193.5 -19q-115 0 -183.5 19.5t-115.5 65.5q-85 84 -85 275t85 275q47 46 116.5 65.5t188.5 19.5zM455 644q-103 0 -162 -16.5t-100 -56.5q-73 -72 -73 -238t73 -238q40 -40 99 -56.5t158 -16.5q107 0 166 16t101 57q73 71 73 238
q0 166 -73 238q-41 40 -100 56.5t-162 16.5z" />
    <glyph glyph-name="logicalnot" unicode="&#xac;" 
d="M394 0v200h-361v67h433v-267h-72z" />
    <glyph glyph-name="copyright" unicode="&#xa9;" horiz-adv-x="896" 
d="M633 272h53v-20q0 -49 -11 -73t-39 -36q-32 -14 -186 -14q-92 0 -110 2q-71 6 -99 35q-24 25 -30 79q-2 20 -2 88t2 88q6 54 30 79t64 31t174 6q133 0 165 -23q36 -26 39 -111h-54q1 5 1 12q0 51 -28 62.5t-150 11.5q-104 0 -132 -6q-38 -8 -48 -40q-7 -23 -7 -110
q0 -86 7 -109q9 -33 46 -41q27 -6 125 -6q130 0 160 11t30 58v26zM448 693q120 0 188.5 -19t116.5 -66q85 -84 85 -275q0 -192 -85 -275q-49 -47 -117.5 -66t-193.5 -19q-115 0 -183.5 19.5t-115.5 65.5q-85 84 -85 275t85 275q47 46 116.5 65.5t188.5 19.5zM448 644
q-103 0 -162 -16.5t-100 -56.5q-73 -72 -73 -238t73 -238q40 -40 99 -56.5t158 -16.5q107 0 166 16t101 57q73 71 73 238q0 166 -73 238q-41 40 -100 56.5t-162 16.5z" />
    <glyph glyph-name="brokenbar" unicode="&#xa6;" 
d="M214 667h72v-333h-72v333zM214 153h72v-320h-72v320z" />
    <glyph glyph-name="nonbreakingspace" unicode="&#xa0;" horiz-adv-x="250" 
 />
    <glyph glyph-name="minus" unicode="&#x2212;" horiz-adv-x="840" 
d="M734 372v-59h-627v59h627z" />
    <glyph glyph-name="threesuperior" unicode="&#xb3;" horiz-adv-x="561" 
d="M216 495h159q40 0 53.5 13.5t13.5 51.5q0 44 -21.5 53t-126.5 9q-101 0 -130 -4q-39 -4 -50 -22q-7 -13 -8 -59h-56q0 41 4 59q7 32 31 48q30 21 99 26q21 1 104 1q75 0 93 -1q61 -5 87 -23q32 -22 32 -91q0 -36 -7 -52q-10 -21 -38 -31q50 -16 50 -85q0 -48 -10.5 -71.5
t-37.5 -37.5q-30 -15 -158 -15q-173 0 -208 18q-44 23 -44 99v15h57v-16q0 -47 25.5 -57.5t138.5 -10.5q95 0 124 3q37 4 47 18q8 11 8 47q0 31 -4 42q-7 19 -33 22q-11 2 -32 2h-162v49z" />
    <glyph glyph-name="twosuperior" unicode="&#xb2;" horiz-adv-x="561" 
d="M58 513v18q0 90 43 117q37 23 178 23q155 0 189 -26q38 -29 38 -101q0 -78 -42 -104q-25 -15 -102 -21l-148 -11q-68 -5 -85 -20t-18 -72h396v-49h-454v24q0 97 27 129.5t115 38.5l149 10q67 5 85.5 17.5t18.5 54.5q0 55 -27 68t-140 13t-140 -14.5t-27 -75.5v-19h-56z
" />
    <glyph glyph-name="onesuperior" unicode="&#xb9;" horiz-adv-x="561" 
d="M149 499l-35 37l171 131h71v-400h-56v352z" />
    <glyph glyph-name="threequarters" unicode="&#xbe;" horiz-adv-x="1255" 
d="M216 495h159q40 0 53.5 13.5t13.5 51.5q0 44 -21.5 53t-126.5 9q-101 0 -130 -4q-39 -4 -50 -22q-7 -13 -8 -59h-56q0 41 4 59q7 32 31 48q30 21 99 26q21 1 104 1q75 0 93 -1q61 -5 87 -23q32 -22 32 -91q0 -36 -7 -52q-10 -21 -38 -31q50 -16 50 -85q0 -48 -10.5 -71.5
t-37.5 -37.5q-30 -15 -158 -15q-173 0 -208 18q-44 23 -44 99v15h57v-16q0 -47 25.5 -57.5t138.5 -10.5q95 0 124 3q37 4 47 18q8 11 8 47q0 31 -4 42q-7 19 -33 22q-11 2 -32 2h-162v49zM303 -5l586 676h62l-586 -676h-62zM746 85v68l326 247h73v-266h64v-49h-64v-85h-56
v85h-343zM802 134h283v217z" />
    <glyph glyph-name="onehalf" unicode="&#xbd;" horiz-adv-x="1255" 
d="M149 499l-35 37l171 131h71v-400h-56v352zM303 -5l586 676h62l-586 -676h-62zM752 246v18q0 90 43 117q37 23 178 23q154 0 190.5 -27t36.5 -100q0 -78 -42 -104q-25 -15 -102 -21l-148 -11q-68 -5 -85 -20t-18 -72h396v-49h-454v24q0 97 27 129.5t115 38.5l149 10
q67 5 85.5 17.5t18.5 54.5q0 55 -27 68t-140 13t-140 -14.5t-27 -75.5v-19h-56z" />
    <glyph glyph-name="onequarter" unicode="&#xbc;" horiz-adv-x="1255" 
d="M149 499l-35 37l171 131h71v-400h-56v352zM303 -5l586 676h62l-586 -676h-62zM746 85v68l326 247h73v-266h64v-49h-64v-85h-56v85h-343zM802 134h283v217z" />
    </font>
</defs>
</svg>
